%TF.GenerationSoftware,KiCad,Pcbnew,8.0.1*%
%TF.CreationDate,2024-04-06T00:37:26+05:30*%
%TF.ProjectId,Project,50726f6a-6563-4742-9e6b-696361645f70,rev?*%
%TF.SameCoordinates,Original*%
%TF.FileFunction,Copper,L2,Bot*%
%TF.FilePolarity,Positive*%
%FSLAX46Y46*%
G04 Gerber Fmt 4.6, Leading zero omitted, Abs format (unit mm)*
G04 Created by KiCad (PCBNEW 8.0.1) date 2024-04-06 00:37:26*
%MOMM*%
%LPD*%
G01*
G04 APERTURE LIST*
%TA.AperFunction,ComponentPad*%
%ADD10R,3.000000X3.000000*%
%TD*%
%TA.AperFunction,ComponentPad*%
%ADD11C,3.000000*%
%TD*%
%TA.AperFunction,ComponentPad*%
%ADD12C,0.800000*%
%TD*%
%TA.AperFunction,ComponentPad*%
%ADD13C,6.400000*%
%TD*%
%TA.AperFunction,ComponentPad*%
%ADD14R,1.700000X1.700000*%
%TD*%
%TA.AperFunction,ComponentPad*%
%ADD15O,1.700000X1.700000*%
%TD*%
%TA.AperFunction,ComponentPad*%
%ADD16O,0.900000X2.000000*%
%TD*%
%TA.AperFunction,ComponentPad*%
%ADD17O,0.900000X1.700000*%
%TD*%
%TA.AperFunction,ComponentPad*%
%ADD18R,2.100000X2.100000*%
%TD*%
%TA.AperFunction,ComponentPad*%
%ADD19C,2.100000*%
%TD*%
%TA.AperFunction,ViaPad*%
%ADD20C,0.600000*%
%TD*%
%TA.AperFunction,Conductor*%
%ADD21C,1.000000*%
%TD*%
%TA.AperFunction,Conductor*%
%ADD22C,0.500000*%
%TD*%
%TA.AperFunction,Conductor*%
%ADD23C,0.381000*%
%TD*%
%TA.AperFunction,Conductor*%
%ADD24C,0.254000*%
%TD*%
G04 APERTURE END LIST*
D10*
%TO.P,J2,1,Pin_1*%
%TO.N,GND*%
X68715000Y-79200000D03*
D11*
%TO.P,J2,2,Pin_2*%
%TO.N,9V*%
X63635000Y-79200000D03*
%TD*%
D12*
%TO.P,H1,1*%
%TO.N,N/C*%
X50275000Y-32350000D03*
X50977944Y-30652944D03*
X50977944Y-34047056D03*
X52675000Y-29950000D03*
D13*
X52675000Y-32350000D03*
D12*
X52675000Y-34750000D03*
X54372056Y-30652944D03*
X54372056Y-34047056D03*
X55075000Y-32350000D03*
%TD*%
%TO.P,H2,1*%
%TO.N,N/C*%
X50275000Y-78850000D03*
X50977944Y-77152944D03*
X50977944Y-80547056D03*
X52675000Y-76450000D03*
D13*
X52675000Y-78850000D03*
D12*
X52675000Y-81250000D03*
X54372056Y-77152944D03*
X54372056Y-80547056D03*
X55075000Y-78850000D03*
%TD*%
D14*
%TO.P,J3,1,Pin_1*%
%TO.N,/A+*%
X51375000Y-42050000D03*
D15*
%TO.P,J3,2,Pin_2*%
%TO.N,/A-*%
X51375000Y-44590000D03*
%TO.P,J3,3,Pin_3*%
%TO.N,/B+*%
X51375000Y-47130000D03*
%TO.P,J3,4,Pin_4*%
%TO.N,/B-*%
X51375000Y-49670000D03*
%TD*%
D16*
%TO.P,J1,S1,SHIELD*%
%TO.N,GND*%
X79430000Y-77070000D03*
D17*
X79430000Y-81240000D03*
D16*
X88070000Y-77070000D03*
D17*
X88070000Y-81240000D03*
%TD*%
D18*
%TO.P,J5,1,Pin_1*%
%TO.N,GND*%
X102915000Y-79450000D03*
D19*
%TO.P,J5,2,Pin_2*%
%TO.N,TEMP*%
X100375000Y-79450000D03*
%TO.P,J5,3,Pin_3*%
%TO.N,3V3*%
X97835000Y-79450000D03*
%TD*%
D12*
%TO.P,H3,1*%
%TO.N,N/C*%
X108775000Y-32350000D03*
X109477944Y-30652944D03*
X109477944Y-34047056D03*
X111175000Y-29950000D03*
D13*
X111175000Y-32350000D03*
D12*
X111175000Y-34750000D03*
X112872056Y-30652944D03*
X112872056Y-34047056D03*
X113575000Y-32350000D03*
%TD*%
D14*
%TO.P,J7,1,Pin_1*%
%TO.N,Net-(J7-Pin_1)*%
X108900000Y-68260000D03*
D15*
%TO.P,J7,2,Pin_2*%
%TO.N,Net-(J7-Pin_2)*%
X108900000Y-65720000D03*
%TO.P,J7,3,Pin_3*%
%TO.N,Net-(J7-Pin_3)*%
X108900000Y-63180000D03*
%TO.P,J7,4,Pin_4*%
%TO.N,Net-(J7-Pin_4)*%
X108900000Y-60640000D03*
%TO.P,J7,5,Pin_5*%
%TO.N,Net-(J7-Pin_5)*%
X108900000Y-58100000D03*
%TO.P,J7,6,Pin_6*%
%TO.N,Net-(J7-Pin_6)*%
X108900000Y-55560000D03*
%TD*%
D14*
%TO.P,J9,1,Pin_1*%
%TO.N,Net-(J9-Pin_1)*%
X51425000Y-66025000D03*
D15*
%TO.P,J9,2,Pin_2*%
%TO.N,Net-(J9-Pin_2)*%
X51425000Y-68565000D03*
%TD*%
D12*
%TO.P,H4,1*%
%TO.N,N/C*%
X108775000Y-78850000D03*
X109477944Y-77152944D03*
X109477944Y-80547056D03*
X111175000Y-76450000D03*
D13*
X111175000Y-78850000D03*
D12*
X111175000Y-81250000D03*
X112872056Y-77152944D03*
X112872056Y-80547056D03*
X113575000Y-78850000D03*
%TD*%
D14*
%TO.P,J4,1,Pin_1*%
%TO.N,GND*%
X109050000Y-42100000D03*
D15*
%TO.P,J4,2,Pin_2*%
%TO.N,TX*%
X109050000Y-44640000D03*
%TO.P,J4,3,Pin_3*%
%TO.N,RX*%
X109050000Y-47180000D03*
%TD*%
D14*
%TO.P,J6,1,Pin_1*%
%TO.N,Net-(IC1-DECAY)*%
X72705000Y-34800000D03*
D15*
%TO.P,J6,2,Pin_2*%
%TO.N,Net-(IC1-MODE0)*%
X70165000Y-34800000D03*
%TO.P,J6,3,Pin_3*%
%TO.N,Net-(IC1-MODE1)*%
X67625000Y-34800000D03*
%TO.P,J6,4,Pin_4*%
%TO.N,Net-(IC1-MODE2)*%
X65085000Y-34800000D03*
%TD*%
D20*
%TO.N,9V*%
X58150000Y-59800000D03*
X57350000Y-40300000D03*
X57550000Y-60400000D03*
X59850000Y-53700000D03*
%TO.N,GND*%
X67275000Y-46599998D03*
X68475000Y-43633334D03*
X83750000Y-74550000D03*
X90850000Y-47850000D03*
X90850000Y-43150000D03*
X67275000Y-45858332D03*
X93468000Y-37562000D03*
X69050000Y-40150000D03*
X93775000Y-64550000D03*
X98548000Y-37562000D03*
X66075000Y-44375000D03*
X68475000Y-46599998D03*
X55900000Y-54800000D03*
X64350000Y-51400000D03*
X67275000Y-44375000D03*
X77500000Y-62800000D03*
X78900000Y-71350000D03*
X89404000Y-37562000D03*
X92452000Y-37562000D03*
X101225000Y-64550000D03*
X66075000Y-45858332D03*
X97532000Y-37562000D03*
X67275000Y-45116666D03*
X68475000Y-44375000D03*
X66075000Y-48083334D03*
X68475000Y-48083334D03*
X66075000Y-43633334D03*
X68900000Y-52950000D03*
X99564000Y-37562000D03*
X68475000Y-45858332D03*
X94484000Y-37562000D03*
X66075000Y-46599998D03*
X74450000Y-63050000D03*
X54250000Y-52200000D03*
X68475000Y-47341664D03*
X74750000Y-40850000D03*
X52350000Y-54800000D03*
X66075000Y-45116666D03*
X67275000Y-43633334D03*
X62600000Y-53700000D03*
X91436000Y-37562000D03*
X67275000Y-48083334D03*
X86356000Y-37562000D03*
X95500000Y-37562000D03*
X93850000Y-46200000D03*
X68475000Y-45116666D03*
X83950000Y-62950000D03*
X53850000Y-44000000D03*
X88388000Y-37562000D03*
X96516000Y-37562000D03*
X87850000Y-71400000D03*
X92250000Y-43150000D03*
X53900000Y-47750000D03*
X92200000Y-47850000D03*
X66075000Y-47341664D03*
X87372000Y-37562000D03*
X81650000Y-37700000D03*
X74750000Y-38450000D03*
X93850000Y-44800000D03*
X62600000Y-56850000D03*
X90420000Y-37562000D03*
X67275000Y-47341664D03*
%TO.N,3V3*%
X71550000Y-68000000D03*
X89400000Y-61950000D03*
X76200000Y-57300000D03*
X76000000Y-47200000D03*
X76450000Y-34450000D03*
X86000000Y-39050000D03*
%TO.N,EN*%
X90700000Y-64600000D03*
X85750000Y-40350000D03*
%TO.N,VUSB*%
X86300000Y-69900000D03*
X80500000Y-74700000D03*
X86900000Y-74700000D03*
X83750000Y-69450000D03*
%TO.N,Net-(IC1-DECAY)*%
X73650000Y-46100000D03*
%TO.N,TEMP*%
X100000000Y-70300000D03*
X100300000Y-40350000D03*
%TO.N,IN2*%
X81800000Y-46700000D03*
X65300000Y-67300000D03*
%TO.N,IN1*%
X65350000Y-66000000D03*
X81750000Y-47950000D03*
%TO.N,Net-(J7-Pin_4)*%
X93700000Y-57250000D03*
%TO.N,Net-(J7-Pin_3)*%
X92400000Y-57300000D03*
%TO.N,Net-(J7-Pin_5)*%
X94950000Y-57300000D03*
%TO.N,Net-(J7-Pin_2)*%
X91150000Y-57350000D03*
%TO.N,Net-(J7-Pin_1)*%
X89850000Y-57300000D03*
%TO.N,Net-(J7-Pin_6)*%
X96250000Y-57300000D03*
%TD*%
D21*
%TO.N,9V*%
X58800000Y-61150000D02*
X61150000Y-63500000D01*
X57550000Y-60400000D02*
X58050000Y-60400000D01*
X59850000Y-53700000D02*
X59850000Y-58100000D01*
X63635000Y-72135000D02*
X63635000Y-79200000D01*
X61150000Y-69650000D02*
X63635000Y-72135000D01*
X57550000Y-60400000D02*
X58150000Y-59800000D01*
X58150000Y-59800000D02*
X58150000Y-60500000D01*
X58050000Y-60400000D02*
X58800000Y-61150000D01*
X59850000Y-58100000D02*
X58150000Y-59800000D01*
X61150000Y-63500000D02*
X61150000Y-69650000D01*
X59850000Y-53700000D02*
X59850000Y-42800000D01*
X59850000Y-42800000D02*
X57350000Y-40300000D01*
X58150000Y-60500000D02*
X58800000Y-61150000D01*
D22*
%TO.N,3V3*%
X87350000Y-39850000D02*
X87350000Y-59900000D01*
X86000000Y-39050000D02*
X86550000Y-39050000D01*
X87350000Y-59900000D02*
X89400000Y-61950000D01*
X76200000Y-57300000D02*
X76200000Y-63350000D01*
X76200000Y-63350000D02*
X71550000Y-68000000D01*
X86550000Y-39050000D02*
X87350000Y-39850000D01*
D23*
X76450000Y-46750000D02*
X76000000Y-47200000D01*
X76450000Y-34450000D02*
X76450000Y-46750000D01*
D24*
%TO.N,EN*%
X86150000Y-40750000D02*
X85750000Y-40350000D01*
X86150000Y-62250000D02*
X86150000Y-40750000D01*
X88500000Y-64600000D02*
X86150000Y-62250000D01*
X90700000Y-64600000D02*
X88500000Y-64600000D01*
D22*
%TO.N,VUSB*%
X85850000Y-69450000D02*
X83750000Y-69450000D01*
X81550000Y-75750000D02*
X85850000Y-75750000D01*
X86300000Y-69900000D02*
X85850000Y-69450000D01*
X85850000Y-75750000D02*
X86900000Y-74700000D01*
X80500000Y-74700000D02*
X81550000Y-75750000D01*
D24*
%TO.N,Net-(IC1-DECAY)*%
X72705000Y-45155000D02*
X72705000Y-34800000D01*
X73650000Y-46100000D02*
X72705000Y-45155000D01*
%TO.N,TEMP*%
X88600000Y-58150000D02*
X88600000Y-42000000D01*
X88600000Y-42000000D02*
X90250000Y-40350000D01*
X100000000Y-69550000D02*
X88600000Y-58150000D01*
X90250000Y-40350000D02*
X100300000Y-40350000D01*
X100000000Y-70300000D02*
X100000000Y-69550000D01*
%TO.N,IN2*%
X82377000Y-48273000D02*
X80100000Y-50550000D01*
X75050000Y-70050000D02*
X68400000Y-70050000D01*
X81800000Y-46700000D02*
X82377000Y-47277000D01*
X82377000Y-47277000D02*
X82377000Y-48273000D01*
X80100000Y-65000000D02*
X75050000Y-70050000D01*
X65650000Y-67300000D02*
X65300000Y-67300000D01*
X80100000Y-50550000D02*
X80100000Y-65000000D01*
X68400000Y-70050000D02*
X65650000Y-67300000D01*
%TO.N,IN1*%
X68750000Y-69400000D02*
X65350000Y-66000000D01*
X74800000Y-69400000D02*
X68750000Y-69400000D01*
X79550000Y-64650000D02*
X74800000Y-69400000D01*
X79550000Y-50150000D02*
X79550000Y-64650000D01*
X81750000Y-47950000D02*
X79550000Y-50150000D01*
%TO.N,Net-(J7-Pin_4)*%
X93700000Y-57250000D02*
X97090000Y-60640000D01*
X97090000Y-60640000D02*
X108900000Y-60640000D01*
%TO.N,Net-(J7-Pin_3)*%
X92400000Y-57300000D02*
X98280000Y-63180000D01*
X98280000Y-63180000D02*
X108900000Y-63180000D01*
%TO.N,Net-(J7-Pin_5)*%
X94950000Y-57300000D02*
X95750000Y-58100000D01*
X95750000Y-58100000D02*
X108900000Y-58100000D01*
%TO.N,Net-(J7-Pin_2)*%
X91150000Y-57350000D02*
X99520000Y-65720000D01*
X99520000Y-65720000D02*
X108900000Y-65720000D01*
%TO.N,Net-(J7-Pin_1)*%
X100810000Y-68260000D02*
X108900000Y-68260000D01*
X89850000Y-57300000D02*
X100810000Y-68260000D01*
%TO.N,Net-(J7-Pin_6)*%
X105990000Y-55560000D02*
X108900000Y-55560000D01*
X96250000Y-57300000D02*
X104250000Y-57300000D01*
X104250000Y-57300000D02*
X105990000Y-55560000D01*
%TD*%
%TA.AperFunction,Conductor*%
%TO.N,GND*%
G36*
X81743039Y-28370185D02*
G01*
X81788794Y-28422989D01*
X81800000Y-28474500D01*
X81800000Y-37000000D01*
X104200000Y-37000000D01*
X104200000Y-32350002D01*
X107769506Y-32350002D01*
X107789469Y-32718196D01*
X107789470Y-32718213D01*
X107849122Y-33082068D01*
X107849128Y-33082094D01*
X107947768Y-33437365D01*
X107947770Y-33437371D01*
X108084255Y-33779926D01*
X108084261Y-33779938D01*
X108256973Y-34105708D01*
X108256976Y-34105713D01*
X108256978Y-34105716D01*
X108463910Y-34410917D01*
X108702627Y-34691956D01*
X108970330Y-34945538D01*
X109263881Y-35168690D01*
X109579838Y-35358795D01*
X109579840Y-35358796D01*
X109579842Y-35358797D01*
X109579846Y-35358799D01*
X109914486Y-35513620D01*
X109914497Y-35513625D01*
X110263934Y-35631364D01*
X110624052Y-35710632D01*
X110990630Y-35750500D01*
X110990636Y-35750500D01*
X111359364Y-35750500D01*
X111359370Y-35750500D01*
X111725948Y-35710632D01*
X112086066Y-35631364D01*
X112435503Y-35513625D01*
X112770162Y-35358795D01*
X113086119Y-35168690D01*
X113379670Y-34945538D01*
X113647373Y-34691956D01*
X113886090Y-34410917D01*
X114093022Y-34105716D01*
X114265743Y-33779930D01*
X114402227Y-33437379D01*
X114500875Y-33082081D01*
X114560531Y-32718199D01*
X114580494Y-32350000D01*
X114560531Y-31981801D01*
X114500875Y-31617919D01*
X114402227Y-31262621D01*
X114265743Y-30920070D01*
X114093022Y-30594284D01*
X113886090Y-30289083D01*
X113647373Y-30008044D01*
X113379670Y-29754462D01*
X113086119Y-29531310D01*
X112770162Y-29341205D01*
X112770161Y-29341204D01*
X112770157Y-29341202D01*
X112770153Y-29341200D01*
X112435513Y-29186379D01*
X112435508Y-29186377D01*
X112435503Y-29186375D01*
X112265172Y-29128983D01*
X112086065Y-29068635D01*
X111725946Y-28989367D01*
X111359371Y-28949500D01*
X111359370Y-28949500D01*
X110990630Y-28949500D01*
X110990628Y-28949500D01*
X110624053Y-28989367D01*
X110263934Y-29068635D01*
X109993812Y-29159650D01*
X109914497Y-29186375D01*
X109914494Y-29186376D01*
X109914486Y-29186379D01*
X109579846Y-29341200D01*
X109579842Y-29341202D01*
X109344538Y-29482779D01*
X109263881Y-29531310D01*
X109163410Y-29607685D01*
X108970330Y-29754461D01*
X108970330Y-29754462D01*
X108702626Y-30008044D01*
X108463909Y-30289083D01*
X108256979Y-30594282D01*
X108256973Y-30594291D01*
X108084261Y-30920061D01*
X108084255Y-30920073D01*
X107947770Y-31262628D01*
X107947768Y-31262634D01*
X107849128Y-31617905D01*
X107849122Y-31617931D01*
X107789470Y-31981786D01*
X107789469Y-31981803D01*
X107769506Y-32349997D01*
X107769506Y-32350002D01*
X104200000Y-32350002D01*
X104200000Y-28474500D01*
X104219685Y-28407461D01*
X104272489Y-28361706D01*
X104324000Y-28350500D01*
X115050500Y-28350500D01*
X115117539Y-28370185D01*
X115163294Y-28422989D01*
X115174500Y-28474500D01*
X115174500Y-82725500D01*
X115154815Y-82792539D01*
X115102011Y-82838294D01*
X115050500Y-82849500D01*
X48799500Y-82849500D01*
X48732461Y-82829815D01*
X48686706Y-82777011D01*
X48675500Y-82725500D01*
X48675500Y-78850002D01*
X49269506Y-78850002D01*
X49289469Y-79218196D01*
X49289470Y-79218213D01*
X49349122Y-79582068D01*
X49349128Y-79582094D01*
X49447768Y-79937365D01*
X49447770Y-79937371D01*
X49447772Y-79937377D01*
X49447773Y-79937379D01*
X49456786Y-79960000D01*
X49584255Y-80279926D01*
X49584261Y-80279938D01*
X49756973Y-80605708D01*
X49756976Y-80605713D01*
X49756978Y-80605716D01*
X49824482Y-80705277D01*
X49963909Y-80910916D01*
X50161341Y-81143350D01*
X50202627Y-81191956D01*
X50470330Y-81445538D01*
X50763881Y-81668690D01*
X51079838Y-81858795D01*
X51079840Y-81858796D01*
X51079842Y-81858797D01*
X51079846Y-81858799D01*
X51255359Y-81940000D01*
X51414497Y-82013625D01*
X51763934Y-82131364D01*
X52124052Y-82210632D01*
X52490630Y-82250500D01*
X52490636Y-82250500D01*
X52859364Y-82250500D01*
X52859370Y-82250500D01*
X53225948Y-82210632D01*
X53586066Y-82131364D01*
X53935503Y-82013625D01*
X54270162Y-81858795D01*
X54478286Y-81733571D01*
X78480000Y-81733571D01*
X78516506Y-81917097D01*
X78516508Y-81917105D01*
X78588119Y-82089991D01*
X78588124Y-82090000D01*
X78692086Y-82245589D01*
X78692089Y-82245593D01*
X78824406Y-82377910D01*
X78824410Y-82377913D01*
X78979999Y-82481875D01*
X78980012Y-82481882D01*
X79152889Y-82553489D01*
X79152896Y-82553491D01*
X79180000Y-82558882D01*
X79180000Y-81806988D01*
X79189940Y-81824205D01*
X79245795Y-81880060D01*
X79314204Y-81919556D01*
X79390504Y-81940000D01*
X79469496Y-81940000D01*
X79545796Y-81919556D01*
X79614205Y-81880060D01*
X79670060Y-81824205D01*
X79680000Y-81806988D01*
X79680000Y-82558881D01*
X79707103Y-82553491D01*
X79707110Y-82553489D01*
X79879987Y-82481882D01*
X79880000Y-82481875D01*
X80035589Y-82377913D01*
X80035593Y-82377910D01*
X80167910Y-82245593D01*
X80167913Y-82245589D01*
X80271875Y-82090000D01*
X80271880Y-82089991D01*
X80343491Y-81917105D01*
X80343493Y-81917097D01*
X80379999Y-81733571D01*
X87120000Y-81733571D01*
X87156506Y-81917097D01*
X87156508Y-81917105D01*
X87228119Y-82089991D01*
X87228124Y-82090000D01*
X87332086Y-82245589D01*
X87332089Y-82245593D01*
X87464406Y-82377910D01*
X87464410Y-82377913D01*
X87619999Y-82481875D01*
X87620012Y-82481882D01*
X87792889Y-82553489D01*
X87792896Y-82553491D01*
X87820000Y-82558882D01*
X87820000Y-81806988D01*
X87829940Y-81824205D01*
X87885795Y-81880060D01*
X87954204Y-81919556D01*
X88030504Y-81940000D01*
X88109496Y-81940000D01*
X88185796Y-81919556D01*
X88254205Y-81880060D01*
X88310060Y-81824205D01*
X88320000Y-81806988D01*
X88320000Y-82558881D01*
X88347103Y-82553491D01*
X88347110Y-82553489D01*
X88519987Y-82481882D01*
X88520000Y-82481875D01*
X88675589Y-82377913D01*
X88675593Y-82377910D01*
X88807910Y-82245593D01*
X88807913Y-82245589D01*
X88911875Y-82090000D01*
X88911880Y-82089991D01*
X88983491Y-81917105D01*
X88983493Y-81917097D01*
X89019999Y-81733571D01*
X89020000Y-81733569D01*
X89020000Y-81490000D01*
X88370000Y-81490000D01*
X88370000Y-80990000D01*
X89020000Y-80990000D01*
X89020000Y-80746430D01*
X89019999Y-80746428D01*
X88983493Y-80562902D01*
X88983491Y-80562894D01*
X88911880Y-80390008D01*
X88911875Y-80389999D01*
X88807913Y-80234410D01*
X88807910Y-80234406D01*
X88675593Y-80102089D01*
X88675589Y-80102086D01*
X88520000Y-79998124D01*
X88519991Y-79998119D01*
X88347103Y-79926507D01*
X88347100Y-79926506D01*
X88320000Y-79921115D01*
X88320000Y-80673011D01*
X88310060Y-80655795D01*
X88254205Y-80599940D01*
X88185796Y-80560444D01*
X88109496Y-80540000D01*
X88030504Y-80540000D01*
X87954204Y-80560444D01*
X87885795Y-80599940D01*
X87829940Y-80655795D01*
X87820000Y-80673011D01*
X87820000Y-79921116D01*
X87819999Y-79921115D01*
X87792899Y-79926506D01*
X87792896Y-79926507D01*
X87620008Y-79998119D01*
X87619999Y-79998124D01*
X87464410Y-80102086D01*
X87464406Y-80102089D01*
X87332089Y-80234406D01*
X87332086Y-80234410D01*
X87228124Y-80389999D01*
X87228119Y-80390008D01*
X87156508Y-80562894D01*
X87156506Y-80562902D01*
X87120000Y-80746428D01*
X87120000Y-80990000D01*
X87770000Y-80990000D01*
X87770000Y-81490000D01*
X87120000Y-81490000D01*
X87120000Y-81733571D01*
X80379999Y-81733571D01*
X80380000Y-81733569D01*
X80380000Y-81490000D01*
X79730000Y-81490000D01*
X79730000Y-80990000D01*
X80380000Y-80990000D01*
X80380000Y-80746430D01*
X80379999Y-80746428D01*
X80343493Y-80562902D01*
X80343491Y-80562894D01*
X80271880Y-80390008D01*
X80271875Y-80389999D01*
X80167913Y-80234410D01*
X80167910Y-80234406D01*
X80035593Y-80102089D01*
X80035589Y-80102086D01*
X79880000Y-79998124D01*
X79879991Y-79998119D01*
X79707103Y-79926507D01*
X79707100Y-79926506D01*
X79680000Y-79921115D01*
X79680000Y-80673011D01*
X79670060Y-80655795D01*
X79614205Y-80599940D01*
X79545796Y-80560444D01*
X79469496Y-80540000D01*
X79390504Y-80540000D01*
X79314204Y-80560444D01*
X79245795Y-80599940D01*
X79189940Y-80655795D01*
X79180000Y-80673011D01*
X79180000Y-79921116D01*
X79179999Y-79921115D01*
X79152899Y-79926506D01*
X79152896Y-79926507D01*
X78980008Y-79998119D01*
X78979999Y-79998124D01*
X78824410Y-80102086D01*
X78824406Y-80102089D01*
X78692089Y-80234406D01*
X78692086Y-80234410D01*
X78588124Y-80389999D01*
X78588119Y-80390008D01*
X78516508Y-80562894D01*
X78516506Y-80562902D01*
X78480000Y-80746428D01*
X78480000Y-80990000D01*
X79130000Y-80990000D01*
X79130000Y-81490000D01*
X78480000Y-81490000D01*
X78480000Y-81733571D01*
X54478286Y-81733571D01*
X54586119Y-81668690D01*
X54879670Y-81445538D01*
X55147373Y-81191956D01*
X55386090Y-80910917D01*
X55593022Y-80605716D01*
X55765743Y-80279930D01*
X55902227Y-79937379D01*
X55919831Y-79873977D01*
X55972446Y-79684472D01*
X56000875Y-79582081D01*
X56057333Y-79237708D01*
X56060529Y-79218213D01*
X56060529Y-79218210D01*
X56060531Y-79218199D01*
X56080494Y-78850000D01*
X56078995Y-78822361D01*
X56073203Y-78715528D01*
X56060531Y-78481801D01*
X56058466Y-78469207D01*
X56000877Y-78117931D01*
X56000876Y-78117930D01*
X56000875Y-78117919D01*
X55956099Y-77956649D01*
X55902231Y-77762634D01*
X55902229Y-77762628D01*
X55902228Y-77762627D01*
X55902227Y-77762621D01*
X55765743Y-77420070D01*
X55649069Y-77200000D01*
X55593026Y-77094291D01*
X55593024Y-77094288D01*
X55593022Y-77094284D01*
X55386090Y-76789083D01*
X55147373Y-76508044D01*
X54879670Y-76254462D01*
X54586119Y-76031310D01*
X54270162Y-75841205D01*
X54270161Y-75841204D01*
X54270157Y-75841202D01*
X54270153Y-75841200D01*
X53935513Y-75686379D01*
X53935508Y-75686377D01*
X53935503Y-75686375D01*
X53765172Y-75628983D01*
X53586065Y-75568635D01*
X53225946Y-75489367D01*
X52859371Y-75449500D01*
X52859370Y-75449500D01*
X52490630Y-75449500D01*
X52490628Y-75449500D01*
X52124053Y-75489367D01*
X51763934Y-75568635D01*
X51493812Y-75659650D01*
X51414497Y-75686375D01*
X51414494Y-75686376D01*
X51414486Y-75686379D01*
X51079846Y-75841200D01*
X51079842Y-75841202D01*
X50958177Y-75914406D01*
X50763881Y-76031310D01*
X50712987Y-76069999D01*
X50470330Y-76254461D01*
X50470330Y-76254462D01*
X50202626Y-76508044D01*
X49963909Y-76789083D01*
X49756979Y-77094282D01*
X49756973Y-77094291D01*
X49584261Y-77420061D01*
X49584255Y-77420073D01*
X49447770Y-77762628D01*
X49447768Y-77762634D01*
X49349128Y-78117905D01*
X49349122Y-78117931D01*
X49289470Y-78481786D01*
X49289469Y-78481799D01*
X49289469Y-78481801D01*
X49286374Y-78538881D01*
X49269506Y-78849997D01*
X49269506Y-78850002D01*
X48675500Y-78850002D01*
X48675500Y-68565000D01*
X50369417Y-68565000D01*
X50389699Y-68770932D01*
X50389700Y-68770934D01*
X50449768Y-68968954D01*
X50547315Y-69151450D01*
X50547317Y-69151452D01*
X50678589Y-69311410D01*
X50724284Y-69348910D01*
X50838550Y-69442685D01*
X51021046Y-69540232D01*
X51219066Y-69600300D01*
X51219065Y-69600300D01*
X51237529Y-69602118D01*
X51425000Y-69620583D01*
X51630934Y-69600300D01*
X51828954Y-69540232D01*
X52011450Y-69442685D01*
X52171410Y-69311410D01*
X52302685Y-69151450D01*
X52400232Y-68968954D01*
X52460300Y-68770934D01*
X52480583Y-68565000D01*
X52460300Y-68359066D01*
X52400232Y-68161046D01*
X52302685Y-67978550D01*
X52203378Y-67857543D01*
X52171410Y-67818589D01*
X52011452Y-67687317D01*
X52011453Y-67687317D01*
X52011450Y-67687315D01*
X51828954Y-67589768D01*
X51630934Y-67529700D01*
X51630932Y-67529699D01*
X51630934Y-67529699D01*
X51425000Y-67509417D01*
X51219067Y-67529699D01*
X51021043Y-67589769D01*
X50910898Y-67648643D01*
X50838550Y-67687315D01*
X50838548Y-67687316D01*
X50838547Y-67687317D01*
X50678589Y-67818589D01*
X50547317Y-67978547D01*
X50449769Y-68161043D01*
X50389699Y-68359067D01*
X50369417Y-68565000D01*
X48675500Y-68565000D01*
X48675500Y-66894752D01*
X50374500Y-66894752D01*
X50386131Y-66953229D01*
X50386132Y-66953230D01*
X50430447Y-67019552D01*
X50496769Y-67063867D01*
X50496770Y-67063868D01*
X50555247Y-67075499D01*
X50555250Y-67075500D01*
X50555252Y-67075500D01*
X52294750Y-67075500D01*
X52294751Y-67075499D01*
X52309568Y-67072552D01*
X52353229Y-67063868D01*
X52353229Y-67063867D01*
X52353231Y-67063867D01*
X52419552Y-67019552D01*
X52463867Y-66953231D01*
X52463867Y-66953229D01*
X52463868Y-66953229D01*
X52475499Y-66894752D01*
X52475500Y-66894750D01*
X52475500Y-65155249D01*
X52475499Y-65155247D01*
X52463868Y-65096770D01*
X52463867Y-65096769D01*
X52419552Y-65030447D01*
X52353230Y-64986132D01*
X52353229Y-64986131D01*
X52294752Y-64974500D01*
X52294748Y-64974500D01*
X50555252Y-64974500D01*
X50555247Y-64974500D01*
X50496770Y-64986131D01*
X50496769Y-64986132D01*
X50430447Y-65030447D01*
X50386132Y-65096769D01*
X50386131Y-65096770D01*
X50374500Y-65155247D01*
X50374500Y-66894752D01*
X48675500Y-66894752D01*
X48675500Y-49670000D01*
X50319417Y-49670000D01*
X50339699Y-49875932D01*
X50339700Y-49875934D01*
X50399768Y-50073954D01*
X50497315Y-50256450D01*
X50497317Y-50256452D01*
X50628589Y-50416410D01*
X50725209Y-50495702D01*
X50788550Y-50547685D01*
X50971046Y-50645232D01*
X51169066Y-50705300D01*
X51169065Y-50705300D01*
X51187529Y-50707118D01*
X51375000Y-50725583D01*
X51580934Y-50705300D01*
X51778954Y-50645232D01*
X51961450Y-50547685D01*
X52121410Y-50416410D01*
X52252685Y-50256450D01*
X52350232Y-50073954D01*
X52410300Y-49875934D01*
X52430583Y-49670000D01*
X52410300Y-49464066D01*
X52350232Y-49266046D01*
X52252685Y-49083550D01*
X52200702Y-49020209D01*
X52121410Y-48923589D01*
X51961452Y-48792317D01*
X51961453Y-48792317D01*
X51961450Y-48792315D01*
X51778954Y-48694768D01*
X51580934Y-48634700D01*
X51580932Y-48634699D01*
X51580934Y-48634699D01*
X51375000Y-48614417D01*
X51169067Y-48634699D01*
X50971043Y-48694769D01*
X50860898Y-48753643D01*
X50788550Y-48792315D01*
X50788548Y-48792316D01*
X50788547Y-48792317D01*
X50628589Y-48923589D01*
X50497317Y-49083547D01*
X50399769Y-49266043D01*
X50339699Y-49464067D01*
X50319417Y-49670000D01*
X48675500Y-49670000D01*
X48675500Y-47130000D01*
X50319417Y-47130000D01*
X50339699Y-47335932D01*
X50354867Y-47385934D01*
X50399768Y-47533954D01*
X50497315Y-47716450D01*
X50497317Y-47716452D01*
X50628589Y-47876410D01*
X50718260Y-47950000D01*
X50788550Y-48007685D01*
X50971046Y-48105232D01*
X51169066Y-48165300D01*
X51169065Y-48165300D01*
X51187529Y-48167118D01*
X51375000Y-48185583D01*
X51580934Y-48165300D01*
X51778954Y-48105232D01*
X51961450Y-48007685D01*
X52121410Y-47876410D01*
X52252685Y-47716450D01*
X52350232Y-47533954D01*
X52410300Y-47335934D01*
X52430583Y-47130000D01*
X52410300Y-46924066D01*
X52350232Y-46726046D01*
X52252685Y-46543550D01*
X52162443Y-46433589D01*
X52121410Y-46383589D01*
X51961452Y-46252317D01*
X51961453Y-46252317D01*
X51961450Y-46252315D01*
X51778954Y-46154768D01*
X51580934Y-46094700D01*
X51580932Y-46094699D01*
X51580934Y-46094699D01*
X51375000Y-46074417D01*
X51169067Y-46094699D01*
X50971043Y-46154769D01*
X50860898Y-46213643D01*
X50788550Y-46252315D01*
X50788548Y-46252316D01*
X50788547Y-46252317D01*
X50628589Y-46383589D01*
X50502953Y-46536680D01*
X50497315Y-46543550D01*
X50488547Y-46559954D01*
X50399769Y-46726043D01*
X50399768Y-46726045D01*
X50399768Y-46726046D01*
X50395521Y-46740047D01*
X50339699Y-46924067D01*
X50319417Y-47130000D01*
X48675500Y-47130000D01*
X48675500Y-44590000D01*
X50319417Y-44590000D01*
X50339699Y-44795932D01*
X50354867Y-44845934D01*
X50399768Y-44993954D01*
X50497315Y-45176450D01*
X50497317Y-45176452D01*
X50628589Y-45336410D01*
X50725209Y-45415702D01*
X50788550Y-45467685D01*
X50971046Y-45565232D01*
X51169066Y-45625300D01*
X51169065Y-45625300D01*
X51187529Y-45627118D01*
X51375000Y-45645583D01*
X51580934Y-45625300D01*
X51778954Y-45565232D01*
X51961450Y-45467685D01*
X52121410Y-45336410D01*
X52252685Y-45176450D01*
X52350232Y-44993954D01*
X52410300Y-44795934D01*
X52430583Y-44590000D01*
X52410300Y-44384066D01*
X52350232Y-44186046D01*
X52252685Y-44003550D01*
X52162443Y-43893589D01*
X52121410Y-43843589D01*
X51961452Y-43712317D01*
X51961453Y-43712317D01*
X51961450Y-43712315D01*
X51778954Y-43614768D01*
X51580934Y-43554700D01*
X51580932Y-43554699D01*
X51580934Y-43554699D01*
X51375000Y-43534417D01*
X51169067Y-43554699D01*
X50971043Y-43614769D01*
X50895398Y-43655203D01*
X50788550Y-43712315D01*
X50788548Y-43712316D01*
X50788547Y-43712317D01*
X50628589Y-43843589D01*
X50497317Y-44003547D01*
X50399769Y-44186043D01*
X50339699Y-44384067D01*
X50319417Y-44590000D01*
X48675500Y-44590000D01*
X48675500Y-42919752D01*
X50324500Y-42919752D01*
X50336131Y-42978229D01*
X50336132Y-42978230D01*
X50380447Y-43044552D01*
X50446769Y-43088867D01*
X50446770Y-43088868D01*
X50505247Y-43100499D01*
X50505250Y-43100500D01*
X50505252Y-43100500D01*
X52244750Y-43100500D01*
X52244751Y-43100499D01*
X52259568Y-43097552D01*
X52303229Y-43088868D01*
X52303229Y-43088867D01*
X52303231Y-43088867D01*
X52369552Y-43044552D01*
X52413867Y-42978231D01*
X52413867Y-42978229D01*
X52413868Y-42978229D01*
X52425499Y-42919752D01*
X52425500Y-42919750D01*
X52425500Y-41180249D01*
X52425499Y-41180247D01*
X52413868Y-41121770D01*
X52413867Y-41121769D01*
X52369552Y-41055447D01*
X52303230Y-41011132D01*
X52303229Y-41011131D01*
X52244752Y-40999500D01*
X52244748Y-40999500D01*
X50505252Y-40999500D01*
X50505247Y-40999500D01*
X50446770Y-41011131D01*
X50446769Y-41011132D01*
X50380447Y-41055447D01*
X50336132Y-41121769D01*
X50336131Y-41121770D01*
X50324500Y-41180247D01*
X50324500Y-42919752D01*
X48675500Y-42919752D01*
X48675500Y-40368996D01*
X56649499Y-40368996D01*
X56676418Y-40504322D01*
X56676421Y-40504332D01*
X56729222Y-40631807D01*
X56805887Y-40746545D01*
X56805888Y-40746546D01*
X59113181Y-43053838D01*
X59146666Y-43115161D01*
X59149500Y-43141519D01*
X59149500Y-57758481D01*
X59129815Y-57825520D01*
X59113181Y-57846162D01*
X57703457Y-59255886D01*
X57005888Y-59953453D01*
X57005887Y-59953454D01*
X56929222Y-60068192D01*
X56876421Y-60195667D01*
X56876418Y-60195677D01*
X56849500Y-60331003D01*
X56849500Y-60331006D01*
X56849500Y-60468994D01*
X56849500Y-60468996D01*
X56849499Y-60468996D01*
X56876418Y-60604322D01*
X56876421Y-60604332D01*
X56929222Y-60731807D01*
X57005887Y-60846545D01*
X57103454Y-60944112D01*
X57218192Y-61020777D01*
X57345667Y-61073578D01*
X57345672Y-61073580D01*
X57345676Y-61073580D01*
X57345677Y-61073581D01*
X57481003Y-61100500D01*
X57481006Y-61100500D01*
X57481007Y-61100500D01*
X57708481Y-61100500D01*
X57775520Y-61120185D01*
X57796162Y-61136819D01*
X60413181Y-63753838D01*
X60446666Y-63815161D01*
X60449500Y-63841519D01*
X60449500Y-69581006D01*
X60449500Y-69718994D01*
X60449500Y-69718996D01*
X60449499Y-69718996D01*
X60476418Y-69854322D01*
X60476421Y-69854332D01*
X60529222Y-69981807D01*
X60605887Y-70096545D01*
X60605888Y-70096546D01*
X62898181Y-72388838D01*
X62931666Y-72450161D01*
X62934500Y-72476519D01*
X62934500Y-77572016D01*
X62914815Y-77639055D01*
X62864302Y-77683736D01*
X62782370Y-77723192D01*
X62571782Y-77866768D01*
X62384952Y-78040121D01*
X62384950Y-78040123D01*
X62226041Y-78239388D01*
X62098608Y-78460109D01*
X62005492Y-78697362D01*
X62005490Y-78697369D01*
X61948777Y-78945845D01*
X61929732Y-79199995D01*
X61929732Y-79200000D01*
X61948777Y-79454154D01*
X61997581Y-79667979D01*
X62005492Y-79702637D01*
X62095037Y-79930793D01*
X62098608Y-79939890D01*
X62111672Y-79962518D01*
X62226041Y-80160612D01*
X62384950Y-80359877D01*
X62571783Y-80533232D01*
X62782366Y-80676805D01*
X62782371Y-80676807D01*
X62782372Y-80676808D01*
X62782373Y-80676809D01*
X62880791Y-80724204D01*
X63011992Y-80787387D01*
X63011993Y-80787387D01*
X63011996Y-80787389D01*
X63255542Y-80862513D01*
X63507565Y-80900500D01*
X63762435Y-80900500D01*
X64014458Y-80862513D01*
X64258004Y-80787389D01*
X64340120Y-80747844D01*
X66715000Y-80747844D01*
X66721401Y-80807372D01*
X66721403Y-80807379D01*
X66771645Y-80942086D01*
X66771649Y-80942093D01*
X66857809Y-81057187D01*
X66857812Y-81057190D01*
X66972906Y-81143350D01*
X66972913Y-81143354D01*
X67107620Y-81193596D01*
X67107627Y-81193598D01*
X67167155Y-81199999D01*
X67167172Y-81200000D01*
X68465000Y-81200000D01*
X68465000Y-79919064D01*
X68493316Y-79930793D01*
X68640147Y-79960000D01*
X68789853Y-79960000D01*
X68936684Y-79930793D01*
X68965000Y-79919064D01*
X68965000Y-81200000D01*
X70262828Y-81200000D01*
X70262844Y-81199999D01*
X70322372Y-81193598D01*
X70322379Y-81193596D01*
X70457086Y-81143354D01*
X70457093Y-81143350D01*
X70572187Y-81057190D01*
X70572190Y-81057187D01*
X70658350Y-80942093D01*
X70658354Y-80942086D01*
X70708596Y-80807379D01*
X70708598Y-80807372D01*
X70714999Y-80747844D01*
X70715000Y-80747827D01*
X70715000Y-79450000D01*
X96579723Y-79450000D01*
X96591279Y-79582094D01*
X96598793Y-79667975D01*
X96598793Y-79667979D01*
X96655422Y-79879322D01*
X96655424Y-79879326D01*
X96655425Y-79879330D01*
X96660452Y-79890110D01*
X96747897Y-80077638D01*
X96747898Y-80077639D01*
X96873402Y-80256877D01*
X97028123Y-80411598D01*
X97207361Y-80537102D01*
X97405670Y-80629575D01*
X97617023Y-80686207D01*
X97799926Y-80702208D01*
X97834998Y-80705277D01*
X97835000Y-80705277D01*
X97835002Y-80705277D01*
X97863254Y-80702805D01*
X98052977Y-80686207D01*
X98264330Y-80629575D01*
X98462639Y-80537102D01*
X98641877Y-80411598D01*
X98796598Y-80256877D01*
X98922102Y-80077639D01*
X98992618Y-79926414D01*
X99038790Y-79873977D01*
X99105984Y-79854825D01*
X99172865Y-79875041D01*
X99217381Y-79926414D01*
X99287898Y-80077639D01*
X99413402Y-80256877D01*
X99568123Y-80411598D01*
X99747361Y-80537102D01*
X99945670Y-80629575D01*
X100157023Y-80686207D01*
X100339926Y-80702208D01*
X100374998Y-80705277D01*
X100375000Y-80705277D01*
X100375002Y-80705277D01*
X100403254Y-80702805D01*
X100592977Y-80686207D01*
X100804330Y-80629575D01*
X101002639Y-80537102D01*
X101169879Y-80419998D01*
X101236082Y-80397673D01*
X101303850Y-80414683D01*
X101351663Y-80465631D01*
X101365000Y-80521575D01*
X101365000Y-80547844D01*
X101371401Y-80607372D01*
X101371403Y-80607379D01*
X101421645Y-80742086D01*
X101421649Y-80742093D01*
X101507809Y-80857187D01*
X101507812Y-80857190D01*
X101622906Y-80943350D01*
X101622913Y-80943354D01*
X101757620Y-80993596D01*
X101757627Y-80993598D01*
X101817155Y-80999999D01*
X101817172Y-81000000D01*
X102665000Y-81000000D01*
X102665000Y-79940747D01*
X102702708Y-79962518D01*
X102842591Y-80000000D01*
X102987409Y-80000000D01*
X103127292Y-79962518D01*
X103165000Y-79940747D01*
X103165000Y-81000000D01*
X104012828Y-81000000D01*
X104012844Y-80999999D01*
X104072372Y-80993598D01*
X104072379Y-80993596D01*
X104207086Y-80943354D01*
X104207093Y-80943350D01*
X104322187Y-80857190D01*
X104322190Y-80857187D01*
X104408350Y-80742093D01*
X104408354Y-80742086D01*
X104458596Y-80607379D01*
X104458598Y-80607372D01*
X104464999Y-80547844D01*
X104465000Y-80547827D01*
X104465000Y-79700000D01*
X103405748Y-79700000D01*
X103427518Y-79662292D01*
X103465000Y-79522409D01*
X103465000Y-79377591D01*
X103427518Y-79237708D01*
X103405748Y-79200000D01*
X104465000Y-79200000D01*
X104465000Y-78850002D01*
X107769506Y-78850002D01*
X107789469Y-79218196D01*
X107789470Y-79218213D01*
X107849122Y-79582068D01*
X107849128Y-79582094D01*
X107947768Y-79937365D01*
X107947770Y-79937371D01*
X107947772Y-79937377D01*
X107947773Y-79937379D01*
X107956786Y-79960000D01*
X108084255Y-80279926D01*
X108084261Y-80279938D01*
X108256973Y-80605708D01*
X108256976Y-80605713D01*
X108256978Y-80605716D01*
X108324482Y-80705277D01*
X108463909Y-80910916D01*
X108661341Y-81143350D01*
X108702627Y-81191956D01*
X108970330Y-81445538D01*
X109263881Y-81668690D01*
X109579838Y-81858795D01*
X109579840Y-81858796D01*
X109579842Y-81858797D01*
X109579846Y-81858799D01*
X109755359Y-81940000D01*
X109914497Y-82013625D01*
X110263934Y-82131364D01*
X110624052Y-82210632D01*
X110990630Y-82250500D01*
X110990636Y-82250500D01*
X111359364Y-82250500D01*
X111359370Y-82250500D01*
X111725948Y-82210632D01*
X112086066Y-82131364D01*
X112435503Y-82013625D01*
X112770162Y-81858795D01*
X113086119Y-81668690D01*
X113379670Y-81445538D01*
X113647373Y-81191956D01*
X113886090Y-80910917D01*
X114093022Y-80605716D01*
X114265743Y-80279930D01*
X114402227Y-79937379D01*
X114419831Y-79873977D01*
X114472446Y-79684472D01*
X114500875Y-79582081D01*
X114557333Y-79237708D01*
X114560529Y-79218213D01*
X114560529Y-79218210D01*
X114560531Y-79218199D01*
X114580494Y-78850000D01*
X114578995Y-78822361D01*
X114573203Y-78715528D01*
X114560531Y-78481801D01*
X114558466Y-78469207D01*
X114500877Y-78117931D01*
X114500876Y-78117930D01*
X114500875Y-78117919D01*
X114456099Y-77956649D01*
X114402231Y-77762634D01*
X114402229Y-77762628D01*
X114402228Y-77762627D01*
X114402227Y-77762621D01*
X114265743Y-77420070D01*
X114149069Y-77200000D01*
X114093026Y-77094291D01*
X114093024Y-77094288D01*
X114093022Y-77094284D01*
X113886090Y-76789083D01*
X113647373Y-76508044D01*
X113379670Y-76254462D01*
X113086119Y-76031310D01*
X112770162Y-75841205D01*
X112770161Y-75841204D01*
X112770157Y-75841202D01*
X112770153Y-75841200D01*
X112435513Y-75686379D01*
X112435508Y-75686377D01*
X112435503Y-75686375D01*
X112265172Y-75628983D01*
X112086065Y-75568635D01*
X111725946Y-75489367D01*
X111359371Y-75449500D01*
X111359370Y-75449500D01*
X110990630Y-75449500D01*
X110990628Y-75449500D01*
X110624053Y-75489367D01*
X110263934Y-75568635D01*
X109993812Y-75659650D01*
X109914497Y-75686375D01*
X109914494Y-75686376D01*
X109914486Y-75686379D01*
X109579846Y-75841200D01*
X109579842Y-75841202D01*
X109458177Y-75914406D01*
X109263881Y-76031310D01*
X109212987Y-76069999D01*
X108970330Y-76254461D01*
X108970330Y-76254462D01*
X108702626Y-76508044D01*
X108463909Y-76789083D01*
X108256979Y-77094282D01*
X108256973Y-77094291D01*
X108084261Y-77420061D01*
X108084255Y-77420073D01*
X107947770Y-77762628D01*
X107947768Y-77762634D01*
X107849128Y-78117905D01*
X107849122Y-78117931D01*
X107789470Y-78481786D01*
X107789469Y-78481799D01*
X107789469Y-78481801D01*
X107786374Y-78538881D01*
X107769506Y-78849997D01*
X107769506Y-78850002D01*
X104465000Y-78850002D01*
X104465000Y-78352172D01*
X104464999Y-78352155D01*
X104458598Y-78292627D01*
X104458596Y-78292620D01*
X104408354Y-78157913D01*
X104408350Y-78157906D01*
X104322190Y-78042812D01*
X104322187Y-78042809D01*
X104207093Y-77956649D01*
X104207086Y-77956645D01*
X104072379Y-77906403D01*
X104072372Y-77906401D01*
X104012844Y-77900000D01*
X103165000Y-77900000D01*
X103165000Y-78959252D01*
X103127292Y-78937482D01*
X102987409Y-78900000D01*
X102842591Y-78900000D01*
X102702708Y-78937482D01*
X102665000Y-78959252D01*
X102665000Y-77900000D01*
X101817155Y-77900000D01*
X101757627Y-77906401D01*
X101757620Y-77906403D01*
X101622913Y-77956645D01*
X101622906Y-77956649D01*
X101507812Y-78042809D01*
X101507809Y-78042812D01*
X101421649Y-78157906D01*
X101421645Y-78157913D01*
X101371403Y-78292620D01*
X101371401Y-78292627D01*
X101365000Y-78352155D01*
X101365000Y-78378424D01*
X101345315Y-78445463D01*
X101292511Y-78491218D01*
X101223353Y-78501162D01*
X101169877Y-78479999D01*
X101002643Y-78362900D01*
X101002639Y-78362898D01*
X100979637Y-78352172D01*
X100804330Y-78270425D01*
X100804326Y-78270424D01*
X100804322Y-78270422D01*
X100592977Y-78213793D01*
X100375002Y-78194723D01*
X100374998Y-78194723D01*
X100229682Y-78207436D01*
X100157023Y-78213793D01*
X100157020Y-78213793D01*
X99945677Y-78270422D01*
X99945668Y-78270426D01*
X99747361Y-78362898D01*
X99747357Y-78362900D01*
X99568121Y-78488402D01*
X99413402Y-78643121D01*
X99287900Y-78822357D01*
X99287898Y-78822361D01*
X99217382Y-78973583D01*
X99171209Y-79026022D01*
X99104016Y-79045174D01*
X99037135Y-79024958D01*
X98992618Y-78973583D01*
X98958305Y-78900000D01*
X98922102Y-78822362D01*
X98922100Y-78822359D01*
X98922099Y-78822357D01*
X98796599Y-78643124D01*
X98763145Y-78609670D01*
X98641877Y-78488402D01*
X98503978Y-78391844D01*
X98462638Y-78362897D01*
X98311927Y-78292620D01*
X98264330Y-78270425D01*
X98264326Y-78270424D01*
X98264322Y-78270422D01*
X98052977Y-78213793D01*
X97835002Y-78194723D01*
X97834998Y-78194723D01*
X97689682Y-78207436D01*
X97617023Y-78213793D01*
X97617020Y-78213793D01*
X97405677Y-78270422D01*
X97405668Y-78270426D01*
X97207361Y-78362898D01*
X97207357Y-78362900D01*
X97028121Y-78488402D01*
X96873402Y-78643121D01*
X96747900Y-78822357D01*
X96747898Y-78822361D01*
X96655426Y-79020668D01*
X96655422Y-79020677D01*
X96598793Y-79232020D01*
X96598793Y-79232023D01*
X96579723Y-79450000D01*
X70715000Y-79450000D01*
X69434064Y-79450000D01*
X69445793Y-79421684D01*
X69475000Y-79274853D01*
X69475000Y-79125147D01*
X69445793Y-78978316D01*
X69434064Y-78950000D01*
X70715000Y-78950000D01*
X70715000Y-77713571D01*
X78480000Y-77713571D01*
X78516506Y-77897097D01*
X78516508Y-77897105D01*
X78588119Y-78069991D01*
X78588124Y-78070000D01*
X78692086Y-78225589D01*
X78692089Y-78225593D01*
X78824406Y-78357910D01*
X78824410Y-78357913D01*
X78979999Y-78461875D01*
X78980012Y-78461882D01*
X79152889Y-78533489D01*
X79152896Y-78533491D01*
X79180000Y-78538882D01*
X79180000Y-77786988D01*
X79189940Y-77804205D01*
X79245795Y-77860060D01*
X79314204Y-77899556D01*
X79390504Y-77920000D01*
X79469496Y-77920000D01*
X79545796Y-77899556D01*
X79614205Y-77860060D01*
X79670060Y-77804205D01*
X79680000Y-77786988D01*
X79680000Y-78538881D01*
X79707103Y-78533491D01*
X79707110Y-78533489D01*
X79879987Y-78461882D01*
X79880000Y-78461875D01*
X80035589Y-78357913D01*
X80035593Y-78357910D01*
X80167910Y-78225593D01*
X80167913Y-78225589D01*
X80271875Y-78070000D01*
X80271882Y-78069987D01*
X80337988Y-77910391D01*
X80381828Y-77855987D01*
X80448122Y-77833922D01*
X80515822Y-77851201D01*
X80540230Y-77870162D01*
X80582158Y-77912090D01*
X80685341Y-77971663D01*
X80800427Y-78002500D01*
X80800429Y-78002500D01*
X80919571Y-78002500D01*
X80919573Y-78002500D01*
X81034659Y-77971663D01*
X81137842Y-77912090D01*
X81222090Y-77827842D01*
X81281663Y-77724659D01*
X81312500Y-77609573D01*
X81312500Y-77609572D01*
X86187500Y-77609572D01*
X86218337Y-77724660D01*
X86240262Y-77762634D01*
X86277910Y-77827842D01*
X86362158Y-77912090D01*
X86465341Y-77971663D01*
X86580427Y-78002500D01*
X86580429Y-78002500D01*
X86699571Y-78002500D01*
X86699573Y-78002500D01*
X86814659Y-77971663D01*
X86917842Y-77912090D01*
X86959770Y-77870161D01*
X87021091Y-77836677D01*
X87090782Y-77841661D01*
X87146716Y-77883532D01*
X87162011Y-77910390D01*
X87228119Y-78069991D01*
X87228124Y-78070000D01*
X87332086Y-78225589D01*
X87332089Y-78225593D01*
X87464406Y-78357910D01*
X87464410Y-78357913D01*
X87619999Y-78461875D01*
X87620012Y-78461882D01*
X87792889Y-78533489D01*
X87792896Y-78533491D01*
X87820000Y-78538882D01*
X87820000Y-77786988D01*
X87829940Y-77804205D01*
X87885795Y-77860060D01*
X87954204Y-77899556D01*
X88030504Y-77920000D01*
X88109496Y-77920000D01*
X88185796Y-77899556D01*
X88254205Y-77860060D01*
X88310060Y-77804205D01*
X88320000Y-77786988D01*
X88320000Y-78538881D01*
X88347103Y-78533491D01*
X88347110Y-78533489D01*
X88519987Y-78461882D01*
X88520000Y-78461875D01*
X88675589Y-78357913D01*
X88675593Y-78357910D01*
X88807910Y-78225593D01*
X88807913Y-78225589D01*
X88911875Y-78070000D01*
X88911880Y-78069991D01*
X88983491Y-77897105D01*
X88983493Y-77897097D01*
X89019999Y-77713571D01*
X89020000Y-77713569D01*
X89020000Y-77320000D01*
X88370000Y-77320000D01*
X88370000Y-76820000D01*
X89020000Y-76820000D01*
X89020000Y-76426430D01*
X89019999Y-76426428D01*
X88983493Y-76242902D01*
X88983491Y-76242894D01*
X88911880Y-76070008D01*
X88911875Y-76069999D01*
X88807913Y-75914410D01*
X88807910Y-75914406D01*
X88675593Y-75782089D01*
X88675589Y-75782086D01*
X88520000Y-75678124D01*
X88519991Y-75678119D01*
X88347103Y-75606507D01*
X88347100Y-75606506D01*
X88320000Y-75601115D01*
X88320000Y-76353011D01*
X88310060Y-76335795D01*
X88254205Y-76279940D01*
X88185796Y-76240444D01*
X88109496Y-76220000D01*
X88030504Y-76220000D01*
X87954204Y-76240444D01*
X87885795Y-76279940D01*
X87829940Y-76335795D01*
X87820000Y-76353011D01*
X87820000Y-75601116D01*
X87819999Y-75601115D01*
X87792899Y-75606506D01*
X87792896Y-75606507D01*
X87620008Y-75678119D01*
X87619999Y-75678124D01*
X87464410Y-75782086D01*
X87464406Y-75782089D01*
X87332089Y-75914406D01*
X87332086Y-75914410D01*
X87228124Y-76069999D01*
X87228119Y-76070008D01*
X87156508Y-76242894D01*
X87156506Y-76242902D01*
X87120000Y-76426428D01*
X87120000Y-76820000D01*
X87770000Y-76820000D01*
X87770000Y-77320000D01*
X87099950Y-77320000D01*
X87032911Y-77300315D01*
X87008179Y-77277562D01*
X87007837Y-77277905D01*
X86917844Y-77187912D01*
X86917842Y-77187910D01*
X86866250Y-77158123D01*
X86814660Y-77128337D01*
X86757116Y-77112918D01*
X86699573Y-77097500D01*
X86580427Y-77097500D01*
X86465339Y-77128337D01*
X86362158Y-77187910D01*
X86362155Y-77187912D01*
X86277912Y-77272155D01*
X86277910Y-77272158D01*
X86218337Y-77375339D01*
X86187500Y-77490427D01*
X86187500Y-77609572D01*
X81312500Y-77609572D01*
X81312500Y-77490427D01*
X81281663Y-77375341D01*
X81222090Y-77272158D01*
X81137842Y-77187910D01*
X81086250Y-77158123D01*
X81034660Y-77128337D01*
X80977116Y-77112918D01*
X80919573Y-77097500D01*
X80800427Y-77097500D01*
X80685339Y-77128337D01*
X80582158Y-77187910D01*
X80582155Y-77187912D01*
X80492163Y-77277905D01*
X80491096Y-77276838D01*
X80441999Y-77312689D01*
X80400050Y-77320000D01*
X79730000Y-77320000D01*
X79730000Y-76820000D01*
X80380000Y-76820000D01*
X80380000Y-76426430D01*
X80379999Y-76426428D01*
X80343493Y-76242902D01*
X80343491Y-76242894D01*
X80271880Y-76070008D01*
X80271875Y-76069999D01*
X80167913Y-75914410D01*
X80167910Y-75914406D01*
X80035593Y-75782089D01*
X80035589Y-75782086D01*
X79880000Y-75678124D01*
X79879991Y-75678119D01*
X79707103Y-75606507D01*
X79707100Y-75606506D01*
X79680000Y-75601115D01*
X79680000Y-76353011D01*
X79670060Y-76335795D01*
X79614205Y-76279940D01*
X79545796Y-76240444D01*
X79469496Y-76220000D01*
X79390504Y-76220000D01*
X79314204Y-76240444D01*
X79245795Y-76279940D01*
X79189940Y-76335795D01*
X79180000Y-76353011D01*
X79180000Y-75601116D01*
X79179999Y-75601115D01*
X79152899Y-75606506D01*
X79152896Y-75606507D01*
X78980008Y-75678119D01*
X78979999Y-75678124D01*
X78824410Y-75782086D01*
X78824406Y-75782089D01*
X78692089Y-75914406D01*
X78692086Y-75914410D01*
X78588124Y-76069999D01*
X78588119Y-76070008D01*
X78516508Y-76242894D01*
X78516506Y-76242902D01*
X78480000Y-76426428D01*
X78480000Y-76820000D01*
X79130000Y-76820000D01*
X79130000Y-77320000D01*
X78480000Y-77320000D01*
X78480000Y-77713571D01*
X70715000Y-77713571D01*
X70715000Y-77652172D01*
X70714999Y-77652155D01*
X70708598Y-77592627D01*
X70708596Y-77592620D01*
X70658354Y-77457913D01*
X70658350Y-77457906D01*
X70572190Y-77342812D01*
X70572187Y-77342809D01*
X70457093Y-77256649D01*
X70457086Y-77256645D01*
X70322379Y-77206403D01*
X70322372Y-77206401D01*
X70262844Y-77200000D01*
X68965000Y-77200000D01*
X68965000Y-78480935D01*
X68936684Y-78469207D01*
X68789853Y-78440000D01*
X68640147Y-78440000D01*
X68493316Y-78469207D01*
X68465000Y-78480935D01*
X68465000Y-77200000D01*
X67167155Y-77200000D01*
X67107627Y-77206401D01*
X67107620Y-77206403D01*
X66972913Y-77256645D01*
X66972906Y-77256649D01*
X66857812Y-77342809D01*
X66857809Y-77342812D01*
X66771649Y-77457906D01*
X66771645Y-77457913D01*
X66721403Y-77592620D01*
X66721401Y-77592627D01*
X66715000Y-77652155D01*
X66715000Y-78950000D01*
X67995936Y-78950000D01*
X67984207Y-78978316D01*
X67955000Y-79125147D01*
X67955000Y-79274853D01*
X67984207Y-79421684D01*
X67995936Y-79450000D01*
X66715000Y-79450000D01*
X66715000Y-80747844D01*
X64340120Y-80747844D01*
X64487634Y-80676805D01*
X64698217Y-80533232D01*
X64885050Y-80359877D01*
X65043959Y-80160612D01*
X65171393Y-79939888D01*
X65264508Y-79702637D01*
X65321222Y-79454157D01*
X65340268Y-79200000D01*
X65333695Y-79112292D01*
X65323301Y-78973583D01*
X65321222Y-78945843D01*
X65264508Y-78697363D01*
X65171393Y-78460112D01*
X65043959Y-78239388D01*
X64885050Y-78040123D01*
X64698217Y-77866768D01*
X64487634Y-77723195D01*
X64487631Y-77723194D01*
X64487629Y-77723192D01*
X64405698Y-77683736D01*
X64353838Y-77636913D01*
X64335500Y-77572016D01*
X64335500Y-74700000D01*
X79994353Y-74700000D01*
X80014834Y-74842456D01*
X80074622Y-74973371D01*
X80074623Y-74973373D01*
X80168872Y-75082143D01*
X80168874Y-75082144D01*
X80168876Y-75082146D01*
X80289941Y-75159950D01*
X80289944Y-75159952D01*
X80289946Y-75159952D01*
X80289947Y-75159953D01*
X80306158Y-75164712D01*
X80358906Y-75196009D01*
X81273386Y-76110489D01*
X81376113Y-76169799D01*
X81400321Y-76176284D01*
X81400324Y-76176286D01*
X81400325Y-76176286D01*
X81430447Y-76184357D01*
X81490691Y-76200500D01*
X81490693Y-76200500D01*
X85909308Y-76200500D01*
X85909309Y-76200500D01*
X85999673Y-76176286D01*
X86023887Y-76169799D01*
X86126614Y-76110489D01*
X87041094Y-75196007D01*
X87093842Y-75164712D01*
X87110053Y-75159953D01*
X87110055Y-75159951D01*
X87110057Y-75159951D01*
X87231123Y-75082146D01*
X87231122Y-75082146D01*
X87231128Y-75082143D01*
X87325377Y-74973373D01*
X87385165Y-74842457D01*
X87405647Y-74700000D01*
X87385165Y-74557543D01*
X87325377Y-74426627D01*
X87231128Y-74317857D01*
X87110053Y-74240047D01*
X87110051Y-74240046D01*
X87110049Y-74240045D01*
X87110050Y-74240045D01*
X86971963Y-74199500D01*
X86971961Y-74199500D01*
X86828039Y-74199500D01*
X86828036Y-74199500D01*
X86689949Y-74240045D01*
X86568873Y-74317856D01*
X86474623Y-74426626D01*
X86474621Y-74426629D01*
X86432095Y-74519745D01*
X86406983Y-74555912D01*
X85699716Y-75263181D01*
X85638393Y-75296666D01*
X85612035Y-75299500D01*
X81787965Y-75299500D01*
X81720926Y-75279815D01*
X81700284Y-75263181D01*
X80993014Y-74555911D01*
X80967901Y-74519741D01*
X80925379Y-74426630D01*
X80925376Y-74426626D01*
X80831128Y-74317857D01*
X80710053Y-74240047D01*
X80710051Y-74240046D01*
X80710049Y-74240045D01*
X80710050Y-74240045D01*
X80571963Y-74199500D01*
X80571961Y-74199500D01*
X80428039Y-74199500D01*
X80428036Y-74199500D01*
X80289949Y-74240045D01*
X80168873Y-74317856D01*
X80074623Y-74426626D01*
X80074622Y-74426628D01*
X80014834Y-74557543D01*
X79994353Y-74700000D01*
X64335500Y-74700000D01*
X64335500Y-72066004D01*
X64308581Y-71930677D01*
X64308580Y-71930676D01*
X64308580Y-71930672D01*
X64308578Y-71930667D01*
X64255777Y-71803192D01*
X64179112Y-71688454D01*
X61886819Y-69396161D01*
X61853334Y-69334838D01*
X61850500Y-69308480D01*
X61850500Y-67300000D01*
X64794353Y-67300000D01*
X64814834Y-67442456D01*
X64859403Y-67540046D01*
X64874623Y-67573373D01*
X64968872Y-67682143D01*
X65089947Y-67759953D01*
X65089950Y-67759954D01*
X65089949Y-67759954D01*
X65228036Y-67800499D01*
X65228038Y-67800500D01*
X65228039Y-67800500D01*
X65371962Y-67800500D01*
X65371962Y-67800499D01*
X65510053Y-67759953D01*
X65510054Y-67759951D01*
X65518118Y-67756270D01*
X65518762Y-67757681D01*
X65576274Y-67740793D01*
X65643314Y-67760476D01*
X65663957Y-67777112D01*
X68137935Y-70251090D01*
X68198910Y-70312065D01*
X68273590Y-70355181D01*
X68356884Y-70377500D01*
X68356886Y-70377500D01*
X75093114Y-70377500D01*
X75093116Y-70377500D01*
X75176410Y-70355181D01*
X75251090Y-70312065D01*
X76113155Y-69450000D01*
X83244353Y-69450000D01*
X83264834Y-69592456D01*
X83313037Y-69698004D01*
X83324623Y-69723373D01*
X83418872Y-69832143D01*
X83539947Y-69909953D01*
X83539950Y-69909954D01*
X83539949Y-69909954D01*
X83678036Y-69950499D01*
X83678038Y-69950500D01*
X83678039Y-69950500D01*
X83821962Y-69950500D01*
X83821962Y-69950499D01*
X83876592Y-69934459D01*
X83968563Y-69907455D01*
X83968995Y-69908926D01*
X84007727Y-69900500D01*
X85612035Y-69900500D01*
X85679074Y-69920185D01*
X85699716Y-69936819D01*
X85806984Y-70044087D01*
X85832097Y-70080256D01*
X85874622Y-70173371D01*
X85874623Y-70173373D01*
X85968872Y-70282143D01*
X86089947Y-70359953D01*
X86089950Y-70359954D01*
X86089949Y-70359954D01*
X86228036Y-70400499D01*
X86228038Y-70400500D01*
X86228039Y-70400500D01*
X86371962Y-70400500D01*
X86371962Y-70400499D01*
X86510053Y-70359953D01*
X86631128Y-70282143D01*
X86725377Y-70173373D01*
X86785165Y-70042457D01*
X86805647Y-69900000D01*
X86785165Y-69757543D01*
X86725377Y-69626627D01*
X86631128Y-69517857D01*
X86577373Y-69483311D01*
X86510052Y-69440046D01*
X86493836Y-69435285D01*
X86441092Y-69403989D01*
X86126616Y-69089513D01*
X86126614Y-69089511D01*
X86034245Y-69036181D01*
X86023888Y-69030201D01*
X86011780Y-69026957D01*
X85999673Y-69023713D01*
X85999670Y-69023712D01*
X85961478Y-69013478D01*
X85909309Y-68999500D01*
X85909308Y-68999500D01*
X84007727Y-68999500D01*
X83968995Y-68991073D01*
X83968563Y-68992545D01*
X83821963Y-68949500D01*
X83821961Y-68949500D01*
X83678039Y-68949500D01*
X83678036Y-68949500D01*
X83539949Y-68990045D01*
X83418873Y-69067856D01*
X83324623Y-69176626D01*
X83324622Y-69176628D01*
X83264834Y-69307543D01*
X83244353Y-69450000D01*
X76113155Y-69450000D01*
X80362065Y-65201090D01*
X80405181Y-65126411D01*
X80427500Y-65043116D01*
X80427500Y-64956885D01*
X80427500Y-50737017D01*
X80447185Y-50669978D01*
X80463819Y-50649336D01*
X81443155Y-49670000D01*
X82639065Y-48474090D01*
X82682181Y-48399410D01*
X82704500Y-48316116D01*
X82704500Y-48229884D01*
X82704500Y-47233884D01*
X82682181Y-47150590D01*
X82639065Y-47075910D01*
X82578090Y-47014935D01*
X82341965Y-46778810D01*
X82308480Y-46717487D01*
X82306908Y-46708775D01*
X82305646Y-46700002D01*
X82305647Y-46700000D01*
X82285165Y-46557543D01*
X82225377Y-46426627D01*
X82131128Y-46317857D01*
X82010053Y-46240047D01*
X82010051Y-46240046D01*
X82010049Y-46240045D01*
X82010050Y-46240045D01*
X81871963Y-46199500D01*
X81871961Y-46199500D01*
X81728039Y-46199500D01*
X81728036Y-46199500D01*
X81589949Y-46240045D01*
X81468873Y-46317856D01*
X81374623Y-46426626D01*
X81374622Y-46426628D01*
X81314834Y-46557543D01*
X81294353Y-46700000D01*
X81314834Y-46842456D01*
X81353275Y-46926628D01*
X81374623Y-46973373D01*
X81468872Y-47082143D01*
X81589947Y-47159953D01*
X81589950Y-47159954D01*
X81589949Y-47159954D01*
X81697107Y-47191417D01*
X81726336Y-47200000D01*
X81728036Y-47200499D01*
X81728038Y-47200500D01*
X81728039Y-47200500D01*
X81785983Y-47200500D01*
X81853022Y-47220185D01*
X81873664Y-47236819D01*
X81874664Y-47237819D01*
X81908149Y-47299142D01*
X81903165Y-47368834D01*
X81861293Y-47424767D01*
X81795829Y-47449184D01*
X81786983Y-47449500D01*
X81678036Y-47449500D01*
X81539949Y-47490045D01*
X81418873Y-47567856D01*
X81324623Y-47676626D01*
X81324622Y-47676628D01*
X81264834Y-47807543D01*
X81243091Y-47958775D01*
X81214066Y-48022331D01*
X81208034Y-48028809D01*
X79348910Y-49887935D01*
X79287936Y-49948908D01*
X79287934Y-49948911D01*
X79244819Y-50023589D01*
X79222500Y-50106885D01*
X79222500Y-64462983D01*
X79202815Y-64530022D01*
X79186181Y-64550664D01*
X74700664Y-69036181D01*
X74639341Y-69069666D01*
X74612983Y-69072500D01*
X68937017Y-69072500D01*
X68869978Y-69052815D01*
X68849336Y-69036181D01*
X67813155Y-68000000D01*
X71044353Y-68000000D01*
X71064834Y-68142456D01*
X71124622Y-68273371D01*
X71124623Y-68273373D01*
X71218872Y-68382143D01*
X71339947Y-68459953D01*
X71339950Y-68459954D01*
X71339949Y-68459954D01*
X71478036Y-68500499D01*
X71478038Y-68500500D01*
X71478039Y-68500500D01*
X71621962Y-68500500D01*
X71621962Y-68500499D01*
X71760053Y-68459953D01*
X71881128Y-68382143D01*
X71975377Y-68273373D01*
X72017904Y-68180250D01*
X72043011Y-68144090D01*
X76560489Y-63626614D01*
X76619799Y-63523887D01*
X76630170Y-63485181D01*
X76650500Y-63409309D01*
X76650500Y-57545335D01*
X76661705Y-57493825D01*
X76685165Y-57442457D01*
X76705647Y-57300000D01*
X76685165Y-57157543D01*
X76625377Y-57026627D01*
X76531128Y-56917857D01*
X76410053Y-56840047D01*
X76410051Y-56840046D01*
X76410049Y-56840045D01*
X76410050Y-56840045D01*
X76271963Y-56799500D01*
X76271961Y-56799500D01*
X76128039Y-56799500D01*
X76128036Y-56799500D01*
X75989949Y-56840045D01*
X75868873Y-56917856D01*
X75774623Y-57026626D01*
X75774622Y-57026628D01*
X75714834Y-57157543D01*
X75694353Y-57300000D01*
X75714834Y-57442453D01*
X75714834Y-57442454D01*
X75714834Y-57442455D01*
X75714835Y-57442457D01*
X75738294Y-57493825D01*
X75749500Y-57545335D01*
X75749500Y-63112034D01*
X75729815Y-63179073D01*
X75713181Y-63199715D01*
X71408905Y-67503990D01*
X71356163Y-67535285D01*
X71339949Y-67540046D01*
X71339945Y-67540048D01*
X71218873Y-67617856D01*
X71124623Y-67726626D01*
X71124622Y-67726628D01*
X71064834Y-67857543D01*
X71044353Y-68000000D01*
X67813155Y-68000000D01*
X65891965Y-66078810D01*
X65858480Y-66017487D01*
X65856908Y-66008775D01*
X65855646Y-66000002D01*
X65855647Y-66000000D01*
X65835165Y-65857543D01*
X65775377Y-65726627D01*
X65681128Y-65617857D01*
X65560053Y-65540047D01*
X65560051Y-65540046D01*
X65560049Y-65540045D01*
X65560050Y-65540045D01*
X65421963Y-65499500D01*
X65421961Y-65499500D01*
X65278039Y-65499500D01*
X65278036Y-65499500D01*
X65139949Y-65540045D01*
X65018873Y-65617856D01*
X64924623Y-65726626D01*
X64924622Y-65726628D01*
X64864834Y-65857543D01*
X64844353Y-66000000D01*
X64864834Y-66142456D01*
X64893808Y-66205899D01*
X64924623Y-66273373D01*
X65018872Y-66382143D01*
X65139947Y-66459953D01*
X65139950Y-66459954D01*
X65139949Y-66459954D01*
X65278036Y-66500499D01*
X65278038Y-66500500D01*
X65278039Y-66500500D01*
X65335983Y-66500500D01*
X65403022Y-66520185D01*
X65423664Y-66536819D01*
X65475697Y-66588852D01*
X65509182Y-66650175D01*
X65504198Y-66719867D01*
X65462326Y-66775800D01*
X65396862Y-66800217D01*
X65376784Y-66799500D01*
X65371961Y-66799500D01*
X65228039Y-66799500D01*
X65228036Y-66799500D01*
X65089949Y-66840045D01*
X64968873Y-66917856D01*
X64874623Y-67026626D01*
X64874622Y-67026628D01*
X64814834Y-67157543D01*
X64794353Y-67300000D01*
X61850500Y-67300000D01*
X61850500Y-63431004D01*
X61823581Y-63295677D01*
X61823580Y-63295676D01*
X61823580Y-63295672D01*
X61823578Y-63295667D01*
X61770778Y-63168195D01*
X61770774Y-63168188D01*
X61733253Y-63112034D01*
X61732567Y-63111007D01*
X61732567Y-63111006D01*
X61694115Y-63053458D01*
X61694109Y-63053451D01*
X59246543Y-60605886D01*
X58886819Y-60246162D01*
X58853334Y-60184839D01*
X58850500Y-60158481D01*
X58850500Y-60141519D01*
X58870185Y-60074480D01*
X58886819Y-60053838D01*
X60394112Y-58546545D01*
X60394114Y-58546543D01*
X60470775Y-58431811D01*
X60481806Y-58405181D01*
X60504211Y-58351088D01*
X60523580Y-58304328D01*
X60550500Y-58168994D01*
X60550500Y-58031006D01*
X60550500Y-53631007D01*
X60550500Y-47200000D01*
X75494353Y-47200000D01*
X75514834Y-47342456D01*
X75552425Y-47424767D01*
X75574623Y-47473373D01*
X75668872Y-47582143D01*
X75789947Y-47659953D01*
X75789950Y-47659954D01*
X75789949Y-47659954D01*
X75928036Y-47700499D01*
X75928038Y-47700500D01*
X75928039Y-47700500D01*
X76071962Y-47700500D01*
X76071962Y-47700499D01*
X76210053Y-47659953D01*
X76331128Y-47582143D01*
X76425377Y-47473373D01*
X76485165Y-47342457D01*
X76491828Y-47296106D01*
X76520851Y-47232552D01*
X76526856Y-47226100D01*
X76762878Y-46990080D01*
X76814354Y-46900921D01*
X76841000Y-46801476D01*
X76841000Y-46698524D01*
X76841000Y-40350000D01*
X85244353Y-40350000D01*
X85264834Y-40492456D01*
X85290617Y-40548911D01*
X85324623Y-40623373D01*
X85418872Y-40732143D01*
X85539947Y-40809953D01*
X85539950Y-40809954D01*
X85539949Y-40809954D01*
X85678036Y-40850499D01*
X85678038Y-40850500D01*
X85678039Y-40850500D01*
X85698500Y-40850500D01*
X85765539Y-40870185D01*
X85811294Y-40922989D01*
X85822500Y-40974500D01*
X85822500Y-62206884D01*
X85822500Y-62293116D01*
X85844819Y-62376410D01*
X85887935Y-62451090D01*
X88298910Y-64862065D01*
X88373590Y-64905181D01*
X88456884Y-64927500D01*
X88543116Y-64927500D01*
X90264895Y-64927500D01*
X90331934Y-64947185D01*
X90358605Y-64970295D01*
X90368872Y-64982143D01*
X90489947Y-65059953D01*
X90489950Y-65059954D01*
X90489949Y-65059954D01*
X90628036Y-65100499D01*
X90628038Y-65100500D01*
X90628039Y-65100500D01*
X90771962Y-65100500D01*
X90771962Y-65100499D01*
X90910053Y-65059953D01*
X91031128Y-64982143D01*
X91125377Y-64873373D01*
X91185165Y-64742457D01*
X91205647Y-64600000D01*
X91185165Y-64457543D01*
X91125377Y-64326627D01*
X91031128Y-64217857D01*
X90910053Y-64140047D01*
X90910051Y-64140046D01*
X90910049Y-64140045D01*
X90910050Y-64140045D01*
X90771963Y-64099500D01*
X90771961Y-64099500D01*
X90628039Y-64099500D01*
X90628036Y-64099500D01*
X90489949Y-64140045D01*
X90368873Y-64217856D01*
X90368872Y-64217856D01*
X90368872Y-64217857D01*
X90358606Y-64229703D01*
X90299830Y-64267477D01*
X90264895Y-64272500D01*
X88687017Y-64272500D01*
X88619978Y-64252815D01*
X88599336Y-64236181D01*
X86513819Y-62150664D01*
X86480334Y-62089341D01*
X86477500Y-62062983D01*
X86477500Y-40706885D01*
X86474901Y-40697185D01*
X86455181Y-40623590D01*
X86412065Y-40548910D01*
X86351090Y-40487935D01*
X86291965Y-40428810D01*
X86258480Y-40367487D01*
X86256908Y-40358775D01*
X86255646Y-40350002D01*
X86255647Y-40350000D01*
X86235165Y-40207543D01*
X86175377Y-40076627D01*
X86081128Y-39967857D01*
X85960053Y-39890047D01*
X85960051Y-39890046D01*
X85960049Y-39890045D01*
X85960050Y-39890045D01*
X85821963Y-39849500D01*
X85821961Y-39849500D01*
X85678039Y-39849500D01*
X85678036Y-39849500D01*
X85539949Y-39890045D01*
X85418873Y-39967856D01*
X85324623Y-40076626D01*
X85324622Y-40076628D01*
X85264834Y-40207543D01*
X85244353Y-40350000D01*
X76841000Y-40350000D01*
X76841000Y-39050000D01*
X85494353Y-39050000D01*
X85514834Y-39192456D01*
X85574622Y-39323371D01*
X85574623Y-39323373D01*
X85668872Y-39432143D01*
X85789947Y-39509953D01*
X85789950Y-39509954D01*
X85789949Y-39509954D01*
X85928036Y-39550499D01*
X85928038Y-39550500D01*
X85928039Y-39550500D01*
X86071962Y-39550500D01*
X86071962Y-39550499D01*
X86124797Y-39534985D01*
X86218563Y-39507455D01*
X86218995Y-39508926D01*
X86257727Y-39500500D01*
X86312035Y-39500500D01*
X86379074Y-39520185D01*
X86399716Y-39536819D01*
X86863181Y-40000284D01*
X86896666Y-40061607D01*
X86899500Y-40087965D01*
X86899500Y-59959308D01*
X86915188Y-60017857D01*
X86930201Y-60073888D01*
X86959856Y-60125250D01*
X86989511Y-60176614D01*
X86989513Y-60176616D01*
X88906985Y-62094089D01*
X88932098Y-62130258D01*
X88974623Y-62223373D01*
X89068872Y-62332143D01*
X89189947Y-62409953D01*
X89189950Y-62409954D01*
X89189949Y-62409954D01*
X89328036Y-62450499D01*
X89328038Y-62450500D01*
X89328039Y-62450500D01*
X89471962Y-62450500D01*
X89471962Y-62450499D01*
X89610053Y-62409953D01*
X89731128Y-62332143D01*
X89825377Y-62223373D01*
X89885165Y-62092457D01*
X89905647Y-61950000D01*
X89885165Y-61807543D01*
X89825377Y-61676627D01*
X89731128Y-61567857D01*
X89610053Y-61490047D01*
X89610050Y-61490046D01*
X89610048Y-61490045D01*
X89593837Y-61485285D01*
X89541094Y-61453990D01*
X87836819Y-59749715D01*
X87803334Y-59688392D01*
X87800500Y-59662034D01*
X87800500Y-58193116D01*
X88272500Y-58193116D01*
X88294819Y-58276410D01*
X88311864Y-58305934D01*
X88337934Y-58351088D01*
X88337936Y-58351091D01*
X99636181Y-69649336D01*
X99669666Y-69710659D01*
X99672500Y-69737017D01*
X99672500Y-69867420D01*
X99652815Y-69934459D01*
X99642214Y-69948622D01*
X99574623Y-70026627D01*
X99574622Y-70026628D01*
X99514834Y-70157543D01*
X99494353Y-70300000D01*
X99514834Y-70442456D01*
X99574622Y-70573371D01*
X99574623Y-70573373D01*
X99668872Y-70682143D01*
X99789947Y-70759953D01*
X99789950Y-70759954D01*
X99789949Y-70759954D01*
X99928036Y-70800499D01*
X99928038Y-70800500D01*
X99928039Y-70800500D01*
X100071962Y-70800500D01*
X100071962Y-70800499D01*
X100210053Y-70759953D01*
X100331128Y-70682143D01*
X100425377Y-70573373D01*
X100485165Y-70442457D01*
X100505647Y-70300000D01*
X100485165Y-70157543D01*
X100425377Y-70026627D01*
X100357786Y-69948622D01*
X100328762Y-69885066D01*
X100327500Y-69867420D01*
X100327500Y-69506885D01*
X100327500Y-69506884D01*
X100305181Y-69423590D01*
X100262065Y-69348910D01*
X100201090Y-69287935D01*
X88963819Y-58050664D01*
X88930334Y-57989341D01*
X88927500Y-57962983D01*
X88927500Y-57300000D01*
X89344353Y-57300000D01*
X89364834Y-57442456D01*
X89411818Y-57545335D01*
X89424623Y-57573373D01*
X89518872Y-57682143D01*
X89639947Y-57759953D01*
X89639950Y-57759954D01*
X89639949Y-57759954D01*
X89778036Y-57800499D01*
X89778038Y-57800500D01*
X89778039Y-57800500D01*
X89835983Y-57800500D01*
X89903022Y-57820185D01*
X89923664Y-57836819D01*
X100608910Y-68522065D01*
X100683590Y-68565181D01*
X100766884Y-68587500D01*
X100853116Y-68587500D01*
X107725500Y-68587500D01*
X107792539Y-68607185D01*
X107838294Y-68659989D01*
X107849500Y-68711500D01*
X107849500Y-69129752D01*
X107861131Y-69188229D01*
X107861132Y-69188230D01*
X107905447Y-69254552D01*
X107971769Y-69298867D01*
X107971770Y-69298868D01*
X108030247Y-69310499D01*
X108030250Y-69310500D01*
X108030252Y-69310500D01*
X109769750Y-69310500D01*
X109769751Y-69310499D01*
X109784614Y-69307543D01*
X109828229Y-69298868D01*
X109828229Y-69298867D01*
X109828231Y-69298867D01*
X109894552Y-69254552D01*
X109938867Y-69188231D01*
X109938867Y-69188229D01*
X109938868Y-69188229D01*
X109950499Y-69129752D01*
X109950500Y-69129750D01*
X109950500Y-67390249D01*
X109950499Y-67390247D01*
X109938868Y-67331770D01*
X109938867Y-67331769D01*
X109894552Y-67265447D01*
X109828230Y-67221132D01*
X109828229Y-67221131D01*
X109769752Y-67209500D01*
X109769748Y-67209500D01*
X108030252Y-67209500D01*
X108030247Y-67209500D01*
X107971770Y-67221131D01*
X107971769Y-67221132D01*
X107905447Y-67265447D01*
X107861132Y-67331769D01*
X107861131Y-67331770D01*
X107849500Y-67390247D01*
X107849500Y-67808500D01*
X107829815Y-67875539D01*
X107777011Y-67921294D01*
X107725500Y-67932500D01*
X100997017Y-67932500D01*
X100929978Y-67912815D01*
X100909336Y-67896181D01*
X99219054Y-66205899D01*
X99185569Y-66144576D01*
X99190553Y-66074884D01*
X99232425Y-66018951D01*
X99297889Y-65994534D01*
X99366162Y-66009386D01*
X99368726Y-66010826D01*
X99393590Y-66025181D01*
X99476884Y-66047500D01*
X99476885Y-66047500D01*
X99563116Y-66047500D01*
X107810246Y-66047500D01*
X107877285Y-66067185D01*
X107921844Y-66118608D01*
X107921896Y-66118581D01*
X107922018Y-66118810D01*
X107923040Y-66119989D01*
X107924758Y-66123936D01*
X107934658Y-66142457D01*
X108022315Y-66306450D01*
X108022317Y-66306452D01*
X108153589Y-66466410D01*
X108219115Y-66520185D01*
X108313550Y-66597685D01*
X108496046Y-66695232D01*
X108694066Y-66755300D01*
X108694065Y-66755300D01*
X108712529Y-66757118D01*
X108900000Y-66775583D01*
X109105934Y-66755300D01*
X109303954Y-66695232D01*
X109486450Y-66597685D01*
X109646410Y-66466410D01*
X109777685Y-66306450D01*
X109875232Y-66123954D01*
X109935300Y-65925934D01*
X109955583Y-65720000D01*
X109935300Y-65514066D01*
X109875232Y-65316046D01*
X109777685Y-65133550D01*
X109656704Y-64986133D01*
X109646410Y-64973589D01*
X109528677Y-64876969D01*
X109486450Y-64842315D01*
X109303954Y-64744768D01*
X109105934Y-64684700D01*
X109105932Y-64684699D01*
X109105934Y-64684699D01*
X108900000Y-64664417D01*
X108694067Y-64684699D01*
X108518692Y-64737898D01*
X108503665Y-64742457D01*
X108496043Y-64744769D01*
X108385898Y-64803643D01*
X108313550Y-64842315D01*
X108313548Y-64842316D01*
X108313547Y-64842317D01*
X108153589Y-64973589D01*
X108022317Y-65133547D01*
X108022315Y-65133550D01*
X107986214Y-65201090D01*
X107921896Y-65321419D01*
X107920849Y-65320859D01*
X107880977Y-65370349D01*
X107814685Y-65392421D01*
X107810246Y-65392500D01*
X99707017Y-65392500D01*
X99639978Y-65372815D01*
X99619336Y-65356181D01*
X92275336Y-58012181D01*
X92241851Y-57950858D01*
X92246835Y-57881166D01*
X92288707Y-57825233D01*
X92354171Y-57800816D01*
X92363017Y-57800500D01*
X92385983Y-57800500D01*
X92453022Y-57820185D01*
X92473664Y-57836819D01*
X98017935Y-63381090D01*
X98078910Y-63442065D01*
X98153590Y-63485181D01*
X98236884Y-63507500D01*
X107810246Y-63507500D01*
X107877285Y-63527185D01*
X107921844Y-63578608D01*
X107921896Y-63578581D01*
X107922018Y-63578810D01*
X107923040Y-63579989D01*
X107924758Y-63583936D01*
X107952968Y-63636713D01*
X108022315Y-63766450D01*
X108022317Y-63766452D01*
X108153589Y-63926410D01*
X108250209Y-64005702D01*
X108313550Y-64057685D01*
X108496046Y-64155232D01*
X108694066Y-64215300D01*
X108694065Y-64215300D01*
X108712529Y-64217118D01*
X108900000Y-64235583D01*
X109105934Y-64215300D01*
X109303954Y-64155232D01*
X109486450Y-64057685D01*
X109646410Y-63926410D01*
X109777685Y-63766450D01*
X109875232Y-63583954D01*
X109935300Y-63385934D01*
X109955583Y-63180000D01*
X109935300Y-62974066D01*
X109875232Y-62776046D01*
X109777685Y-62593550D01*
X109660772Y-62451090D01*
X109646410Y-62433589D01*
X109486452Y-62302317D01*
X109486453Y-62302317D01*
X109486450Y-62302315D01*
X109303954Y-62204768D01*
X109105934Y-62144700D01*
X109105932Y-62144699D01*
X109105934Y-62144699D01*
X108900000Y-62124417D01*
X108694067Y-62144699D01*
X108496043Y-62204769D01*
X108385898Y-62263643D01*
X108313550Y-62302315D01*
X108313548Y-62302316D01*
X108313547Y-62302317D01*
X108153589Y-62433589D01*
X108022317Y-62593547D01*
X107921896Y-62781419D01*
X107920849Y-62780859D01*
X107880977Y-62830349D01*
X107814685Y-62852421D01*
X107810246Y-62852500D01*
X98467017Y-62852500D01*
X98399978Y-62832815D01*
X98379336Y-62816181D01*
X93524302Y-57961147D01*
X93490817Y-57899824D01*
X93495801Y-57830132D01*
X93537673Y-57774199D01*
X93603137Y-57749782D01*
X93623211Y-57750500D01*
X93628039Y-57750500D01*
X93685983Y-57750500D01*
X93753022Y-57770185D01*
X93773664Y-57786819D01*
X96888910Y-60902065D01*
X96963590Y-60945181D01*
X97046884Y-60967500D01*
X97133116Y-60967500D01*
X107810246Y-60967500D01*
X107877285Y-60987185D01*
X107921844Y-61038608D01*
X107921896Y-61038581D01*
X107922018Y-61038810D01*
X107923040Y-61039989D01*
X107924758Y-61043936D01*
X107940604Y-61073581D01*
X108022315Y-61226450D01*
X108022317Y-61226452D01*
X108153589Y-61386410D01*
X108235937Y-61453990D01*
X108313550Y-61517685D01*
X108496046Y-61615232D01*
X108694066Y-61675300D01*
X108694065Y-61675300D01*
X108707529Y-61676626D01*
X108900000Y-61695583D01*
X109105934Y-61675300D01*
X109303954Y-61615232D01*
X109486450Y-61517685D01*
X109646410Y-61386410D01*
X109777685Y-61226450D01*
X109875232Y-61043954D01*
X109935300Y-60845934D01*
X109955583Y-60640000D01*
X109935300Y-60434066D01*
X109875232Y-60236046D01*
X109777685Y-60053550D01*
X109700343Y-59959308D01*
X109646410Y-59893589D01*
X109486452Y-59762317D01*
X109486453Y-59762317D01*
X109486450Y-59762315D01*
X109303954Y-59664768D01*
X109105934Y-59604700D01*
X109105932Y-59604699D01*
X109105934Y-59604699D01*
X108900000Y-59584417D01*
X108694067Y-59604699D01*
X108496043Y-59664769D01*
X108405070Y-59713396D01*
X108313550Y-59762315D01*
X108313548Y-59762316D01*
X108313547Y-59762317D01*
X108153589Y-59893589D01*
X108051607Y-60017857D01*
X108022315Y-60053550D01*
X108014489Y-60068192D01*
X107921896Y-60241419D01*
X107920849Y-60240859D01*
X107880977Y-60290349D01*
X107814685Y-60312421D01*
X107810246Y-60312500D01*
X97277017Y-60312500D01*
X97209978Y-60292815D01*
X97189336Y-60276181D01*
X95533835Y-58620680D01*
X95500350Y-58559357D01*
X95505334Y-58489665D01*
X95547206Y-58433732D01*
X95612670Y-58409315D01*
X95653609Y-58413224D01*
X95706884Y-58427500D01*
X95793116Y-58427500D01*
X107810246Y-58427500D01*
X107877285Y-58447185D01*
X107921844Y-58498608D01*
X107921896Y-58498581D01*
X107922018Y-58498810D01*
X107923040Y-58499989D01*
X107924758Y-58503936D01*
X107952968Y-58556713D01*
X108022315Y-58686450D01*
X108022317Y-58686452D01*
X108153589Y-58846410D01*
X108250209Y-58925702D01*
X108313550Y-58977685D01*
X108496046Y-59075232D01*
X108694066Y-59135300D01*
X108694065Y-59135300D01*
X108712529Y-59137118D01*
X108900000Y-59155583D01*
X109105934Y-59135300D01*
X109303954Y-59075232D01*
X109486450Y-58977685D01*
X109646410Y-58846410D01*
X109777685Y-58686450D01*
X109875232Y-58503954D01*
X109935300Y-58305934D01*
X109955583Y-58100000D01*
X109935300Y-57894066D01*
X109875232Y-57696046D01*
X109777685Y-57513550D01*
X109717329Y-57440006D01*
X109646410Y-57353589D01*
X109486452Y-57222317D01*
X109486453Y-57222317D01*
X109486450Y-57222315D01*
X109303954Y-57124768D01*
X109105934Y-57064700D01*
X109105932Y-57064699D01*
X109105934Y-57064699D01*
X108900000Y-57044417D01*
X108694067Y-57064699D01*
X108496043Y-57124769D01*
X108385898Y-57183643D01*
X108313550Y-57222315D01*
X108313548Y-57222316D01*
X108313547Y-57222317D01*
X108153589Y-57353589D01*
X108059624Y-57468088D01*
X108022315Y-57513550D01*
X107990340Y-57573371D01*
X107921896Y-57701419D01*
X107920849Y-57700859D01*
X107880977Y-57750349D01*
X107814685Y-57772421D01*
X107810246Y-57772500D01*
X104540017Y-57772500D01*
X104472978Y-57752815D01*
X104427223Y-57700011D01*
X104417279Y-57630853D01*
X104446304Y-57567297D01*
X104452336Y-57560819D01*
X106089336Y-55923819D01*
X106150659Y-55890334D01*
X106177017Y-55887500D01*
X107810246Y-55887500D01*
X107877285Y-55907185D01*
X107921844Y-55958608D01*
X107921896Y-55958581D01*
X107922018Y-55958810D01*
X107923040Y-55959989D01*
X107924758Y-55963936D01*
X107924768Y-55963954D01*
X108022315Y-56146450D01*
X108022317Y-56146452D01*
X108153589Y-56306410D01*
X108250209Y-56385702D01*
X108313550Y-56437685D01*
X108496046Y-56535232D01*
X108694066Y-56595300D01*
X108694065Y-56595300D01*
X108712529Y-56597118D01*
X108900000Y-56615583D01*
X109105934Y-56595300D01*
X109303954Y-56535232D01*
X109486450Y-56437685D01*
X109646410Y-56306410D01*
X109777685Y-56146450D01*
X109875232Y-55963954D01*
X109935300Y-55765934D01*
X109955583Y-55560000D01*
X109935300Y-55354066D01*
X109875232Y-55156046D01*
X109777685Y-54973550D01*
X109725702Y-54910209D01*
X109646410Y-54813589D01*
X109486452Y-54682317D01*
X109486453Y-54682317D01*
X109486450Y-54682315D01*
X109303954Y-54584768D01*
X109105934Y-54524700D01*
X109105932Y-54524699D01*
X109105934Y-54524699D01*
X108900000Y-54504417D01*
X108694067Y-54524699D01*
X108496043Y-54584769D01*
X108385898Y-54643643D01*
X108313550Y-54682315D01*
X108313548Y-54682316D01*
X108313547Y-54682317D01*
X108153589Y-54813589D01*
X108022317Y-54973547D01*
X107921896Y-55161419D01*
X107920849Y-55160859D01*
X107880977Y-55210349D01*
X107814685Y-55232421D01*
X107810246Y-55232500D01*
X106033116Y-55232500D01*
X105946884Y-55232500D01*
X105891354Y-55247379D01*
X105863589Y-55254819D01*
X105788911Y-55297934D01*
X105788908Y-55297936D01*
X104150664Y-56936181D01*
X104089341Y-56969666D01*
X104062983Y-56972500D01*
X96685105Y-56972500D01*
X96618066Y-56952815D01*
X96591394Y-56929704D01*
X96581128Y-56917857D01*
X96460053Y-56840047D01*
X96460051Y-56840046D01*
X96460049Y-56840045D01*
X96460050Y-56840045D01*
X96321963Y-56799500D01*
X96321961Y-56799500D01*
X96178039Y-56799500D01*
X96178036Y-56799500D01*
X96039949Y-56840045D01*
X95918873Y-56917856D01*
X95824623Y-57026626D01*
X95824622Y-57026628D01*
X95764834Y-57157543D01*
X95744353Y-57300000D01*
X95744353Y-57300002D01*
X95746947Y-57318047D01*
X95737002Y-57387206D01*
X95691246Y-57440009D01*
X95624206Y-57459692D01*
X95557167Y-57440006D01*
X95536528Y-57423373D01*
X95491965Y-57378810D01*
X95458480Y-57317487D01*
X95456908Y-57308775D01*
X95455646Y-57300002D01*
X95455647Y-57300000D01*
X95435165Y-57157543D01*
X95375377Y-57026627D01*
X95281128Y-56917857D01*
X95160053Y-56840047D01*
X95160051Y-56840046D01*
X95160049Y-56840045D01*
X95160050Y-56840045D01*
X95021963Y-56799500D01*
X95021961Y-56799500D01*
X94878039Y-56799500D01*
X94878036Y-56799500D01*
X94739949Y-56840045D01*
X94618873Y-56917856D01*
X94524623Y-57026626D01*
X94524622Y-57026628D01*
X94464834Y-57157543D01*
X94451332Y-57251457D01*
X94422307Y-57315013D01*
X94363529Y-57352787D01*
X94293659Y-57352787D01*
X94234881Y-57315013D01*
X94205856Y-57251457D01*
X94205856Y-57251456D01*
X94201666Y-57222315D01*
X94185165Y-57107543D01*
X94125377Y-56976627D01*
X94031128Y-56867857D01*
X93910053Y-56790047D01*
X93910051Y-56790046D01*
X93910049Y-56790045D01*
X93910050Y-56790045D01*
X93771963Y-56749500D01*
X93771961Y-56749500D01*
X93628039Y-56749500D01*
X93628036Y-56749500D01*
X93489949Y-56790045D01*
X93368873Y-56867856D01*
X93274623Y-56976626D01*
X93274622Y-56976628D01*
X93214834Y-57107543D01*
X93194353Y-57250000D01*
X93205343Y-57326442D01*
X93195399Y-57395600D01*
X93149644Y-57448404D01*
X93082604Y-57468088D01*
X93015565Y-57448403D01*
X92994924Y-57431769D01*
X92941965Y-57378810D01*
X92908480Y-57317487D01*
X92906908Y-57308775D01*
X92905646Y-57300002D01*
X92905647Y-57300000D01*
X92885165Y-57157543D01*
X92825377Y-57026627D01*
X92731128Y-56917857D01*
X92610053Y-56840047D01*
X92610051Y-56840046D01*
X92610049Y-56840045D01*
X92610050Y-56840045D01*
X92471963Y-56799500D01*
X92471961Y-56799500D01*
X92328039Y-56799500D01*
X92328036Y-56799500D01*
X92189949Y-56840045D01*
X92068873Y-56917856D01*
X91974623Y-57026626D01*
X91974622Y-57026628D01*
X91914834Y-57157543D01*
X91894143Y-57301457D01*
X91865118Y-57365013D01*
X91806340Y-57402787D01*
X91736470Y-57402787D01*
X91677692Y-57365013D01*
X91648667Y-57301459D01*
X91635165Y-57207543D01*
X91575377Y-57076627D01*
X91481128Y-56967857D01*
X91360053Y-56890047D01*
X91360051Y-56890046D01*
X91360049Y-56890045D01*
X91360050Y-56890045D01*
X91221963Y-56849500D01*
X91221961Y-56849500D01*
X91078039Y-56849500D01*
X91078036Y-56849500D01*
X90939949Y-56890045D01*
X90818873Y-56967856D01*
X90724623Y-57076626D01*
X90724622Y-57076628D01*
X90664834Y-57207543D01*
X90644259Y-57350651D01*
X90615234Y-57414207D01*
X90556456Y-57451981D01*
X90486586Y-57451981D01*
X90433840Y-57420685D01*
X90391965Y-57378810D01*
X90358480Y-57317487D01*
X90356908Y-57308775D01*
X90355646Y-57300002D01*
X90355647Y-57300000D01*
X90335165Y-57157543D01*
X90275377Y-57026627D01*
X90181128Y-56917857D01*
X90060053Y-56840047D01*
X90060051Y-56840046D01*
X90060049Y-56840045D01*
X90060050Y-56840045D01*
X89921963Y-56799500D01*
X89921961Y-56799500D01*
X89778039Y-56799500D01*
X89778036Y-56799500D01*
X89639949Y-56840045D01*
X89518873Y-56917856D01*
X89424623Y-57026626D01*
X89424622Y-57026628D01*
X89364834Y-57157543D01*
X89344353Y-57300000D01*
X88927500Y-57300000D01*
X88927500Y-47180000D01*
X107994417Y-47180000D01*
X108014699Y-47385932D01*
X108033886Y-47449184D01*
X108074768Y-47583954D01*
X108172315Y-47766450D01*
X108172317Y-47766452D01*
X108303589Y-47926410D01*
X108343027Y-47958775D01*
X108463550Y-48057685D01*
X108646046Y-48155232D01*
X108844066Y-48215300D01*
X108844065Y-48215300D01*
X108862529Y-48217118D01*
X109050000Y-48235583D01*
X109255934Y-48215300D01*
X109453954Y-48155232D01*
X109636450Y-48057685D01*
X109796410Y-47926410D01*
X109927685Y-47766450D01*
X110025232Y-47583954D01*
X110085300Y-47385934D01*
X110105583Y-47180000D01*
X110085300Y-46974066D01*
X110025232Y-46776046D01*
X109927685Y-46593550D01*
X109875702Y-46530209D01*
X109796410Y-46433589D01*
X109636452Y-46302317D01*
X109636453Y-46302317D01*
X109636450Y-46302315D01*
X109453954Y-46204768D01*
X109255934Y-46144700D01*
X109255932Y-46144699D01*
X109255934Y-46144699D01*
X109050000Y-46124417D01*
X108844067Y-46144699D01*
X108668692Y-46197898D01*
X108663413Y-46199500D01*
X108646043Y-46204769D01*
X108557089Y-46252317D01*
X108463550Y-46302315D01*
X108463548Y-46302316D01*
X108463547Y-46302317D01*
X108303589Y-46433589D01*
X108199886Y-46559954D01*
X108172315Y-46593550D01*
X108133643Y-46665898D01*
X108074769Y-46776043D01*
X108014699Y-46974067D01*
X107994417Y-47180000D01*
X88927500Y-47180000D01*
X88927500Y-42997844D01*
X107700000Y-42997844D01*
X107706401Y-43057372D01*
X107706403Y-43057379D01*
X107756645Y-43192086D01*
X107756649Y-43192093D01*
X107842809Y-43307187D01*
X107842812Y-43307190D01*
X107957906Y-43393350D01*
X107957913Y-43393354D01*
X108092620Y-43443596D01*
X108092627Y-43443598D01*
X108152155Y-43449999D01*
X108152172Y-43450000D01*
X108552813Y-43450000D01*
X108619852Y-43469685D01*
X108665607Y-43522489D01*
X108675551Y-43591647D01*
X108646526Y-43655203D01*
X108611267Y-43683357D01*
X108463550Y-43762315D01*
X108463548Y-43762316D01*
X108463547Y-43762317D01*
X108303589Y-43893589D01*
X108172317Y-44053547D01*
X108074769Y-44236043D01*
X108014699Y-44434067D01*
X107994417Y-44640000D01*
X108014699Y-44845932D01*
X108014700Y-44845934D01*
X108074768Y-45043954D01*
X108172315Y-45226450D01*
X108172317Y-45226452D01*
X108303589Y-45386410D01*
X108400209Y-45465702D01*
X108463550Y-45517685D01*
X108646046Y-45615232D01*
X108844066Y-45675300D01*
X108844065Y-45675300D01*
X108862529Y-45677118D01*
X109050000Y-45695583D01*
X109255934Y-45675300D01*
X109453954Y-45615232D01*
X109636450Y-45517685D01*
X109796410Y-45386410D01*
X109927685Y-45226450D01*
X110025232Y-45043954D01*
X110085300Y-44845934D01*
X110105583Y-44640000D01*
X110085300Y-44434066D01*
X110025232Y-44236046D01*
X109927685Y-44053550D01*
X109875702Y-43990209D01*
X109796410Y-43893589D01*
X109636452Y-43762317D01*
X109636453Y-43762317D01*
X109636450Y-43762315D01*
X109488732Y-43683357D01*
X109438889Y-43634395D01*
X109423429Y-43566257D01*
X109447261Y-43500578D01*
X109502819Y-43458209D01*
X109547187Y-43450000D01*
X109947828Y-43450000D01*
X109947844Y-43449999D01*
X110007372Y-43443598D01*
X110007379Y-43443596D01*
X110142086Y-43393354D01*
X110142093Y-43393350D01*
X110257187Y-43307190D01*
X110257190Y-43307187D01*
X110343350Y-43192093D01*
X110343354Y-43192086D01*
X110393596Y-43057379D01*
X110393598Y-43057372D01*
X110399999Y-42997844D01*
X110400000Y-42997827D01*
X110400000Y-42350000D01*
X109483012Y-42350000D01*
X109515925Y-42292993D01*
X109550000Y-42165826D01*
X109550000Y-42034174D01*
X109515925Y-41907007D01*
X109483012Y-41850000D01*
X110400000Y-41850000D01*
X110400000Y-41202172D01*
X110399999Y-41202155D01*
X110393598Y-41142627D01*
X110393596Y-41142620D01*
X110343354Y-41007913D01*
X110343350Y-41007906D01*
X110257190Y-40892812D01*
X110257187Y-40892809D01*
X110142093Y-40806649D01*
X110142086Y-40806645D01*
X110007379Y-40756403D01*
X110007372Y-40756401D01*
X109947844Y-40750000D01*
X109300000Y-40750000D01*
X109300000Y-41666988D01*
X109242993Y-41634075D01*
X109115826Y-41600000D01*
X108984174Y-41600000D01*
X108857007Y-41634075D01*
X108800000Y-41666988D01*
X108800000Y-40750000D01*
X108152155Y-40750000D01*
X108092627Y-40756401D01*
X108092620Y-40756403D01*
X107957913Y-40806645D01*
X107957906Y-40806649D01*
X107842812Y-40892809D01*
X107842809Y-40892812D01*
X107756649Y-41007906D01*
X107756645Y-41007913D01*
X107706403Y-41142620D01*
X107706401Y-41142627D01*
X107700000Y-41202155D01*
X107700000Y-41850000D01*
X108616988Y-41850000D01*
X108584075Y-41907007D01*
X108550000Y-42034174D01*
X108550000Y-42165826D01*
X108584075Y-42292993D01*
X108616988Y-42350000D01*
X107700000Y-42350000D01*
X107700000Y-42997844D01*
X88927500Y-42997844D01*
X88927500Y-42187017D01*
X88947185Y-42119978D01*
X88963819Y-42099336D01*
X90349336Y-40713819D01*
X90410659Y-40680334D01*
X90437017Y-40677500D01*
X99864895Y-40677500D01*
X99931934Y-40697185D01*
X99958605Y-40720295D01*
X99968872Y-40732143D01*
X100089947Y-40809953D01*
X100089950Y-40809954D01*
X100089949Y-40809954D01*
X100228036Y-40850499D01*
X100228038Y-40850500D01*
X100228039Y-40850500D01*
X100371962Y-40850500D01*
X100371962Y-40850499D01*
X100510053Y-40809953D01*
X100631128Y-40732143D01*
X100725377Y-40623373D01*
X100785165Y-40492457D01*
X100805647Y-40350000D01*
X100785165Y-40207543D01*
X100725377Y-40076627D01*
X100631128Y-39967857D01*
X100510053Y-39890047D01*
X100510051Y-39890046D01*
X100510049Y-39890045D01*
X100510050Y-39890045D01*
X100371963Y-39849500D01*
X100371961Y-39849500D01*
X100228039Y-39849500D01*
X100228036Y-39849500D01*
X100089949Y-39890045D01*
X99968873Y-39967856D01*
X99968872Y-39967856D01*
X99968872Y-39967857D01*
X99958606Y-39979703D01*
X99899830Y-40017477D01*
X99864895Y-40022500D01*
X90293116Y-40022500D01*
X90206884Y-40022500D01*
X90154252Y-40036603D01*
X90123589Y-40044819D01*
X90048911Y-40087934D01*
X90048908Y-40087936D01*
X88337936Y-41798908D01*
X88337934Y-41798911D01*
X88294819Y-41873589D01*
X88294819Y-41873590D01*
X88272500Y-41956884D01*
X88272500Y-58106884D01*
X88272500Y-58193116D01*
X87800500Y-58193116D01*
X87800500Y-39790693D01*
X87800500Y-39790691D01*
X87769799Y-39676114D01*
X87769799Y-39676113D01*
X87769799Y-39676112D01*
X87710492Y-39573389D01*
X87710488Y-39573384D01*
X86826616Y-38689513D01*
X86826614Y-38689511D01*
X86775250Y-38659856D01*
X86723888Y-38630201D01*
X86711780Y-38626957D01*
X86699673Y-38623713D01*
X86699670Y-38623712D01*
X86661478Y-38613478D01*
X86609309Y-38599500D01*
X86609308Y-38599500D01*
X86257727Y-38599500D01*
X86218995Y-38591073D01*
X86218563Y-38592545D01*
X86071963Y-38549500D01*
X86071961Y-38549500D01*
X85928039Y-38549500D01*
X85928036Y-38549500D01*
X85789949Y-38590045D01*
X85668873Y-38667856D01*
X85574623Y-38776626D01*
X85574622Y-38776628D01*
X85514834Y-38907543D01*
X85494353Y-39050000D01*
X76841000Y-39050000D01*
X76841000Y-34809295D01*
X76860685Y-34742256D01*
X76871286Y-34728093D01*
X76875377Y-34723373D01*
X76935165Y-34592457D01*
X76955647Y-34450000D01*
X76935165Y-34307543D01*
X76875377Y-34176627D01*
X76781128Y-34067857D01*
X76660053Y-33990047D01*
X76660051Y-33990046D01*
X76660049Y-33990045D01*
X76660050Y-33990045D01*
X76521963Y-33949500D01*
X76521961Y-33949500D01*
X76378039Y-33949500D01*
X76378036Y-33949500D01*
X76239949Y-33990045D01*
X76118873Y-34067856D01*
X76024623Y-34176626D01*
X76024622Y-34176628D01*
X75964834Y-34307543D01*
X75944353Y-34450000D01*
X75964834Y-34592456D01*
X75965570Y-34594067D01*
X76024623Y-34723373D01*
X76028710Y-34728090D01*
X76057737Y-34791644D01*
X76059000Y-34809295D01*
X76059000Y-46536680D01*
X76039315Y-46603719D01*
X76022680Y-46624362D01*
X75978028Y-46669013D01*
X75925283Y-46700308D01*
X75789949Y-46740045D01*
X75668873Y-46817856D01*
X75574623Y-46926626D01*
X75574622Y-46926628D01*
X75514834Y-47057543D01*
X75494353Y-47200000D01*
X60550500Y-47200000D01*
X60550500Y-42731007D01*
X60550500Y-42731004D01*
X60523581Y-42595677D01*
X60523580Y-42595676D01*
X60523580Y-42595672D01*
X60523578Y-42595667D01*
X60470778Y-42468195D01*
X60470776Y-42468191D01*
X60470775Y-42468189D01*
X60413059Y-42381811D01*
X60413057Y-42381808D01*
X60394116Y-42353459D01*
X60394114Y-42353457D01*
X57796546Y-39755888D01*
X57796545Y-39755887D01*
X57681807Y-39679222D01*
X57554332Y-39626421D01*
X57554322Y-39626418D01*
X57418996Y-39599500D01*
X57418994Y-39599500D01*
X57281006Y-39599500D01*
X57281004Y-39599500D01*
X57145677Y-39626418D01*
X57145667Y-39626421D01*
X57018192Y-39679222D01*
X56903454Y-39755887D01*
X56805887Y-39853454D01*
X56729222Y-39968192D01*
X56676421Y-40095667D01*
X56676418Y-40095677D01*
X56649500Y-40231003D01*
X56649500Y-40231006D01*
X56649500Y-40368994D01*
X56649500Y-40368996D01*
X56649499Y-40368996D01*
X48675500Y-40368996D01*
X48675500Y-32350002D01*
X49269506Y-32350002D01*
X49289469Y-32718196D01*
X49289470Y-32718213D01*
X49349122Y-33082068D01*
X49349128Y-33082094D01*
X49447768Y-33437365D01*
X49447770Y-33437371D01*
X49584255Y-33779926D01*
X49584261Y-33779938D01*
X49756973Y-34105708D01*
X49756976Y-34105713D01*
X49756978Y-34105716D01*
X49963910Y-34410917D01*
X50202627Y-34691956D01*
X50470330Y-34945538D01*
X50763881Y-35168690D01*
X51079838Y-35358795D01*
X51079840Y-35358796D01*
X51079842Y-35358797D01*
X51079846Y-35358799D01*
X51414486Y-35513620D01*
X51414497Y-35513625D01*
X51763934Y-35631364D01*
X52124052Y-35710632D01*
X52490630Y-35750500D01*
X52490636Y-35750500D01*
X52859364Y-35750500D01*
X52859370Y-35750500D01*
X53225948Y-35710632D01*
X53586066Y-35631364D01*
X53935503Y-35513625D01*
X54270162Y-35358795D01*
X54586119Y-35168690D01*
X54879670Y-34945538D01*
X55033312Y-34800000D01*
X64029417Y-34800000D01*
X64049699Y-35005932D01*
X64049700Y-35005934D01*
X64109768Y-35203954D01*
X64207315Y-35386450D01*
X64207317Y-35386452D01*
X64338589Y-35546410D01*
X64435209Y-35625702D01*
X64498550Y-35677685D01*
X64681046Y-35775232D01*
X64879066Y-35835300D01*
X64879065Y-35835300D01*
X64897529Y-35837118D01*
X65085000Y-35855583D01*
X65290934Y-35835300D01*
X65488954Y-35775232D01*
X65671450Y-35677685D01*
X65831410Y-35546410D01*
X65962685Y-35386450D01*
X66060232Y-35203954D01*
X66120300Y-35005934D01*
X66140583Y-34800000D01*
X66569417Y-34800000D01*
X66589699Y-35005932D01*
X66589700Y-35005934D01*
X66649768Y-35203954D01*
X66747315Y-35386450D01*
X66747317Y-35386452D01*
X66878589Y-35546410D01*
X66975209Y-35625702D01*
X67038550Y-35677685D01*
X67221046Y-35775232D01*
X67419066Y-35835300D01*
X67419065Y-35835300D01*
X67437529Y-35837118D01*
X67625000Y-35855583D01*
X67830934Y-35835300D01*
X68028954Y-35775232D01*
X68211450Y-35677685D01*
X68371410Y-35546410D01*
X68502685Y-35386450D01*
X68600232Y-35203954D01*
X68660300Y-35005934D01*
X68680583Y-34800000D01*
X69109417Y-34800000D01*
X69129699Y-35005932D01*
X69129700Y-35005934D01*
X69189768Y-35203954D01*
X69287315Y-35386450D01*
X69287317Y-35386452D01*
X69418589Y-35546410D01*
X69515209Y-35625702D01*
X69578550Y-35677685D01*
X69761046Y-35775232D01*
X69959066Y-35835300D01*
X69959065Y-35835300D01*
X69977529Y-35837118D01*
X70165000Y-35855583D01*
X70370934Y-35835300D01*
X70568954Y-35775232D01*
X70751450Y-35677685D01*
X70761116Y-35669752D01*
X71654500Y-35669752D01*
X71666131Y-35728229D01*
X71666132Y-35728230D01*
X71710447Y-35794552D01*
X71776769Y-35838867D01*
X71776770Y-35838868D01*
X71835247Y-35850499D01*
X71835250Y-35850500D01*
X71835252Y-35850500D01*
X72253500Y-35850500D01*
X72320539Y-35870185D01*
X72366294Y-35922989D01*
X72377500Y-35974500D01*
X72377500Y-45111884D01*
X72377500Y-45198116D01*
X72385093Y-45226452D01*
X72399819Y-45281410D01*
X72442934Y-45356088D01*
X72442936Y-45356091D01*
X73108034Y-46021189D01*
X73141519Y-46082512D01*
X73143091Y-46091223D01*
X73164834Y-46242456D01*
X73192172Y-46302317D01*
X73224623Y-46373373D01*
X73318872Y-46482143D01*
X73439947Y-46559953D01*
X73439950Y-46559954D01*
X73439949Y-46559954D01*
X73578036Y-46600499D01*
X73578038Y-46600500D01*
X73578039Y-46600500D01*
X73721962Y-46600500D01*
X73721962Y-46600499D01*
X73860053Y-46559953D01*
X73981128Y-46482143D01*
X74075377Y-46373373D01*
X74135165Y-46242457D01*
X74155647Y-46100000D01*
X74135165Y-45957543D01*
X74075377Y-45826627D01*
X73981128Y-45717857D01*
X73860053Y-45640047D01*
X73860051Y-45640046D01*
X73860049Y-45640045D01*
X73860050Y-45640045D01*
X73721963Y-45599500D01*
X73721961Y-45599500D01*
X73664017Y-45599500D01*
X73596978Y-45579815D01*
X73576336Y-45563181D01*
X73068819Y-45055664D01*
X73035334Y-44994341D01*
X73032500Y-44967983D01*
X73032500Y-35974500D01*
X73052185Y-35907461D01*
X73104989Y-35861706D01*
X73156500Y-35850500D01*
X73574750Y-35850500D01*
X73574751Y-35850499D01*
X73589568Y-35847552D01*
X73633229Y-35838868D01*
X73633229Y-35838867D01*
X73633231Y-35838867D01*
X73699552Y-35794552D01*
X73743867Y-35728231D01*
X73743867Y-35728229D01*
X73743868Y-35728229D01*
X73755499Y-35669752D01*
X73755500Y-35669750D01*
X73755500Y-33930249D01*
X73755499Y-33930247D01*
X73743868Y-33871770D01*
X73743867Y-33871769D01*
X73699552Y-33805447D01*
X73633230Y-33761132D01*
X73633229Y-33761131D01*
X73574752Y-33749500D01*
X73574748Y-33749500D01*
X71835252Y-33749500D01*
X71835247Y-33749500D01*
X71776770Y-33761131D01*
X71776769Y-33761132D01*
X71710447Y-33805447D01*
X71666132Y-33871769D01*
X71666131Y-33871770D01*
X71654500Y-33930247D01*
X71654500Y-35669752D01*
X70761116Y-35669752D01*
X70911410Y-35546410D01*
X71042685Y-35386450D01*
X71140232Y-35203954D01*
X71200300Y-35005934D01*
X71220583Y-34800000D01*
X71200300Y-34594066D01*
X71140232Y-34396046D01*
X71042685Y-34213550D01*
X70990702Y-34150209D01*
X70911410Y-34053589D01*
X70761121Y-33930252D01*
X70751450Y-33922315D01*
X70568954Y-33824768D01*
X70370934Y-33764700D01*
X70370932Y-33764699D01*
X70370934Y-33764699D01*
X70165000Y-33744417D01*
X69959067Y-33764699D01*
X69761043Y-33824769D01*
X69673114Y-33871769D01*
X69578550Y-33922315D01*
X69578548Y-33922316D01*
X69578547Y-33922317D01*
X69418589Y-34053589D01*
X69287317Y-34213547D01*
X69189769Y-34396043D01*
X69129699Y-34594067D01*
X69109417Y-34800000D01*
X68680583Y-34800000D01*
X68660300Y-34594066D01*
X68600232Y-34396046D01*
X68502685Y-34213550D01*
X68450702Y-34150209D01*
X68371410Y-34053589D01*
X68221121Y-33930252D01*
X68211450Y-33922315D01*
X68028954Y-33824768D01*
X67830934Y-33764700D01*
X67830932Y-33764699D01*
X67830934Y-33764699D01*
X67625000Y-33744417D01*
X67419067Y-33764699D01*
X67221043Y-33824769D01*
X67133114Y-33871769D01*
X67038550Y-33922315D01*
X67038548Y-33922316D01*
X67038547Y-33922317D01*
X66878589Y-34053589D01*
X66747317Y-34213547D01*
X66649769Y-34396043D01*
X66589699Y-34594067D01*
X66569417Y-34800000D01*
X66140583Y-34800000D01*
X66120300Y-34594066D01*
X66060232Y-34396046D01*
X65962685Y-34213550D01*
X65910702Y-34150209D01*
X65831410Y-34053589D01*
X65681121Y-33930252D01*
X65671450Y-33922315D01*
X65488954Y-33824768D01*
X65290934Y-33764700D01*
X65290932Y-33764699D01*
X65290934Y-33764699D01*
X65085000Y-33744417D01*
X64879067Y-33764699D01*
X64681043Y-33824769D01*
X64593114Y-33871769D01*
X64498550Y-33922315D01*
X64498548Y-33922316D01*
X64498547Y-33922317D01*
X64338589Y-34053589D01*
X64207317Y-34213547D01*
X64109769Y-34396043D01*
X64049699Y-34594067D01*
X64029417Y-34800000D01*
X55033312Y-34800000D01*
X55147373Y-34691956D01*
X55386090Y-34410917D01*
X55593022Y-34105716D01*
X55765743Y-33779930D01*
X55902227Y-33437379D01*
X56000875Y-33082081D01*
X56060531Y-32718199D01*
X56080494Y-32350000D01*
X56060531Y-31981801D01*
X56000875Y-31617919D01*
X55902227Y-31262621D01*
X55765743Y-30920070D01*
X55593022Y-30594284D01*
X55386090Y-30289083D01*
X55147373Y-30008044D01*
X54879670Y-29754462D01*
X54586119Y-29531310D01*
X54270162Y-29341205D01*
X54270161Y-29341204D01*
X54270157Y-29341202D01*
X54270153Y-29341200D01*
X53935513Y-29186379D01*
X53935508Y-29186377D01*
X53935503Y-29186375D01*
X53765172Y-29128983D01*
X53586065Y-29068635D01*
X53225946Y-28989367D01*
X52859371Y-28949500D01*
X52859370Y-28949500D01*
X52490630Y-28949500D01*
X52490628Y-28949500D01*
X52124053Y-28989367D01*
X51763934Y-29068635D01*
X51493812Y-29159650D01*
X51414497Y-29186375D01*
X51414494Y-29186376D01*
X51414486Y-29186379D01*
X51079846Y-29341200D01*
X51079842Y-29341202D01*
X50844538Y-29482779D01*
X50763881Y-29531310D01*
X50663410Y-29607685D01*
X50470330Y-29754461D01*
X50470330Y-29754462D01*
X50202626Y-30008044D01*
X49963909Y-30289083D01*
X49756979Y-30594282D01*
X49756973Y-30594291D01*
X49584261Y-30920061D01*
X49584255Y-30920073D01*
X49447770Y-31262628D01*
X49447768Y-31262634D01*
X49349128Y-31617905D01*
X49349122Y-31617931D01*
X49289470Y-31981786D01*
X49289469Y-31981803D01*
X49269506Y-32349997D01*
X49269506Y-32350002D01*
X48675500Y-32350002D01*
X48675500Y-28474500D01*
X48695185Y-28407461D01*
X48747989Y-28361706D01*
X48799500Y-28350500D01*
X81676000Y-28350500D01*
X81743039Y-28370185D01*
G37*
%TD.AperFunction*%
%TD*%
M02*
