M48
INCH
T1C0.0118
T2C0.0197
T3C0.0236
T4C0.0394
T5C0.0433
T6C0.0598
T7C0.1260
%
G90
G05
T1
X2.061Y-2.1575
X2.1201Y-1.7323
X2.122Y-1.8799
X2.1358Y-2.0551
X2.2008Y-2.1575
X2.2579Y-1.5866
X2.2657Y-2.378
X2.2894Y-2.3543
X2.3563Y-2.1142
X2.4646Y-2.1142
X2.4646Y-2.2382
X2.5335Y-2.0236
X2.5709Y-2.6496
X2.5728Y-2.5984
X2.6014Y-1.7178
X2.6014Y-1.747
X2.6014Y-1.7762
X2.6014Y-1.8054
X2.6014Y-1.8346
X2.6014Y-1.8638
X2.6014Y-1.893
X2.6486Y-1.7178
X2.6486Y-1.747
X2.6486Y-1.7762
X2.6486Y-1.8054
X2.6486Y-1.8346
X2.6486Y-1.8638
X2.6486Y-1.893
X2.6959Y-1.7178
X2.6959Y-1.747
X2.6959Y-1.7762
X2.6959Y-1.8054
X2.6959Y-1.8346
X2.6959Y-1.8638
X2.6959Y-1.893
X2.7126Y-2.0846
X2.7185Y-1.5807
X2.8169Y-2.6772
X2.8996Y-1.815
X2.9311Y-2.4823
X2.9429Y-1.5138
X2.9429Y-1.6083
X2.9921Y-1.8583
X3.0Y-2.2559
X3.0098Y-1.3563
X3.0512Y-2.4724
X3.1063Y-2.8091
X3.1693Y-2.9409
X3.2146Y-1.4843
X3.2185Y-1.8878
X3.2205Y-1.8386
X3.2972Y-2.7343
X3.2972Y-2.935
X3.3051Y-2.4783
X3.376Y-1.5886
X3.3858Y-1.5374
X3.3976Y-2.752
X3.3998Y-1.4788
X3.4213Y-2.9409
X3.4398Y-1.4788
X3.4587Y-2.811
X3.4798Y-1.4788
X3.5197Y-2.439
X3.5198Y-1.4788
X3.5374Y-2.2559
X3.5598Y-1.4788
X3.5709Y-2.5433
X3.5768Y-1.6988
X3.5768Y-1.8839
X3.5886Y-2.2579
X3.5998Y-1.4788
X3.6299Y-1.8839
X3.6319Y-1.6988
X3.6378Y-2.2559
X3.6398Y-1.4788
X3.6798Y-1.4788
X3.689Y-2.2539
X3.6919Y-2.5413
X3.6949Y-1.7638
X3.6949Y-1.8189
X3.7198Y-1.4788
X3.7382Y-2.2559
X3.7598Y-1.4788
X3.7894Y-2.2559
X3.7998Y-1.4788
X3.8398Y-1.4788
X3.8798Y-1.4788
X3.9198Y-1.4788
X3.937Y-2.7677
X3.9488Y-1.5886
X3.9852Y-2.5413
T2
X1.9793Y-1.2736
X1.9793Y-3.1043
X2.007Y-1.2068
X2.007Y-1.3404
X2.007Y-3.0375
X2.007Y-3.1711
X2.0738Y-1.1791
X2.0738Y-1.3681
X2.0738Y-3.0098
X2.0738Y-3.1988
X2.1406Y-1.2068
X2.1406Y-1.3404
X2.1406Y-3.0375
X2.1406Y-3.1711
X2.1683Y-1.2736
X2.1683Y-3.1043
X4.2825Y-1.2736
X4.2825Y-3.1043
X4.3102Y-1.2068
X4.3102Y-1.3404
X4.3102Y-3.0375
X4.3102Y-3.1711
X4.377Y-1.1791
X4.377Y-1.3681
X4.377Y-3.0098
X4.377Y-3.1988
X4.4438Y-1.2068
X4.4438Y-1.3404
X4.4438Y-3.0375
X4.4438Y-3.1711
X4.4715Y-1.2736
X4.4715Y-3.1043
T4
X2.0226Y-1.6555
X2.0226Y-1.7555
X2.0226Y-1.8555
X2.0226Y-1.9555
X2.0246Y-2.5994
X2.0246Y-2.6994
X2.5624Y-1.3701
X2.6624Y-1.3701
X2.7624Y-1.3701
X2.8624Y-1.3701
X4.2874Y-2.1874
X4.2874Y-2.2874
X4.2874Y-2.3874
X4.2874Y-2.4874
X4.2874Y-2.5874
X4.2874Y-2.6874
X4.2933Y-1.6575
X4.2933Y-1.7575
X4.2933Y-1.8575
T5
X3.8518Y-3.128
X3.9518Y-3.128
X4.0518Y-3.128
T6
X2.5053Y-3.1181
X2.7053Y-3.1181
T7
X2.0738Y-1.2736
X2.0738Y-3.1043
X4.377Y-1.2736
X4.377Y-3.1043
T3
G00X3.1272Y-3.0559
M15
G01X3.1272Y-3.0126
M16
G05
G00X3.1272Y-3.2142
M15
G01X3.1272Y-3.1827
M16
G05
G00X3.4673Y-3.0559
M15
G01X3.4673Y-3.0126
M16
G05
G00X3.4673Y-3.2142
M15
G01X3.4673Y-3.1827
M16
G05
M30
