%TF.GenerationSoftware,KiCad,Pcbnew,8.0.1*%
%TF.CreationDate,2024-04-06T00:37:26+05:30*%
%TF.ProjectId,Project,50726f6a-6563-4742-9e6b-696361645f70,rev?*%
%TF.SameCoordinates,Original*%
%TF.FileFunction,Legend,Bot*%
%TF.FilePolarity,Positive*%
%FSLAX46Y46*%
G04 Gerber Fmt 4.6, Leading zero omitted, Abs format (unit mm)*
G04 Created by KiCad (PCBNEW 8.0.1) date 2024-04-06 00:37:26*
%MOMM*%
%LPD*%
G01*
G04 APERTURE LIST*
%ADD10R,3.000000X3.000000*%
%ADD11C,3.000000*%
%ADD12C,0.800000*%
%ADD13C,6.400000*%
%ADD14R,1.700000X1.700000*%
%ADD15O,1.700000X1.700000*%
%ADD16C,0.600000*%
%ADD17O,0.900000X2.000000*%
%ADD18O,0.900000X1.700000*%
%ADD19R,2.100000X2.100000*%
%ADD20C,2.100000*%
G04 APERTURE END LIST*
%LPC*%
D10*
%TO.C,J2*%
X68715000Y-79200000D03*
D11*
X63635000Y-79200000D03*
%TD*%
D12*
%TO.C,H1*%
X50275000Y-32350000D03*
X50977944Y-30652944D03*
X50977944Y-34047056D03*
X52675000Y-29950000D03*
D13*
X52675000Y-32350000D03*
D12*
X52675000Y-34750000D03*
X54372056Y-30652944D03*
X54372056Y-34047056D03*
X55075000Y-32350000D03*
%TD*%
%TO.C,H2*%
X50275000Y-78850000D03*
X50977944Y-77152944D03*
X50977944Y-80547056D03*
X52675000Y-76450000D03*
D13*
X52675000Y-78850000D03*
D12*
X52675000Y-81250000D03*
X54372056Y-77152944D03*
X54372056Y-80547056D03*
X55075000Y-78850000D03*
%TD*%
D14*
%TO.C,J3*%
X51375000Y-42050000D03*
D15*
X51375000Y-44590000D03*
X51375000Y-47130000D03*
X51375000Y-49670000D03*
%TD*%
D16*
%TO.C,J1*%
X80860000Y-77550000D03*
X86640000Y-77550000D03*
D17*
X79430000Y-77070000D03*
D18*
X79430000Y-81240000D03*
D17*
X88070000Y-77070000D03*
D18*
X88070000Y-81240000D03*
%TD*%
D19*
%TO.C,J5*%
X102915000Y-79450000D03*
D20*
X100375000Y-79450000D03*
X97835000Y-79450000D03*
%TD*%
D12*
%TO.C,H3*%
X108775000Y-32350000D03*
X109477944Y-30652944D03*
X109477944Y-34047056D03*
X111175000Y-29950000D03*
D13*
X111175000Y-32350000D03*
D12*
X111175000Y-34750000D03*
X112872056Y-30652944D03*
X112872056Y-34047056D03*
X113575000Y-32350000D03*
%TD*%
D14*
%TO.C,J7*%
X108900000Y-68260000D03*
D15*
X108900000Y-65720000D03*
X108900000Y-63180000D03*
X108900000Y-60640000D03*
X108900000Y-58100000D03*
X108900000Y-55560000D03*
%TD*%
D14*
%TO.C,J9*%
X51425000Y-66025000D03*
D15*
X51425000Y-68565000D03*
%TD*%
D12*
%TO.C,H4*%
X108775000Y-78850000D03*
X109477944Y-77152944D03*
X109477944Y-80547056D03*
X111175000Y-76450000D03*
D13*
X111175000Y-78850000D03*
D12*
X111175000Y-81250000D03*
X112872056Y-77152944D03*
X112872056Y-80547056D03*
X113575000Y-78850000D03*
%TD*%
D14*
%TO.C,J4*%
X109050000Y-42100000D03*
D15*
X109050000Y-44640000D03*
X109050000Y-47180000D03*
%TD*%
D14*
%TO.C,J6*%
X72705000Y-34800000D03*
D15*
X70165000Y-34800000D03*
X67625000Y-34800000D03*
X65085000Y-34800000D03*
%TD*%
%LPD*%
M02*
