%TF.GenerationSoftware,KiCad,Pcbnew,8.0.1*%
%TF.CreationDate,2024-04-06T00:37:26+05:30*%
%TF.ProjectId,Project,50726f6a-6563-4742-9e6b-696361645f70,rev?*%
%TF.SameCoordinates,Original*%
%TF.FileFunction,Legend,Top*%
%TF.FilePolarity,Positive*%
%FSLAX46Y46*%
G04 Gerber Fmt 4.6, Leading zero omitted, Abs format (unit mm)*
G04 Created by KiCad (PCBNEW 8.0.1) date 2024-04-06 00:37:26*
%MOMM*%
%LPD*%
G01*
G04 APERTURE LIST*
G04 Aperture macros list*
%AMRoundRect*
0 Rectangle with rounded corners*
0 $1 Rounding radius*
0 $2 $3 $4 $5 $6 $7 $8 $9 X,Y pos of 4 corners*
0 Add a 4 corners polygon primitive as box body*
4,1,4,$2,$3,$4,$5,$6,$7,$8,$9,$2,$3,0*
0 Add four circle primitives for the rounded corners*
1,1,$1+$1,$2,$3*
1,1,$1+$1,$4,$5*
1,1,$1+$1,$6,$7*
1,1,$1+$1,$8,$9*
0 Add four rect primitives between the rounded corners*
20,1,$1+$1,$2,$3,$4,$5,0*
20,1,$1+$1,$4,$5,$6,$7,0*
20,1,$1+$1,$6,$7,$8,$9,0*
20,1,$1+$1,$8,$9,$2,$3,0*%
%AMFreePoly0*
4,1,6,1.000000,0.000000,0.500000,-0.750000,-0.500000,-0.750000,-0.500000,0.750000,0.500000,0.750000,1.000000,0.000000,1.000000,0.000000,$1*%
G04 Aperture macros list end*
%ADD10C,0.150000*%
%ADD11C,0.254000*%
%ADD12C,0.120000*%
%ADD13C,0.152400*%
%ADD14C,0.100000*%
%ADD15C,0.200000*%
%ADD16RoundRect,0.250000X-0.262500X-0.450000X0.262500X-0.450000X0.262500X0.450000X-0.262500X0.450000X0*%
%ADD17RoundRect,0.250000X-0.450000X0.262500X-0.450000X-0.262500X0.450000X-0.262500X0.450000X0.262500X0*%
%ADD18RoundRect,0.200000X-0.200000X-0.800000X0.200000X-0.800000X0.200000X0.800000X-0.200000X0.800000X0*%
%ADD19R,3.000000X3.000000*%
%ADD20C,3.000000*%
%ADD21C,0.800000*%
%ADD22C,6.400000*%
%ADD23RoundRect,0.250000X0.450000X-0.262500X0.450000X0.262500X-0.450000X0.262500X-0.450000X-0.262500X0*%
%ADD24RoundRect,0.250000X-0.312500X-0.625000X0.312500X-0.625000X0.312500X0.625000X-0.312500X0.625000X0*%
%ADD25R,1.500000X1.500000*%
%ADD26FreePoly0,180.000000*%
%ADD27FreePoly0,0.000000*%
%ADD28R,1.549400X0.939800*%
%ADD29R,2.133600X1.498600*%
%ADD30RoundRect,0.250000X0.262500X0.450000X-0.262500X0.450000X-0.262500X-0.450000X0.262500X-0.450000X0*%
%ADD31RoundRect,0.250000X-0.325000X-0.650000X0.325000X-0.650000X0.325000X0.650000X-0.325000X0.650000X0*%
%ADD32RoundRect,0.150000X0.150000X-0.512500X0.150000X0.512500X-0.150000X0.512500X-0.150000X-0.512500X0*%
%ADD33R,1.700000X1.700000*%
%ADD34O,1.700000X1.700000*%
%ADD35RoundRect,0.250000X0.250000X0.475000X-0.250000X0.475000X-0.250000X-0.475000X0.250000X-0.475000X0*%
%ADD36R,1.500000X0.900000*%
%ADD37R,0.900000X1.500000*%
%ADD38R,0.900000X0.900000*%
%ADD39RoundRect,0.250000X-0.250000X-0.475000X0.250000X-0.475000X0.250000X0.475000X-0.250000X0.475000X0*%
%ADD40C,0.600000*%
%ADD41R,0.600000X1.160000*%
%ADD42R,0.300000X1.160000*%
%ADD43O,0.900000X2.000000*%
%ADD44O,0.900000X1.700000*%
%ADD45RoundRect,0.250000X0.650000X-0.325000X0.650000X0.325000X-0.650000X0.325000X-0.650000X-0.325000X0*%
%ADD46RoundRect,0.250000X-0.650000X0.325000X-0.650000X-0.325000X0.650000X-0.325000X0.650000X0.325000X0*%
%ADD47RoundRect,0.250000X-1.000000X-0.650000X1.000000X-0.650000X1.000000X0.650000X-1.000000X0.650000X0*%
%ADD48R,2.100000X2.100000*%
%ADD49C,2.100000*%
%ADD50R,1.460500X0.558800*%
%ADD51R,2.717800X3.403600*%
%ADD52R,4.200000X2.200000*%
%ADD53RoundRect,0.250000X-0.475000X0.250000X-0.475000X-0.250000X0.475000X-0.250000X0.475000X0.250000X0*%
%ADD54R,1.475000X0.450000*%
%ADD55R,3.100000X5.180000*%
%ADD56RoundRect,0.250000X0.550000X-1.500000X0.550000X1.500000X-0.550000X1.500000X-0.550000X-1.500000X0*%
%ADD57RoundRect,0.200000X0.200000X0.800000X-0.200000X0.800000X-0.200000X-0.800000X0.200000X-0.800000X0*%
G04 APERTURE END LIST*
D10*
X111486779Y-61219819D02*
X111486779Y-60219819D01*
X112153445Y-60219819D02*
X112343921Y-60219819D01*
X112343921Y-60219819D02*
X112439159Y-60267438D01*
X112439159Y-60267438D02*
X112534397Y-60362676D01*
X112534397Y-60362676D02*
X112582016Y-60553152D01*
X112582016Y-60553152D02*
X112582016Y-60886485D01*
X112582016Y-60886485D02*
X112534397Y-61076961D01*
X112534397Y-61076961D02*
X112439159Y-61172200D01*
X112439159Y-61172200D02*
X112343921Y-61219819D01*
X112343921Y-61219819D02*
X112153445Y-61219819D01*
X112153445Y-61219819D02*
X112058207Y-61172200D01*
X112058207Y-61172200D02*
X111962969Y-61076961D01*
X111962969Y-61076961D02*
X111915350Y-60886485D01*
X111915350Y-60886485D02*
X111915350Y-60553152D01*
X111915350Y-60553152D02*
X111962969Y-60362676D01*
X111962969Y-60362676D02*
X112058207Y-60267438D01*
X112058207Y-60267438D02*
X112153445Y-60219819D01*
X113534397Y-61219819D02*
X112962969Y-61219819D01*
X113248683Y-61219819D02*
X113248683Y-60219819D01*
X113248683Y-60219819D02*
X113153445Y-60362676D01*
X113153445Y-60362676D02*
X113058207Y-60457914D01*
X113058207Y-60457914D02*
X112962969Y-60505533D01*
X113915350Y-60315057D02*
X113962969Y-60267438D01*
X113962969Y-60267438D02*
X114058207Y-60219819D01*
X114058207Y-60219819D02*
X114296302Y-60219819D01*
X114296302Y-60219819D02*
X114391540Y-60267438D01*
X114391540Y-60267438D02*
X114439159Y-60315057D01*
X114439159Y-60315057D02*
X114486778Y-60410295D01*
X114486778Y-60410295D02*
X114486778Y-60505533D01*
X114486778Y-60505533D02*
X114439159Y-60648390D01*
X114439159Y-60648390D02*
X113867731Y-61219819D01*
X113867731Y-61219819D02*
X114486778Y-61219819D01*
X111436779Y-56019819D02*
X111436779Y-55019819D01*
X112103445Y-55019819D02*
X112293921Y-55019819D01*
X112293921Y-55019819D02*
X112389159Y-55067438D01*
X112389159Y-55067438D02*
X112484397Y-55162676D01*
X112484397Y-55162676D02*
X112532016Y-55353152D01*
X112532016Y-55353152D02*
X112532016Y-55686485D01*
X112532016Y-55686485D02*
X112484397Y-55876961D01*
X112484397Y-55876961D02*
X112389159Y-55972200D01*
X112389159Y-55972200D02*
X112293921Y-56019819D01*
X112293921Y-56019819D02*
X112103445Y-56019819D01*
X112103445Y-56019819D02*
X112008207Y-55972200D01*
X112008207Y-55972200D02*
X111912969Y-55876961D01*
X111912969Y-55876961D02*
X111865350Y-55686485D01*
X111865350Y-55686485D02*
X111865350Y-55353152D01*
X111865350Y-55353152D02*
X111912969Y-55162676D01*
X111912969Y-55162676D02*
X112008207Y-55067438D01*
X112008207Y-55067438D02*
X112103445Y-55019819D01*
X113484397Y-56019819D02*
X112912969Y-56019819D01*
X113198683Y-56019819D02*
X113198683Y-55019819D01*
X113198683Y-55019819D02*
X113103445Y-55162676D01*
X113103445Y-55162676D02*
X113008207Y-55257914D01*
X113008207Y-55257914D02*
X112912969Y-55305533D01*
X114103445Y-55019819D02*
X114198683Y-55019819D01*
X114198683Y-55019819D02*
X114293921Y-55067438D01*
X114293921Y-55067438D02*
X114341540Y-55115057D01*
X114341540Y-55115057D02*
X114389159Y-55210295D01*
X114389159Y-55210295D02*
X114436778Y-55400771D01*
X114436778Y-55400771D02*
X114436778Y-55638866D01*
X114436778Y-55638866D02*
X114389159Y-55829342D01*
X114389159Y-55829342D02*
X114341540Y-55924580D01*
X114341540Y-55924580D02*
X114293921Y-55972200D01*
X114293921Y-55972200D02*
X114198683Y-56019819D01*
X114198683Y-56019819D02*
X114103445Y-56019819D01*
X114103445Y-56019819D02*
X114008207Y-55972200D01*
X114008207Y-55972200D02*
X113960588Y-55924580D01*
X113960588Y-55924580D02*
X113912969Y-55829342D01*
X113912969Y-55829342D02*
X113865350Y-55638866D01*
X113865350Y-55638866D02*
X113865350Y-55400771D01*
X113865350Y-55400771D02*
X113912969Y-55210295D01*
X113912969Y-55210295D02*
X113960588Y-55115057D01*
X113960588Y-55115057D02*
X114008207Y-55067438D01*
X114008207Y-55067438D02*
X114103445Y-55019819D01*
X111436779Y-68819819D02*
X111436779Y-67819819D01*
X112103445Y-67819819D02*
X112293921Y-67819819D01*
X112293921Y-67819819D02*
X112389159Y-67867438D01*
X112389159Y-67867438D02*
X112484397Y-67962676D01*
X112484397Y-67962676D02*
X112532016Y-68153152D01*
X112532016Y-68153152D02*
X112532016Y-68486485D01*
X112532016Y-68486485D02*
X112484397Y-68676961D01*
X112484397Y-68676961D02*
X112389159Y-68772200D01*
X112389159Y-68772200D02*
X112293921Y-68819819D01*
X112293921Y-68819819D02*
X112103445Y-68819819D01*
X112103445Y-68819819D02*
X112008207Y-68772200D01*
X112008207Y-68772200D02*
X111912969Y-68676961D01*
X111912969Y-68676961D02*
X111865350Y-68486485D01*
X111865350Y-68486485D02*
X111865350Y-68153152D01*
X111865350Y-68153152D02*
X111912969Y-67962676D01*
X111912969Y-67962676D02*
X112008207Y-67867438D01*
X112008207Y-67867438D02*
X112103445Y-67819819D01*
X112912969Y-67915057D02*
X112960588Y-67867438D01*
X112960588Y-67867438D02*
X113055826Y-67819819D01*
X113055826Y-67819819D02*
X113293921Y-67819819D01*
X113293921Y-67819819D02*
X113389159Y-67867438D01*
X113389159Y-67867438D02*
X113436778Y-67915057D01*
X113436778Y-67915057D02*
X113484397Y-68010295D01*
X113484397Y-68010295D02*
X113484397Y-68105533D01*
X113484397Y-68105533D02*
X113436778Y-68248390D01*
X113436778Y-68248390D02*
X112865350Y-68819819D01*
X112865350Y-68819819D02*
X113484397Y-68819819D01*
X114436778Y-68819819D02*
X113865350Y-68819819D01*
X114151064Y-68819819D02*
X114151064Y-67819819D01*
X114151064Y-67819819D02*
X114055826Y-67962676D01*
X114055826Y-67962676D02*
X113960588Y-68057914D01*
X113960588Y-68057914D02*
X113865350Y-68105533D01*
X99945112Y-67046009D02*
X100087969Y-67093628D01*
X100087969Y-67093628D02*
X100135588Y-67141247D01*
X100135588Y-67141247D02*
X100183207Y-67236485D01*
X100183207Y-67236485D02*
X100183207Y-67379342D01*
X100183207Y-67379342D02*
X100135588Y-67474580D01*
X100135588Y-67474580D02*
X100087969Y-67522200D01*
X100087969Y-67522200D02*
X99992731Y-67569819D01*
X99992731Y-67569819D02*
X99611779Y-67569819D01*
X99611779Y-67569819D02*
X99611779Y-66569819D01*
X99611779Y-66569819D02*
X99945112Y-66569819D01*
X99945112Y-66569819D02*
X100040350Y-66617438D01*
X100040350Y-66617438D02*
X100087969Y-66665057D01*
X100087969Y-66665057D02*
X100135588Y-66760295D01*
X100135588Y-66760295D02*
X100135588Y-66855533D01*
X100135588Y-66855533D02*
X100087969Y-66950771D01*
X100087969Y-66950771D02*
X100040350Y-66998390D01*
X100040350Y-66998390D02*
X99945112Y-67046009D01*
X99945112Y-67046009D02*
X99611779Y-67046009D01*
X100802255Y-66569819D02*
X100992731Y-66569819D01*
X100992731Y-66569819D02*
X101087969Y-66617438D01*
X101087969Y-66617438D02*
X101183207Y-66712676D01*
X101183207Y-66712676D02*
X101230826Y-66903152D01*
X101230826Y-66903152D02*
X101230826Y-67236485D01*
X101230826Y-67236485D02*
X101183207Y-67426961D01*
X101183207Y-67426961D02*
X101087969Y-67522200D01*
X101087969Y-67522200D02*
X100992731Y-67569819D01*
X100992731Y-67569819D02*
X100802255Y-67569819D01*
X100802255Y-67569819D02*
X100707017Y-67522200D01*
X100707017Y-67522200D02*
X100611779Y-67426961D01*
X100611779Y-67426961D02*
X100564160Y-67236485D01*
X100564160Y-67236485D02*
X100564160Y-66903152D01*
X100564160Y-66903152D02*
X100611779Y-66712676D01*
X100611779Y-66712676D02*
X100707017Y-66617438D01*
X100707017Y-66617438D02*
X100802255Y-66569819D01*
X101849874Y-66569819D02*
X102040350Y-66569819D01*
X102040350Y-66569819D02*
X102135588Y-66617438D01*
X102135588Y-66617438D02*
X102230826Y-66712676D01*
X102230826Y-66712676D02*
X102278445Y-66903152D01*
X102278445Y-66903152D02*
X102278445Y-67236485D01*
X102278445Y-67236485D02*
X102230826Y-67426961D01*
X102230826Y-67426961D02*
X102135588Y-67522200D01*
X102135588Y-67522200D02*
X102040350Y-67569819D01*
X102040350Y-67569819D02*
X101849874Y-67569819D01*
X101849874Y-67569819D02*
X101754636Y-67522200D01*
X101754636Y-67522200D02*
X101659398Y-67426961D01*
X101659398Y-67426961D02*
X101611779Y-67236485D01*
X101611779Y-67236485D02*
X101611779Y-66903152D01*
X101611779Y-66903152D02*
X101659398Y-66712676D01*
X101659398Y-66712676D02*
X101754636Y-66617438D01*
X101754636Y-66617438D02*
X101849874Y-66569819D01*
X102564160Y-66569819D02*
X103135588Y-66569819D01*
X102849874Y-67569819D02*
X102849874Y-66569819D01*
X93233207Y-67519819D02*
X92899874Y-67043628D01*
X92661779Y-67519819D02*
X92661779Y-66519819D01*
X92661779Y-66519819D02*
X93042731Y-66519819D01*
X93042731Y-66519819D02*
X93137969Y-66567438D01*
X93137969Y-66567438D02*
X93185588Y-66615057D01*
X93185588Y-66615057D02*
X93233207Y-66710295D01*
X93233207Y-66710295D02*
X93233207Y-66853152D01*
X93233207Y-66853152D02*
X93185588Y-66948390D01*
X93185588Y-66948390D02*
X93137969Y-66996009D01*
X93137969Y-66996009D02*
X93042731Y-67043628D01*
X93042731Y-67043628D02*
X92661779Y-67043628D01*
X93614160Y-67472200D02*
X93757017Y-67519819D01*
X93757017Y-67519819D02*
X93995112Y-67519819D01*
X93995112Y-67519819D02*
X94090350Y-67472200D01*
X94090350Y-67472200D02*
X94137969Y-67424580D01*
X94137969Y-67424580D02*
X94185588Y-67329342D01*
X94185588Y-67329342D02*
X94185588Y-67234104D01*
X94185588Y-67234104D02*
X94137969Y-67138866D01*
X94137969Y-67138866D02*
X94090350Y-67091247D01*
X94090350Y-67091247D02*
X93995112Y-67043628D01*
X93995112Y-67043628D02*
X93804636Y-66996009D01*
X93804636Y-66996009D02*
X93709398Y-66948390D01*
X93709398Y-66948390D02*
X93661779Y-66900771D01*
X93661779Y-66900771D02*
X93614160Y-66805533D01*
X93614160Y-66805533D02*
X93614160Y-66710295D01*
X93614160Y-66710295D02*
X93661779Y-66615057D01*
X93661779Y-66615057D02*
X93709398Y-66567438D01*
X93709398Y-66567438D02*
X93804636Y-66519819D01*
X93804636Y-66519819D02*
X94042731Y-66519819D01*
X94042731Y-66519819D02*
X94185588Y-66567438D01*
X94471303Y-66519819D02*
X95042731Y-66519819D01*
X94757017Y-67519819D02*
X94757017Y-66519819D01*
X111436779Y-58619819D02*
X111436779Y-57619819D01*
X112103445Y-57619819D02*
X112293921Y-57619819D01*
X112293921Y-57619819D02*
X112389159Y-57667438D01*
X112389159Y-57667438D02*
X112484397Y-57762676D01*
X112484397Y-57762676D02*
X112532016Y-57953152D01*
X112532016Y-57953152D02*
X112532016Y-58286485D01*
X112532016Y-58286485D02*
X112484397Y-58476961D01*
X112484397Y-58476961D02*
X112389159Y-58572200D01*
X112389159Y-58572200D02*
X112293921Y-58619819D01*
X112293921Y-58619819D02*
X112103445Y-58619819D01*
X112103445Y-58619819D02*
X112008207Y-58572200D01*
X112008207Y-58572200D02*
X111912969Y-58476961D01*
X111912969Y-58476961D02*
X111865350Y-58286485D01*
X111865350Y-58286485D02*
X111865350Y-57953152D01*
X111865350Y-57953152D02*
X111912969Y-57762676D01*
X111912969Y-57762676D02*
X112008207Y-57667438D01*
X112008207Y-57667438D02*
X112103445Y-57619819D01*
X113484397Y-58619819D02*
X112912969Y-58619819D01*
X113198683Y-58619819D02*
X113198683Y-57619819D01*
X113198683Y-57619819D02*
X113103445Y-57762676D01*
X113103445Y-57762676D02*
X113008207Y-57857914D01*
X113008207Y-57857914D02*
X112912969Y-57905533D01*
X114436778Y-58619819D02*
X113865350Y-58619819D01*
X114151064Y-58619819D02*
X114151064Y-57619819D01*
X114151064Y-57619819D02*
X114055826Y-57762676D01*
X114055826Y-57762676D02*
X113960588Y-57857914D01*
X113960588Y-57857914D02*
X113865350Y-57905533D01*
X111193922Y-44119819D02*
X111765350Y-44119819D01*
X111479636Y-45119819D02*
X111479636Y-44119819D01*
X112003446Y-44119819D02*
X112670112Y-45119819D01*
X112670112Y-44119819D02*
X112003446Y-45119819D01*
X111436779Y-66219819D02*
X111436779Y-65219819D01*
X112103445Y-65219819D02*
X112293921Y-65219819D01*
X112293921Y-65219819D02*
X112389159Y-65267438D01*
X112389159Y-65267438D02*
X112484397Y-65362676D01*
X112484397Y-65362676D02*
X112532016Y-65553152D01*
X112532016Y-65553152D02*
X112532016Y-65886485D01*
X112532016Y-65886485D02*
X112484397Y-66076961D01*
X112484397Y-66076961D02*
X112389159Y-66172200D01*
X112389159Y-66172200D02*
X112293921Y-66219819D01*
X112293921Y-66219819D02*
X112103445Y-66219819D01*
X112103445Y-66219819D02*
X112008207Y-66172200D01*
X112008207Y-66172200D02*
X111912969Y-66076961D01*
X111912969Y-66076961D02*
X111865350Y-65886485D01*
X111865350Y-65886485D02*
X111865350Y-65553152D01*
X111865350Y-65553152D02*
X111912969Y-65362676D01*
X111912969Y-65362676D02*
X112008207Y-65267438D01*
X112008207Y-65267438D02*
X112103445Y-65219819D01*
X113484397Y-66219819D02*
X112912969Y-66219819D01*
X113198683Y-66219819D02*
X113198683Y-65219819D01*
X113198683Y-65219819D02*
X113103445Y-65362676D01*
X113103445Y-65362676D02*
X113008207Y-65457914D01*
X113008207Y-65457914D02*
X112912969Y-65505533D01*
X114341540Y-65553152D02*
X114341540Y-66219819D01*
X114103445Y-65172200D02*
X113865350Y-65886485D01*
X113865350Y-65886485D02*
X114484397Y-65886485D01*
X111908207Y-47669819D02*
X111574874Y-47193628D01*
X111336779Y-47669819D02*
X111336779Y-46669819D01*
X111336779Y-46669819D02*
X111717731Y-46669819D01*
X111717731Y-46669819D02*
X111812969Y-46717438D01*
X111812969Y-46717438D02*
X111860588Y-46765057D01*
X111860588Y-46765057D02*
X111908207Y-46860295D01*
X111908207Y-46860295D02*
X111908207Y-47003152D01*
X111908207Y-47003152D02*
X111860588Y-47098390D01*
X111860588Y-47098390D02*
X111812969Y-47146009D01*
X111812969Y-47146009D02*
X111717731Y-47193628D01*
X111717731Y-47193628D02*
X111336779Y-47193628D01*
X112241541Y-46669819D02*
X112908207Y-47669819D01*
X112908207Y-46669819D02*
X112241541Y-47669819D01*
X111860588Y-41567438D02*
X111765350Y-41519819D01*
X111765350Y-41519819D02*
X111622493Y-41519819D01*
X111622493Y-41519819D02*
X111479636Y-41567438D01*
X111479636Y-41567438D02*
X111384398Y-41662676D01*
X111384398Y-41662676D02*
X111336779Y-41757914D01*
X111336779Y-41757914D02*
X111289160Y-41948390D01*
X111289160Y-41948390D02*
X111289160Y-42091247D01*
X111289160Y-42091247D02*
X111336779Y-42281723D01*
X111336779Y-42281723D02*
X111384398Y-42376961D01*
X111384398Y-42376961D02*
X111479636Y-42472200D01*
X111479636Y-42472200D02*
X111622493Y-42519819D01*
X111622493Y-42519819D02*
X111717731Y-42519819D01*
X111717731Y-42519819D02*
X111860588Y-42472200D01*
X111860588Y-42472200D02*
X111908207Y-42424580D01*
X111908207Y-42424580D02*
X111908207Y-42091247D01*
X111908207Y-42091247D02*
X111717731Y-42091247D01*
X112336779Y-42519819D02*
X112336779Y-41519819D01*
X112336779Y-41519819D02*
X112908207Y-42519819D01*
X112908207Y-42519819D02*
X112908207Y-41519819D01*
X113384398Y-42519819D02*
X113384398Y-41519819D01*
X113384398Y-41519819D02*
X113622493Y-41519819D01*
X113622493Y-41519819D02*
X113765350Y-41567438D01*
X113765350Y-41567438D02*
X113860588Y-41662676D01*
X113860588Y-41662676D02*
X113908207Y-41757914D01*
X113908207Y-41757914D02*
X113955826Y-41948390D01*
X113955826Y-41948390D02*
X113955826Y-42091247D01*
X113955826Y-42091247D02*
X113908207Y-42281723D01*
X113908207Y-42281723D02*
X113860588Y-42376961D01*
X113860588Y-42376961D02*
X113765350Y-42472200D01*
X113765350Y-42472200D02*
X113622493Y-42519819D01*
X113622493Y-42519819D02*
X113384398Y-42519819D01*
X111436779Y-63719819D02*
X111436779Y-62719819D01*
X112103445Y-62719819D02*
X112293921Y-62719819D01*
X112293921Y-62719819D02*
X112389159Y-62767438D01*
X112389159Y-62767438D02*
X112484397Y-62862676D01*
X112484397Y-62862676D02*
X112532016Y-63053152D01*
X112532016Y-63053152D02*
X112532016Y-63386485D01*
X112532016Y-63386485D02*
X112484397Y-63576961D01*
X112484397Y-63576961D02*
X112389159Y-63672200D01*
X112389159Y-63672200D02*
X112293921Y-63719819D01*
X112293921Y-63719819D02*
X112103445Y-63719819D01*
X112103445Y-63719819D02*
X112008207Y-63672200D01*
X112008207Y-63672200D02*
X111912969Y-63576961D01*
X111912969Y-63576961D02*
X111865350Y-63386485D01*
X111865350Y-63386485D02*
X111865350Y-63053152D01*
X111865350Y-63053152D02*
X111912969Y-62862676D01*
X111912969Y-62862676D02*
X112008207Y-62767438D01*
X112008207Y-62767438D02*
X112103445Y-62719819D01*
X113484397Y-63719819D02*
X112912969Y-63719819D01*
X113198683Y-63719819D02*
X113198683Y-62719819D01*
X113198683Y-62719819D02*
X113103445Y-62862676D01*
X113103445Y-62862676D02*
X113008207Y-62957914D01*
X113008207Y-62957914D02*
X112912969Y-63005533D01*
X113817731Y-62719819D02*
X114436778Y-62719819D01*
X114436778Y-62719819D02*
X114103445Y-63100771D01*
X114103445Y-63100771D02*
X114246302Y-63100771D01*
X114246302Y-63100771D02*
X114341540Y-63148390D01*
X114341540Y-63148390D02*
X114389159Y-63196009D01*
X114389159Y-63196009D02*
X114436778Y-63291247D01*
X114436778Y-63291247D02*
X114436778Y-63529342D01*
X114436778Y-63529342D02*
X114389159Y-63624580D01*
X114389159Y-63624580D02*
X114341540Y-63672200D01*
X114341540Y-63672200D02*
X114246302Y-63719819D01*
X114246302Y-63719819D02*
X113960588Y-63719819D01*
X113960588Y-63719819D02*
X113865350Y-63672200D01*
X113865350Y-63672200D02*
X113817731Y-63624580D01*
X98432142Y-71754819D02*
X98098809Y-71278628D01*
X97860714Y-71754819D02*
X97860714Y-70754819D01*
X97860714Y-70754819D02*
X98241666Y-70754819D01*
X98241666Y-70754819D02*
X98336904Y-70802438D01*
X98336904Y-70802438D02*
X98384523Y-70850057D01*
X98384523Y-70850057D02*
X98432142Y-70945295D01*
X98432142Y-70945295D02*
X98432142Y-71088152D01*
X98432142Y-71088152D02*
X98384523Y-71183390D01*
X98384523Y-71183390D02*
X98336904Y-71231009D01*
X98336904Y-71231009D02*
X98241666Y-71278628D01*
X98241666Y-71278628D02*
X97860714Y-71278628D01*
X99384523Y-71754819D02*
X98813095Y-71754819D01*
X99098809Y-71754819D02*
X99098809Y-70754819D01*
X99098809Y-70754819D02*
X99003571Y-70897676D01*
X99003571Y-70897676D02*
X98908333Y-70992914D01*
X98908333Y-70992914D02*
X98813095Y-71040533D01*
X100003571Y-70754819D02*
X100098809Y-70754819D01*
X100098809Y-70754819D02*
X100194047Y-70802438D01*
X100194047Y-70802438D02*
X100241666Y-70850057D01*
X100241666Y-70850057D02*
X100289285Y-70945295D01*
X100289285Y-70945295D02*
X100336904Y-71135771D01*
X100336904Y-71135771D02*
X100336904Y-71373866D01*
X100336904Y-71373866D02*
X100289285Y-71564342D01*
X100289285Y-71564342D02*
X100241666Y-71659580D01*
X100241666Y-71659580D02*
X100194047Y-71707200D01*
X100194047Y-71707200D02*
X100098809Y-71754819D01*
X100098809Y-71754819D02*
X100003571Y-71754819D01*
X100003571Y-71754819D02*
X99908333Y-71707200D01*
X99908333Y-71707200D02*
X99860714Y-71659580D01*
X99860714Y-71659580D02*
X99813095Y-71564342D01*
X99813095Y-71564342D02*
X99765476Y-71373866D01*
X99765476Y-71373866D02*
X99765476Y-71135771D01*
X99765476Y-71135771D02*
X99813095Y-70945295D01*
X99813095Y-70945295D02*
X99860714Y-70850057D01*
X99860714Y-70850057D02*
X99908333Y-70802438D01*
X99908333Y-70802438D02*
X100003571Y-70754819D01*
X82229819Y-39866666D02*
X81753628Y-40199999D01*
X82229819Y-40438094D02*
X81229819Y-40438094D01*
X81229819Y-40438094D02*
X81229819Y-40057142D01*
X81229819Y-40057142D02*
X81277438Y-39961904D01*
X81277438Y-39961904D02*
X81325057Y-39914285D01*
X81325057Y-39914285D02*
X81420295Y-39866666D01*
X81420295Y-39866666D02*
X81563152Y-39866666D01*
X81563152Y-39866666D02*
X81658390Y-39914285D01*
X81658390Y-39914285D02*
X81706009Y-39961904D01*
X81706009Y-39961904D02*
X81753628Y-40057142D01*
X81753628Y-40057142D02*
X81753628Y-40438094D01*
X81229819Y-39533332D02*
X81229819Y-38866666D01*
X81229819Y-38866666D02*
X82229819Y-39295237D01*
X59704819Y-82333333D02*
X60419104Y-82333333D01*
X60419104Y-82333333D02*
X60561961Y-82380952D01*
X60561961Y-82380952D02*
X60657200Y-82476190D01*
X60657200Y-82476190D02*
X60704819Y-82619047D01*
X60704819Y-82619047D02*
X60704819Y-82714285D01*
X59800057Y-81904761D02*
X59752438Y-81857142D01*
X59752438Y-81857142D02*
X59704819Y-81761904D01*
X59704819Y-81761904D02*
X59704819Y-81523809D01*
X59704819Y-81523809D02*
X59752438Y-81428571D01*
X59752438Y-81428571D02*
X59800057Y-81380952D01*
X59800057Y-81380952D02*
X59895295Y-81333333D01*
X59895295Y-81333333D02*
X59990533Y-81333333D01*
X59990533Y-81333333D02*
X60133390Y-81380952D01*
X60133390Y-81380952D02*
X60704819Y-81952380D01*
X60704819Y-81952380D02*
X60704819Y-81333333D01*
X98829819Y-60642857D02*
X98353628Y-60976190D01*
X98829819Y-61214285D02*
X97829819Y-61214285D01*
X97829819Y-61214285D02*
X97829819Y-60833333D01*
X97829819Y-60833333D02*
X97877438Y-60738095D01*
X97877438Y-60738095D02*
X97925057Y-60690476D01*
X97925057Y-60690476D02*
X98020295Y-60642857D01*
X98020295Y-60642857D02*
X98163152Y-60642857D01*
X98163152Y-60642857D02*
X98258390Y-60690476D01*
X98258390Y-60690476D02*
X98306009Y-60738095D01*
X98306009Y-60738095D02*
X98353628Y-60833333D01*
X98353628Y-60833333D02*
X98353628Y-61214285D01*
X98829819Y-59690476D02*
X98829819Y-60261904D01*
X98829819Y-59976190D02*
X97829819Y-59976190D01*
X97829819Y-59976190D02*
X97972676Y-60071428D01*
X97972676Y-60071428D02*
X98067914Y-60166666D01*
X98067914Y-60166666D02*
X98115533Y-60261904D01*
X98258390Y-59119047D02*
X98210771Y-59214285D01*
X98210771Y-59214285D02*
X98163152Y-59261904D01*
X98163152Y-59261904D02*
X98067914Y-59309523D01*
X98067914Y-59309523D02*
X98020295Y-59309523D01*
X98020295Y-59309523D02*
X97925057Y-59261904D01*
X97925057Y-59261904D02*
X97877438Y-59214285D01*
X97877438Y-59214285D02*
X97829819Y-59119047D01*
X97829819Y-59119047D02*
X97829819Y-58928571D01*
X97829819Y-58928571D02*
X97877438Y-58833333D01*
X97877438Y-58833333D02*
X97925057Y-58785714D01*
X97925057Y-58785714D02*
X98020295Y-58738095D01*
X98020295Y-58738095D02*
X98067914Y-58738095D01*
X98067914Y-58738095D02*
X98163152Y-58785714D01*
X98163152Y-58785714D02*
X98210771Y-58833333D01*
X98210771Y-58833333D02*
X98258390Y-58928571D01*
X98258390Y-58928571D02*
X98258390Y-59119047D01*
X98258390Y-59119047D02*
X98306009Y-59214285D01*
X98306009Y-59214285D02*
X98353628Y-59261904D01*
X98353628Y-59261904D02*
X98448866Y-59309523D01*
X98448866Y-59309523D02*
X98639342Y-59309523D01*
X98639342Y-59309523D02*
X98734580Y-59261904D01*
X98734580Y-59261904D02*
X98782200Y-59214285D01*
X98782200Y-59214285D02*
X98829819Y-59119047D01*
X98829819Y-59119047D02*
X98829819Y-58928571D01*
X98829819Y-58928571D02*
X98782200Y-58833333D01*
X98782200Y-58833333D02*
X98734580Y-58785714D01*
X98734580Y-58785714D02*
X98639342Y-58738095D01*
X98639342Y-58738095D02*
X98448866Y-58738095D01*
X98448866Y-58738095D02*
X98353628Y-58785714D01*
X98353628Y-58785714D02*
X98306009Y-58833333D01*
X98306009Y-58833333D02*
X98258390Y-58928571D01*
X102179819Y-60692857D02*
X101703628Y-61026190D01*
X102179819Y-61264285D02*
X101179819Y-61264285D01*
X101179819Y-61264285D02*
X101179819Y-60883333D01*
X101179819Y-60883333D02*
X101227438Y-60788095D01*
X101227438Y-60788095D02*
X101275057Y-60740476D01*
X101275057Y-60740476D02*
X101370295Y-60692857D01*
X101370295Y-60692857D02*
X101513152Y-60692857D01*
X101513152Y-60692857D02*
X101608390Y-60740476D01*
X101608390Y-60740476D02*
X101656009Y-60788095D01*
X101656009Y-60788095D02*
X101703628Y-60883333D01*
X101703628Y-60883333D02*
X101703628Y-61264285D01*
X102179819Y-59740476D02*
X102179819Y-60311904D01*
X102179819Y-60026190D02*
X101179819Y-60026190D01*
X101179819Y-60026190D02*
X101322676Y-60121428D01*
X101322676Y-60121428D02*
X101417914Y-60216666D01*
X101417914Y-60216666D02*
X101465533Y-60311904D01*
X101179819Y-59407142D02*
X101179819Y-58740476D01*
X101179819Y-58740476D02*
X102179819Y-59169047D01*
X56570833Y-42634819D02*
X56237500Y-42158628D01*
X55999405Y-42634819D02*
X55999405Y-41634819D01*
X55999405Y-41634819D02*
X56380357Y-41634819D01*
X56380357Y-41634819D02*
X56475595Y-41682438D01*
X56475595Y-41682438D02*
X56523214Y-41730057D01*
X56523214Y-41730057D02*
X56570833Y-41825295D01*
X56570833Y-41825295D02*
X56570833Y-41968152D01*
X56570833Y-41968152D02*
X56523214Y-42063390D01*
X56523214Y-42063390D02*
X56475595Y-42111009D01*
X56475595Y-42111009D02*
X56380357Y-42158628D01*
X56380357Y-42158628D02*
X55999405Y-42158628D01*
X57427976Y-41968152D02*
X57427976Y-42634819D01*
X57189881Y-41587200D02*
X56951786Y-42301485D01*
X56951786Y-42301485D02*
X57570833Y-42301485D01*
X84466666Y-65979819D02*
X84466666Y-66694104D01*
X84466666Y-66694104D02*
X84419047Y-66836961D01*
X84419047Y-66836961D02*
X84323809Y-66932200D01*
X84323809Y-66932200D02*
X84180952Y-66979819D01*
X84180952Y-66979819D02*
X84085714Y-66979819D01*
X84942857Y-66979819D02*
X84942857Y-65979819D01*
X84942857Y-65979819D02*
X85323809Y-65979819D01*
X85323809Y-65979819D02*
X85419047Y-66027438D01*
X85419047Y-66027438D02*
X85466666Y-66075057D01*
X85466666Y-66075057D02*
X85514285Y-66170295D01*
X85514285Y-66170295D02*
X85514285Y-66313152D01*
X85514285Y-66313152D02*
X85466666Y-66408390D01*
X85466666Y-66408390D02*
X85419047Y-66456009D01*
X85419047Y-66456009D02*
X85323809Y-66503628D01*
X85323809Y-66503628D02*
X84942857Y-66503628D01*
X86466666Y-66979819D02*
X85895238Y-66979819D01*
X86180952Y-66979819D02*
X86180952Y-65979819D01*
X86180952Y-65979819D02*
X86085714Y-66122676D01*
X86085714Y-66122676D02*
X85990476Y-66217914D01*
X85990476Y-66217914D02*
X85895238Y-66265533D01*
X89660714Y-65204819D02*
X89089286Y-65204819D01*
X89375000Y-65204819D02*
X89375000Y-64204819D01*
X89375000Y-64204819D02*
X89279762Y-64347676D01*
X89279762Y-64347676D02*
X89184524Y-64442914D01*
X89184524Y-64442914D02*
X89089286Y-64490533D01*
X82291667Y-64204819D02*
X82910714Y-64204819D01*
X82910714Y-64204819D02*
X82577381Y-64585771D01*
X82577381Y-64585771D02*
X82720238Y-64585771D01*
X82720238Y-64585771D02*
X82815476Y-64633390D01*
X82815476Y-64633390D02*
X82863095Y-64681009D01*
X82863095Y-64681009D02*
X82910714Y-64776247D01*
X82910714Y-64776247D02*
X82910714Y-65014342D01*
X82910714Y-65014342D02*
X82863095Y-65109580D01*
X82863095Y-65109580D02*
X82815476Y-65157200D01*
X82815476Y-65157200D02*
X82720238Y-65204819D01*
X82720238Y-65204819D02*
X82434524Y-65204819D01*
X82434524Y-65204819D02*
X82339286Y-65157200D01*
X82339286Y-65157200D02*
X82291667Y-65109580D01*
X66379819Y-54542857D02*
X65903628Y-54876190D01*
X66379819Y-55114285D02*
X65379819Y-55114285D01*
X65379819Y-55114285D02*
X65379819Y-54733333D01*
X65379819Y-54733333D02*
X65427438Y-54638095D01*
X65427438Y-54638095D02*
X65475057Y-54590476D01*
X65475057Y-54590476D02*
X65570295Y-54542857D01*
X65570295Y-54542857D02*
X65713152Y-54542857D01*
X65713152Y-54542857D02*
X65808390Y-54590476D01*
X65808390Y-54590476D02*
X65856009Y-54638095D01*
X65856009Y-54638095D02*
X65903628Y-54733333D01*
X65903628Y-54733333D02*
X65903628Y-55114285D01*
X66379819Y-53590476D02*
X66379819Y-54161904D01*
X66379819Y-53876190D02*
X65379819Y-53876190D01*
X65379819Y-53876190D02*
X65522676Y-53971428D01*
X65522676Y-53971428D02*
X65617914Y-54066666D01*
X65617914Y-54066666D02*
X65665533Y-54161904D01*
X66379819Y-52638095D02*
X66379819Y-53209523D01*
X66379819Y-52923809D02*
X65379819Y-52923809D01*
X65379819Y-52923809D02*
X65522676Y-53019047D01*
X65522676Y-53019047D02*
X65617914Y-53114285D01*
X65617914Y-53114285D02*
X65665533Y-53209523D01*
X79608333Y-74992319D02*
X79275000Y-74516128D01*
X79036905Y-74992319D02*
X79036905Y-73992319D01*
X79036905Y-73992319D02*
X79417857Y-73992319D01*
X79417857Y-73992319D02*
X79513095Y-74039938D01*
X79513095Y-74039938D02*
X79560714Y-74087557D01*
X79560714Y-74087557D02*
X79608333Y-74182795D01*
X79608333Y-74182795D02*
X79608333Y-74325652D01*
X79608333Y-74325652D02*
X79560714Y-74420890D01*
X79560714Y-74420890D02*
X79513095Y-74468509D01*
X79513095Y-74468509D02*
X79417857Y-74516128D01*
X79417857Y-74516128D02*
X79036905Y-74516128D01*
X79989286Y-74087557D02*
X80036905Y-74039938D01*
X80036905Y-74039938D02*
X80132143Y-73992319D01*
X80132143Y-73992319D02*
X80370238Y-73992319D01*
X80370238Y-73992319D02*
X80465476Y-74039938D01*
X80465476Y-74039938D02*
X80513095Y-74087557D01*
X80513095Y-74087557D02*
X80560714Y-74182795D01*
X80560714Y-74182795D02*
X80560714Y-74278033D01*
X80560714Y-74278033D02*
X80513095Y-74420890D01*
X80513095Y-74420890D02*
X79941667Y-74992319D01*
X79941667Y-74992319D02*
X80560714Y-74992319D01*
X60558333Y-57209580D02*
X60510714Y-57257200D01*
X60510714Y-57257200D02*
X60367857Y-57304819D01*
X60367857Y-57304819D02*
X60272619Y-57304819D01*
X60272619Y-57304819D02*
X60129762Y-57257200D01*
X60129762Y-57257200D02*
X60034524Y-57161961D01*
X60034524Y-57161961D02*
X59986905Y-57066723D01*
X59986905Y-57066723D02*
X59939286Y-56876247D01*
X59939286Y-56876247D02*
X59939286Y-56733390D01*
X59939286Y-56733390D02*
X59986905Y-56542914D01*
X59986905Y-56542914D02*
X60034524Y-56447676D01*
X60034524Y-56447676D02*
X60129762Y-56352438D01*
X60129762Y-56352438D02*
X60272619Y-56304819D01*
X60272619Y-56304819D02*
X60367857Y-56304819D01*
X60367857Y-56304819D02*
X60510714Y-56352438D01*
X60510714Y-56352438D02*
X60558333Y-56400057D01*
X61034524Y-57304819D02*
X61225000Y-57304819D01*
X61225000Y-57304819D02*
X61320238Y-57257200D01*
X61320238Y-57257200D02*
X61367857Y-57209580D01*
X61367857Y-57209580D02*
X61463095Y-57066723D01*
X61463095Y-57066723D02*
X61510714Y-56876247D01*
X61510714Y-56876247D02*
X61510714Y-56495295D01*
X61510714Y-56495295D02*
X61463095Y-56400057D01*
X61463095Y-56400057D02*
X61415476Y-56352438D01*
X61415476Y-56352438D02*
X61320238Y-56304819D01*
X61320238Y-56304819D02*
X61129762Y-56304819D01*
X61129762Y-56304819D02*
X61034524Y-56352438D01*
X61034524Y-56352438D02*
X60986905Y-56400057D01*
X60986905Y-56400057D02*
X60939286Y-56495295D01*
X60939286Y-56495295D02*
X60939286Y-56733390D01*
X60939286Y-56733390D02*
X60986905Y-56828628D01*
X60986905Y-56828628D02*
X61034524Y-56876247D01*
X61034524Y-56876247D02*
X61129762Y-56923866D01*
X61129762Y-56923866D02*
X61320238Y-56923866D01*
X61320238Y-56923866D02*
X61415476Y-56876247D01*
X61415476Y-56876247D02*
X61463095Y-56828628D01*
X61463095Y-56828628D02*
X61510714Y-56733390D01*
X82938095Y-68417319D02*
X82938095Y-69226842D01*
X82938095Y-69226842D02*
X82985714Y-69322080D01*
X82985714Y-69322080D02*
X83033333Y-69369700D01*
X83033333Y-69369700D02*
X83128571Y-69417319D01*
X83128571Y-69417319D02*
X83319047Y-69417319D01*
X83319047Y-69417319D02*
X83414285Y-69369700D01*
X83414285Y-69369700D02*
X83461904Y-69322080D01*
X83461904Y-69322080D02*
X83509523Y-69226842D01*
X83509523Y-69226842D02*
X83509523Y-68417319D01*
X84414285Y-68750652D02*
X84414285Y-69417319D01*
X84176190Y-68369700D02*
X83938095Y-69083985D01*
X83938095Y-69083985D02*
X84557142Y-69083985D01*
X51041666Y-39174819D02*
X51041666Y-39889104D01*
X51041666Y-39889104D02*
X50994047Y-40031961D01*
X50994047Y-40031961D02*
X50898809Y-40127200D01*
X50898809Y-40127200D02*
X50755952Y-40174819D01*
X50755952Y-40174819D02*
X50660714Y-40174819D01*
X51422619Y-39174819D02*
X52041666Y-39174819D01*
X52041666Y-39174819D02*
X51708333Y-39555771D01*
X51708333Y-39555771D02*
X51851190Y-39555771D01*
X51851190Y-39555771D02*
X51946428Y-39603390D01*
X51946428Y-39603390D02*
X51994047Y-39651009D01*
X51994047Y-39651009D02*
X52041666Y-39746247D01*
X52041666Y-39746247D02*
X52041666Y-39984342D01*
X52041666Y-39984342D02*
X51994047Y-40079580D01*
X51994047Y-40079580D02*
X51946428Y-40127200D01*
X51946428Y-40127200D02*
X51851190Y-40174819D01*
X51851190Y-40174819D02*
X51565476Y-40174819D01*
X51565476Y-40174819D02*
X51470238Y-40127200D01*
X51470238Y-40127200D02*
X51422619Y-40079580D01*
X69542319Y-66261904D02*
X70351842Y-66261904D01*
X70351842Y-66261904D02*
X70447080Y-66214285D01*
X70447080Y-66214285D02*
X70494700Y-66166666D01*
X70494700Y-66166666D02*
X70542319Y-66071428D01*
X70542319Y-66071428D02*
X70542319Y-65880952D01*
X70542319Y-65880952D02*
X70494700Y-65785714D01*
X70494700Y-65785714D02*
X70447080Y-65738095D01*
X70447080Y-65738095D02*
X70351842Y-65690476D01*
X70351842Y-65690476D02*
X69542319Y-65690476D01*
X69637557Y-65261904D02*
X69589938Y-65214285D01*
X69589938Y-65214285D02*
X69542319Y-65119047D01*
X69542319Y-65119047D02*
X69542319Y-64880952D01*
X69542319Y-64880952D02*
X69589938Y-64785714D01*
X69589938Y-64785714D02*
X69637557Y-64738095D01*
X69637557Y-64738095D02*
X69732795Y-64690476D01*
X69732795Y-64690476D02*
X69828033Y-64690476D01*
X69828033Y-64690476D02*
X69970890Y-64738095D01*
X69970890Y-64738095D02*
X70542319Y-65309523D01*
X70542319Y-65309523D02*
X70542319Y-64690476D01*
X76683333Y-51054819D02*
X76350000Y-50578628D01*
X76111905Y-51054819D02*
X76111905Y-50054819D01*
X76111905Y-50054819D02*
X76492857Y-50054819D01*
X76492857Y-50054819D02*
X76588095Y-50102438D01*
X76588095Y-50102438D02*
X76635714Y-50150057D01*
X76635714Y-50150057D02*
X76683333Y-50245295D01*
X76683333Y-50245295D02*
X76683333Y-50388152D01*
X76683333Y-50388152D02*
X76635714Y-50483390D01*
X76635714Y-50483390D02*
X76588095Y-50531009D01*
X76588095Y-50531009D02*
X76492857Y-50578628D01*
X76492857Y-50578628D02*
X76111905Y-50578628D01*
X77588095Y-50054819D02*
X77111905Y-50054819D01*
X77111905Y-50054819D02*
X77064286Y-50531009D01*
X77064286Y-50531009D02*
X77111905Y-50483390D01*
X77111905Y-50483390D02*
X77207143Y-50435771D01*
X77207143Y-50435771D02*
X77445238Y-50435771D01*
X77445238Y-50435771D02*
X77540476Y-50483390D01*
X77540476Y-50483390D02*
X77588095Y-50531009D01*
X77588095Y-50531009D02*
X77635714Y-50626247D01*
X77635714Y-50626247D02*
X77635714Y-50864342D01*
X77635714Y-50864342D02*
X77588095Y-50959580D01*
X77588095Y-50959580D02*
X77540476Y-51007200D01*
X77540476Y-51007200D02*
X77445238Y-51054819D01*
X77445238Y-51054819D02*
X77207143Y-51054819D01*
X77207143Y-51054819D02*
X77111905Y-51007200D01*
X77111905Y-51007200D02*
X77064286Y-50959580D01*
X59258333Y-35509580D02*
X59210714Y-35557200D01*
X59210714Y-35557200D02*
X59067857Y-35604819D01*
X59067857Y-35604819D02*
X58972619Y-35604819D01*
X58972619Y-35604819D02*
X58829762Y-35557200D01*
X58829762Y-35557200D02*
X58734524Y-35461961D01*
X58734524Y-35461961D02*
X58686905Y-35366723D01*
X58686905Y-35366723D02*
X58639286Y-35176247D01*
X58639286Y-35176247D02*
X58639286Y-35033390D01*
X58639286Y-35033390D02*
X58686905Y-34842914D01*
X58686905Y-34842914D02*
X58734524Y-34747676D01*
X58734524Y-34747676D02*
X58829762Y-34652438D01*
X58829762Y-34652438D02*
X58972619Y-34604819D01*
X58972619Y-34604819D02*
X59067857Y-34604819D01*
X59067857Y-34604819D02*
X59210714Y-34652438D01*
X59210714Y-34652438D02*
X59258333Y-34700057D01*
X60163095Y-34604819D02*
X59686905Y-34604819D01*
X59686905Y-34604819D02*
X59639286Y-35081009D01*
X59639286Y-35081009D02*
X59686905Y-35033390D01*
X59686905Y-35033390D02*
X59782143Y-34985771D01*
X59782143Y-34985771D02*
X60020238Y-34985771D01*
X60020238Y-34985771D02*
X60115476Y-35033390D01*
X60115476Y-35033390D02*
X60163095Y-35081009D01*
X60163095Y-35081009D02*
X60210714Y-35176247D01*
X60210714Y-35176247D02*
X60210714Y-35414342D01*
X60210714Y-35414342D02*
X60163095Y-35509580D01*
X60163095Y-35509580D02*
X60115476Y-35557200D01*
X60115476Y-35557200D02*
X60020238Y-35604819D01*
X60020238Y-35604819D02*
X59782143Y-35604819D01*
X59782143Y-35604819D02*
X59686905Y-35557200D01*
X59686905Y-35557200D02*
X59639286Y-35509580D01*
D11*
X92057380Y-39204318D02*
X92057380Y-40232413D01*
X92057380Y-40232413D02*
X92117857Y-40353365D01*
X92117857Y-40353365D02*
X92178333Y-40413842D01*
X92178333Y-40413842D02*
X92299285Y-40474318D01*
X92299285Y-40474318D02*
X92541190Y-40474318D01*
X92541190Y-40474318D02*
X92662142Y-40413842D01*
X92662142Y-40413842D02*
X92722619Y-40353365D01*
X92722619Y-40353365D02*
X92783095Y-40232413D01*
X92783095Y-40232413D02*
X92783095Y-39204318D01*
X94053095Y-40474318D02*
X93327380Y-40474318D01*
X93690237Y-40474318D02*
X93690237Y-39204318D01*
X93690237Y-39204318D02*
X93569285Y-39385746D01*
X93569285Y-39385746D02*
X93448333Y-39506699D01*
X93448333Y-39506699D02*
X93327380Y-39567175D01*
D10*
X60182142Y-53889580D02*
X60134523Y-53937200D01*
X60134523Y-53937200D02*
X59991666Y-53984819D01*
X59991666Y-53984819D02*
X59896428Y-53984819D01*
X59896428Y-53984819D02*
X59753571Y-53937200D01*
X59753571Y-53937200D02*
X59658333Y-53841961D01*
X59658333Y-53841961D02*
X59610714Y-53746723D01*
X59610714Y-53746723D02*
X59563095Y-53556247D01*
X59563095Y-53556247D02*
X59563095Y-53413390D01*
X59563095Y-53413390D02*
X59610714Y-53222914D01*
X59610714Y-53222914D02*
X59658333Y-53127676D01*
X59658333Y-53127676D02*
X59753571Y-53032438D01*
X59753571Y-53032438D02*
X59896428Y-52984819D01*
X59896428Y-52984819D02*
X59991666Y-52984819D01*
X59991666Y-52984819D02*
X60134523Y-53032438D01*
X60134523Y-53032438D02*
X60182142Y-53080057D01*
X61134523Y-53984819D02*
X60563095Y-53984819D01*
X60848809Y-53984819D02*
X60848809Y-52984819D01*
X60848809Y-52984819D02*
X60753571Y-53127676D01*
X60753571Y-53127676D02*
X60658333Y-53222914D01*
X60658333Y-53222914D02*
X60563095Y-53270533D01*
X62086904Y-53984819D02*
X61515476Y-53984819D01*
X61801190Y-53984819D02*
X61801190Y-52984819D01*
X61801190Y-52984819D02*
X61705952Y-53127676D01*
X61705952Y-53127676D02*
X61610714Y-53222914D01*
X61610714Y-53222914D02*
X61515476Y-53270533D01*
X83416666Y-73874819D02*
X83416666Y-74589104D01*
X83416666Y-74589104D02*
X83369047Y-74731961D01*
X83369047Y-74731961D02*
X83273809Y-74827200D01*
X83273809Y-74827200D02*
X83130952Y-74874819D01*
X83130952Y-74874819D02*
X83035714Y-74874819D01*
X84416666Y-74874819D02*
X83845238Y-74874819D01*
X84130952Y-74874819D02*
X84130952Y-73874819D01*
X84130952Y-73874819D02*
X84035714Y-74017676D01*
X84035714Y-74017676D02*
X83940476Y-74112914D01*
X83940476Y-74112914D02*
X83845238Y-74160533D01*
X75359580Y-65766666D02*
X75407200Y-65814285D01*
X75407200Y-65814285D02*
X75454819Y-65957142D01*
X75454819Y-65957142D02*
X75454819Y-66052380D01*
X75454819Y-66052380D02*
X75407200Y-66195237D01*
X75407200Y-66195237D02*
X75311961Y-66290475D01*
X75311961Y-66290475D02*
X75216723Y-66338094D01*
X75216723Y-66338094D02*
X75026247Y-66385713D01*
X75026247Y-66385713D02*
X74883390Y-66385713D01*
X74883390Y-66385713D02*
X74692914Y-66338094D01*
X74692914Y-66338094D02*
X74597676Y-66290475D01*
X74597676Y-66290475D02*
X74502438Y-66195237D01*
X74502438Y-66195237D02*
X74454819Y-66052380D01*
X74454819Y-66052380D02*
X74454819Y-65957142D01*
X74454819Y-65957142D02*
X74502438Y-65814285D01*
X74502438Y-65814285D02*
X74550057Y-65766666D01*
X75454819Y-64814285D02*
X75454819Y-65385713D01*
X75454819Y-65099999D02*
X74454819Y-65099999D01*
X74454819Y-65099999D02*
X74597676Y-65195237D01*
X74597676Y-65195237D02*
X74692914Y-65290475D01*
X74692914Y-65290475D02*
X74740533Y-65385713D01*
X74609580Y-60692857D02*
X74657200Y-60740476D01*
X74657200Y-60740476D02*
X74704819Y-60883333D01*
X74704819Y-60883333D02*
X74704819Y-60978571D01*
X74704819Y-60978571D02*
X74657200Y-61121428D01*
X74657200Y-61121428D02*
X74561961Y-61216666D01*
X74561961Y-61216666D02*
X74466723Y-61264285D01*
X74466723Y-61264285D02*
X74276247Y-61311904D01*
X74276247Y-61311904D02*
X74133390Y-61311904D01*
X74133390Y-61311904D02*
X73942914Y-61264285D01*
X73942914Y-61264285D02*
X73847676Y-61216666D01*
X73847676Y-61216666D02*
X73752438Y-61121428D01*
X73752438Y-61121428D02*
X73704819Y-60978571D01*
X73704819Y-60978571D02*
X73704819Y-60883333D01*
X73704819Y-60883333D02*
X73752438Y-60740476D01*
X73752438Y-60740476D02*
X73800057Y-60692857D01*
X73800057Y-60311904D02*
X73752438Y-60264285D01*
X73752438Y-60264285D02*
X73704819Y-60169047D01*
X73704819Y-60169047D02*
X73704819Y-59930952D01*
X73704819Y-59930952D02*
X73752438Y-59835714D01*
X73752438Y-59835714D02*
X73800057Y-59788095D01*
X73800057Y-59788095D02*
X73895295Y-59740476D01*
X73895295Y-59740476D02*
X73990533Y-59740476D01*
X73990533Y-59740476D02*
X74133390Y-59788095D01*
X74133390Y-59788095D02*
X74704819Y-60359523D01*
X74704819Y-60359523D02*
X74704819Y-59740476D01*
X73800057Y-59359523D02*
X73752438Y-59311904D01*
X73752438Y-59311904D02*
X73704819Y-59216666D01*
X73704819Y-59216666D02*
X73704819Y-58978571D01*
X73704819Y-58978571D02*
X73752438Y-58883333D01*
X73752438Y-58883333D02*
X73800057Y-58835714D01*
X73800057Y-58835714D02*
X73895295Y-58788095D01*
X73895295Y-58788095D02*
X73990533Y-58788095D01*
X73990533Y-58788095D02*
X74133390Y-58835714D01*
X74133390Y-58835714D02*
X74704819Y-59407142D01*
X74704819Y-59407142D02*
X74704819Y-58788095D01*
X72986905Y-69454819D02*
X72986905Y-68454819D01*
X72986905Y-68454819D02*
X73225000Y-68454819D01*
X73225000Y-68454819D02*
X73367857Y-68502438D01*
X73367857Y-68502438D02*
X73463095Y-68597676D01*
X73463095Y-68597676D02*
X73510714Y-68692914D01*
X73510714Y-68692914D02*
X73558333Y-68883390D01*
X73558333Y-68883390D02*
X73558333Y-69026247D01*
X73558333Y-69026247D02*
X73510714Y-69216723D01*
X73510714Y-69216723D02*
X73463095Y-69311961D01*
X73463095Y-69311961D02*
X73367857Y-69407200D01*
X73367857Y-69407200D02*
X73225000Y-69454819D01*
X73225000Y-69454819D02*
X72986905Y-69454819D01*
X74510714Y-69454819D02*
X73939286Y-69454819D01*
X74225000Y-69454819D02*
X74225000Y-68454819D01*
X74225000Y-68454819D02*
X74129762Y-68597676D01*
X74129762Y-68597676D02*
X74034524Y-68692914D01*
X74034524Y-68692914D02*
X73939286Y-68740533D01*
X73032142Y-41159580D02*
X72984523Y-41207200D01*
X72984523Y-41207200D02*
X72841666Y-41254819D01*
X72841666Y-41254819D02*
X72746428Y-41254819D01*
X72746428Y-41254819D02*
X72603571Y-41207200D01*
X72603571Y-41207200D02*
X72508333Y-41111961D01*
X72508333Y-41111961D02*
X72460714Y-41016723D01*
X72460714Y-41016723D02*
X72413095Y-40826247D01*
X72413095Y-40826247D02*
X72413095Y-40683390D01*
X72413095Y-40683390D02*
X72460714Y-40492914D01*
X72460714Y-40492914D02*
X72508333Y-40397676D01*
X72508333Y-40397676D02*
X72603571Y-40302438D01*
X72603571Y-40302438D02*
X72746428Y-40254819D01*
X72746428Y-40254819D02*
X72841666Y-40254819D01*
X72841666Y-40254819D02*
X72984523Y-40302438D01*
X72984523Y-40302438D02*
X73032142Y-40350057D01*
X73984523Y-41254819D02*
X73413095Y-41254819D01*
X73698809Y-41254819D02*
X73698809Y-40254819D01*
X73698809Y-40254819D02*
X73603571Y-40397676D01*
X73603571Y-40397676D02*
X73508333Y-40492914D01*
X73508333Y-40492914D02*
X73413095Y-40540533D01*
X74841666Y-40588152D02*
X74841666Y-41254819D01*
X74603571Y-40207200D02*
X74365476Y-40921485D01*
X74365476Y-40921485D02*
X74984523Y-40921485D01*
X88129819Y-60316666D02*
X87653628Y-60649999D01*
X88129819Y-60888094D02*
X87129819Y-60888094D01*
X87129819Y-60888094D02*
X87129819Y-60507142D01*
X87129819Y-60507142D02*
X87177438Y-60411904D01*
X87177438Y-60411904D02*
X87225057Y-60364285D01*
X87225057Y-60364285D02*
X87320295Y-60316666D01*
X87320295Y-60316666D02*
X87463152Y-60316666D01*
X87463152Y-60316666D02*
X87558390Y-60364285D01*
X87558390Y-60364285D02*
X87606009Y-60411904D01*
X87606009Y-60411904D02*
X87653628Y-60507142D01*
X87653628Y-60507142D02*
X87653628Y-60888094D01*
X87558390Y-59745237D02*
X87510771Y-59840475D01*
X87510771Y-59840475D02*
X87463152Y-59888094D01*
X87463152Y-59888094D02*
X87367914Y-59935713D01*
X87367914Y-59935713D02*
X87320295Y-59935713D01*
X87320295Y-59935713D02*
X87225057Y-59888094D01*
X87225057Y-59888094D02*
X87177438Y-59840475D01*
X87177438Y-59840475D02*
X87129819Y-59745237D01*
X87129819Y-59745237D02*
X87129819Y-59554761D01*
X87129819Y-59554761D02*
X87177438Y-59459523D01*
X87177438Y-59459523D02*
X87225057Y-59411904D01*
X87225057Y-59411904D02*
X87320295Y-59364285D01*
X87320295Y-59364285D02*
X87367914Y-59364285D01*
X87367914Y-59364285D02*
X87463152Y-59411904D01*
X87463152Y-59411904D02*
X87510771Y-59459523D01*
X87510771Y-59459523D02*
X87558390Y-59554761D01*
X87558390Y-59554761D02*
X87558390Y-59745237D01*
X87558390Y-59745237D02*
X87606009Y-59840475D01*
X87606009Y-59840475D02*
X87653628Y-59888094D01*
X87653628Y-59888094D02*
X87748866Y-59935713D01*
X87748866Y-59935713D02*
X87939342Y-59935713D01*
X87939342Y-59935713D02*
X88034580Y-59888094D01*
X88034580Y-59888094D02*
X88082200Y-59840475D01*
X88082200Y-59840475D02*
X88129819Y-59745237D01*
X88129819Y-59745237D02*
X88129819Y-59554761D01*
X88129819Y-59554761D02*
X88082200Y-59459523D01*
X88082200Y-59459523D02*
X88034580Y-59411904D01*
X88034580Y-59411904D02*
X87939342Y-59364285D01*
X87939342Y-59364285D02*
X87748866Y-59364285D01*
X87748866Y-59364285D02*
X87653628Y-59411904D01*
X87653628Y-59411904D02*
X87606009Y-59459523D01*
X87606009Y-59459523D02*
X87558390Y-59554761D01*
X94604819Y-82333333D02*
X95319104Y-82333333D01*
X95319104Y-82333333D02*
X95461961Y-82380952D01*
X95461961Y-82380952D02*
X95557200Y-82476190D01*
X95557200Y-82476190D02*
X95604819Y-82619047D01*
X95604819Y-82619047D02*
X95604819Y-82714285D01*
X94604819Y-81380952D02*
X94604819Y-81857142D01*
X94604819Y-81857142D02*
X95081009Y-81904761D01*
X95081009Y-81904761D02*
X95033390Y-81857142D01*
X95033390Y-81857142D02*
X94985771Y-81761904D01*
X94985771Y-81761904D02*
X94985771Y-81523809D01*
X94985771Y-81523809D02*
X95033390Y-81428571D01*
X95033390Y-81428571D02*
X95081009Y-81380952D01*
X95081009Y-81380952D02*
X95176247Y-81333333D01*
X95176247Y-81333333D02*
X95414342Y-81333333D01*
X95414342Y-81333333D02*
X95509580Y-81380952D01*
X95509580Y-81380952D02*
X95557200Y-81428571D01*
X95557200Y-81428571D02*
X95604819Y-81523809D01*
X95604819Y-81523809D02*
X95604819Y-81761904D01*
X95604819Y-81761904D02*
X95557200Y-81857142D01*
X95557200Y-81857142D02*
X95509580Y-81904761D01*
X70908333Y-54989580D02*
X70860714Y-55037200D01*
X70860714Y-55037200D02*
X70717857Y-55084819D01*
X70717857Y-55084819D02*
X70622619Y-55084819D01*
X70622619Y-55084819D02*
X70479762Y-55037200D01*
X70479762Y-55037200D02*
X70384524Y-54941961D01*
X70384524Y-54941961D02*
X70336905Y-54846723D01*
X70336905Y-54846723D02*
X70289286Y-54656247D01*
X70289286Y-54656247D02*
X70289286Y-54513390D01*
X70289286Y-54513390D02*
X70336905Y-54322914D01*
X70336905Y-54322914D02*
X70384524Y-54227676D01*
X70384524Y-54227676D02*
X70479762Y-54132438D01*
X70479762Y-54132438D02*
X70622619Y-54084819D01*
X70622619Y-54084819D02*
X70717857Y-54084819D01*
X70717857Y-54084819D02*
X70860714Y-54132438D01*
X70860714Y-54132438D02*
X70908333Y-54180057D01*
X71241667Y-54084819D02*
X71908333Y-54084819D01*
X71908333Y-54084819D02*
X71479762Y-55084819D01*
X59308333Y-38979580D02*
X59260714Y-39027200D01*
X59260714Y-39027200D02*
X59117857Y-39074819D01*
X59117857Y-39074819D02*
X59022619Y-39074819D01*
X59022619Y-39074819D02*
X58879762Y-39027200D01*
X58879762Y-39027200D02*
X58784524Y-38931961D01*
X58784524Y-38931961D02*
X58736905Y-38836723D01*
X58736905Y-38836723D02*
X58689286Y-38646247D01*
X58689286Y-38646247D02*
X58689286Y-38503390D01*
X58689286Y-38503390D02*
X58736905Y-38312914D01*
X58736905Y-38312914D02*
X58784524Y-38217676D01*
X58784524Y-38217676D02*
X58879762Y-38122438D01*
X58879762Y-38122438D02*
X59022619Y-38074819D01*
X59022619Y-38074819D02*
X59117857Y-38074819D01*
X59117857Y-38074819D02*
X59260714Y-38122438D01*
X59260714Y-38122438D02*
X59308333Y-38170057D01*
X60165476Y-38074819D02*
X59975000Y-38074819D01*
X59975000Y-38074819D02*
X59879762Y-38122438D01*
X59879762Y-38122438D02*
X59832143Y-38170057D01*
X59832143Y-38170057D02*
X59736905Y-38312914D01*
X59736905Y-38312914D02*
X59689286Y-38503390D01*
X59689286Y-38503390D02*
X59689286Y-38884342D01*
X59689286Y-38884342D02*
X59736905Y-38979580D01*
X59736905Y-38979580D02*
X59784524Y-39027200D01*
X59784524Y-39027200D02*
X59879762Y-39074819D01*
X59879762Y-39074819D02*
X60070238Y-39074819D01*
X60070238Y-39074819D02*
X60165476Y-39027200D01*
X60165476Y-39027200D02*
X60213095Y-38979580D01*
X60213095Y-38979580D02*
X60260714Y-38884342D01*
X60260714Y-38884342D02*
X60260714Y-38646247D01*
X60260714Y-38646247D02*
X60213095Y-38551009D01*
X60213095Y-38551009D02*
X60165476Y-38503390D01*
X60165476Y-38503390D02*
X60070238Y-38455771D01*
X60070238Y-38455771D02*
X59879762Y-38455771D01*
X59879762Y-38455771D02*
X59784524Y-38503390D01*
X59784524Y-38503390D02*
X59736905Y-38551009D01*
X59736905Y-38551009D02*
X59689286Y-38646247D01*
X60182142Y-50879580D02*
X60134523Y-50927200D01*
X60134523Y-50927200D02*
X59991666Y-50974819D01*
X59991666Y-50974819D02*
X59896428Y-50974819D01*
X59896428Y-50974819D02*
X59753571Y-50927200D01*
X59753571Y-50927200D02*
X59658333Y-50831961D01*
X59658333Y-50831961D02*
X59610714Y-50736723D01*
X59610714Y-50736723D02*
X59563095Y-50546247D01*
X59563095Y-50546247D02*
X59563095Y-50403390D01*
X59563095Y-50403390D02*
X59610714Y-50212914D01*
X59610714Y-50212914D02*
X59658333Y-50117676D01*
X59658333Y-50117676D02*
X59753571Y-50022438D01*
X59753571Y-50022438D02*
X59896428Y-49974819D01*
X59896428Y-49974819D02*
X59991666Y-49974819D01*
X59991666Y-49974819D02*
X60134523Y-50022438D01*
X60134523Y-50022438D02*
X60182142Y-50070057D01*
X61134523Y-50974819D02*
X60563095Y-50974819D01*
X60848809Y-50974819D02*
X60848809Y-49974819D01*
X60848809Y-49974819D02*
X60753571Y-50117676D01*
X60753571Y-50117676D02*
X60658333Y-50212914D01*
X60658333Y-50212914D02*
X60563095Y-50260533D01*
X61753571Y-49974819D02*
X61848809Y-49974819D01*
X61848809Y-49974819D02*
X61944047Y-50022438D01*
X61944047Y-50022438D02*
X61991666Y-50070057D01*
X61991666Y-50070057D02*
X62039285Y-50165295D01*
X62039285Y-50165295D02*
X62086904Y-50355771D01*
X62086904Y-50355771D02*
X62086904Y-50593866D01*
X62086904Y-50593866D02*
X62039285Y-50784342D01*
X62039285Y-50784342D02*
X61991666Y-50879580D01*
X61991666Y-50879580D02*
X61944047Y-50927200D01*
X61944047Y-50927200D02*
X61848809Y-50974819D01*
X61848809Y-50974819D02*
X61753571Y-50974819D01*
X61753571Y-50974819D02*
X61658333Y-50927200D01*
X61658333Y-50927200D02*
X61610714Y-50879580D01*
X61610714Y-50879580D02*
X61563095Y-50784342D01*
X61563095Y-50784342D02*
X61515476Y-50593866D01*
X61515476Y-50593866D02*
X61515476Y-50355771D01*
X61515476Y-50355771D02*
X61563095Y-50165295D01*
X61563095Y-50165295D02*
X61610714Y-50070057D01*
X61610714Y-50070057D02*
X61658333Y-50022438D01*
X61658333Y-50022438D02*
X61753571Y-49974819D01*
X76733333Y-48804819D02*
X76400000Y-48328628D01*
X76161905Y-48804819D02*
X76161905Y-47804819D01*
X76161905Y-47804819D02*
X76542857Y-47804819D01*
X76542857Y-47804819D02*
X76638095Y-47852438D01*
X76638095Y-47852438D02*
X76685714Y-47900057D01*
X76685714Y-47900057D02*
X76733333Y-47995295D01*
X76733333Y-47995295D02*
X76733333Y-48138152D01*
X76733333Y-48138152D02*
X76685714Y-48233390D01*
X76685714Y-48233390D02*
X76638095Y-48281009D01*
X76638095Y-48281009D02*
X76542857Y-48328628D01*
X76542857Y-48328628D02*
X76161905Y-48328628D01*
X77590476Y-47804819D02*
X77400000Y-47804819D01*
X77400000Y-47804819D02*
X77304762Y-47852438D01*
X77304762Y-47852438D02*
X77257143Y-47900057D01*
X77257143Y-47900057D02*
X77161905Y-48042914D01*
X77161905Y-48042914D02*
X77114286Y-48233390D01*
X77114286Y-48233390D02*
X77114286Y-48614342D01*
X77114286Y-48614342D02*
X77161905Y-48709580D01*
X77161905Y-48709580D02*
X77209524Y-48757200D01*
X77209524Y-48757200D02*
X77304762Y-48804819D01*
X77304762Y-48804819D02*
X77495238Y-48804819D01*
X77495238Y-48804819D02*
X77590476Y-48757200D01*
X77590476Y-48757200D02*
X77638095Y-48709580D01*
X77638095Y-48709580D02*
X77685714Y-48614342D01*
X77685714Y-48614342D02*
X77685714Y-48376247D01*
X77685714Y-48376247D02*
X77638095Y-48281009D01*
X77638095Y-48281009D02*
X77590476Y-48233390D01*
X77590476Y-48233390D02*
X77495238Y-48185771D01*
X77495238Y-48185771D02*
X77304762Y-48185771D01*
X77304762Y-48185771D02*
X77209524Y-48233390D01*
X77209524Y-48233390D02*
X77161905Y-48281009D01*
X77161905Y-48281009D02*
X77114286Y-48376247D01*
X62036904Y-67195180D02*
X62036904Y-66385657D01*
X62036904Y-66385657D02*
X61989285Y-66290419D01*
X61989285Y-66290419D02*
X61941666Y-66242800D01*
X61941666Y-66242800D02*
X61846428Y-66195180D01*
X61846428Y-66195180D02*
X61655952Y-66195180D01*
X61655952Y-66195180D02*
X61560714Y-66242800D01*
X61560714Y-66242800D02*
X61513095Y-66290419D01*
X61513095Y-66290419D02*
X61465476Y-66385657D01*
X61465476Y-66385657D02*
X61465476Y-67195180D01*
X60560714Y-67195180D02*
X60751190Y-67195180D01*
X60751190Y-67195180D02*
X60846428Y-67147561D01*
X60846428Y-67147561D02*
X60894047Y-67099942D01*
X60894047Y-67099942D02*
X60989285Y-66957085D01*
X60989285Y-66957085D02*
X61036904Y-66766609D01*
X61036904Y-66766609D02*
X61036904Y-66385657D01*
X61036904Y-66385657D02*
X60989285Y-66290419D01*
X60989285Y-66290419D02*
X60941666Y-66242800D01*
X60941666Y-66242800D02*
X60846428Y-66195180D01*
X60846428Y-66195180D02*
X60655952Y-66195180D01*
X60655952Y-66195180D02*
X60560714Y-66242800D01*
X60560714Y-66242800D02*
X60513095Y-66290419D01*
X60513095Y-66290419D02*
X60465476Y-66385657D01*
X60465476Y-66385657D02*
X60465476Y-66623752D01*
X60465476Y-66623752D02*
X60513095Y-66718990D01*
X60513095Y-66718990D02*
X60560714Y-66766609D01*
X60560714Y-66766609D02*
X60655952Y-66814228D01*
X60655952Y-66814228D02*
X60846428Y-66814228D01*
X60846428Y-66814228D02*
X60941666Y-66766609D01*
X60941666Y-66766609D02*
X60989285Y-66718990D01*
X60989285Y-66718990D02*
X61036904Y-66623752D01*
X64253149Y-70801980D02*
X64253149Y-70563885D01*
X64491244Y-70659123D02*
X64253149Y-70563885D01*
X64253149Y-70563885D02*
X64015054Y-70659123D01*
X64396006Y-70373409D02*
X64253149Y-70563885D01*
X64253149Y-70563885D02*
X64110292Y-70373409D01*
X64253150Y-69711619D02*
X64253150Y-69949714D01*
X64015055Y-69854476D02*
X64253150Y-69949714D01*
X64253150Y-69949714D02*
X64491245Y-69854476D01*
X64110293Y-70140190D02*
X64253150Y-69949714D01*
X64253150Y-69949714D02*
X64396007Y-70140190D01*
X67604819Y-60266666D02*
X67604819Y-60742856D01*
X67604819Y-60742856D02*
X66604819Y-60742856D01*
X67604819Y-59409523D02*
X67604819Y-59980951D01*
X67604819Y-59695237D02*
X66604819Y-59695237D01*
X66604819Y-59695237D02*
X66747676Y-59790475D01*
X66747676Y-59790475D02*
X66842914Y-59885713D01*
X66842914Y-59885713D02*
X66890533Y-59980951D01*
X67159580Y-65366666D02*
X67207200Y-65414285D01*
X67207200Y-65414285D02*
X67254819Y-65557142D01*
X67254819Y-65557142D02*
X67254819Y-65652380D01*
X67254819Y-65652380D02*
X67207200Y-65795237D01*
X67207200Y-65795237D02*
X67111961Y-65890475D01*
X67111961Y-65890475D02*
X67016723Y-65938094D01*
X67016723Y-65938094D02*
X66826247Y-65985713D01*
X66826247Y-65985713D02*
X66683390Y-65985713D01*
X66683390Y-65985713D02*
X66492914Y-65938094D01*
X66492914Y-65938094D02*
X66397676Y-65890475D01*
X66397676Y-65890475D02*
X66302438Y-65795237D01*
X66302438Y-65795237D02*
X66254819Y-65652380D01*
X66254819Y-65652380D02*
X66254819Y-65557142D01*
X66254819Y-65557142D02*
X66302438Y-65414285D01*
X66302438Y-65414285D02*
X66350057Y-65366666D01*
X66350057Y-64985713D02*
X66302438Y-64938094D01*
X66302438Y-64938094D02*
X66254819Y-64842856D01*
X66254819Y-64842856D02*
X66254819Y-64604761D01*
X66254819Y-64604761D02*
X66302438Y-64509523D01*
X66302438Y-64509523D02*
X66350057Y-64461904D01*
X66350057Y-64461904D02*
X66445295Y-64414285D01*
X66445295Y-64414285D02*
X66540533Y-64414285D01*
X66540533Y-64414285D02*
X66683390Y-64461904D01*
X66683390Y-64461904D02*
X67254819Y-65033332D01*
X67254819Y-65033332D02*
X67254819Y-64414285D01*
D11*
X66047237Y-46449318D02*
X66047237Y-45179318D01*
X67377714Y-46328365D02*
X67317238Y-46388842D01*
X67317238Y-46388842D02*
X67135809Y-46449318D01*
X67135809Y-46449318D02*
X67014857Y-46449318D01*
X67014857Y-46449318D02*
X66833428Y-46388842D01*
X66833428Y-46388842D02*
X66712476Y-46267889D01*
X66712476Y-46267889D02*
X66651999Y-46146937D01*
X66651999Y-46146937D02*
X66591523Y-45905032D01*
X66591523Y-45905032D02*
X66591523Y-45723603D01*
X66591523Y-45723603D02*
X66651999Y-45481699D01*
X66651999Y-45481699D02*
X66712476Y-45360746D01*
X66712476Y-45360746D02*
X66833428Y-45239794D01*
X66833428Y-45239794D02*
X67014857Y-45179318D01*
X67014857Y-45179318D02*
X67135809Y-45179318D01*
X67135809Y-45179318D02*
X67317238Y-45239794D01*
X67317238Y-45239794D02*
X67377714Y-45300270D01*
X68587238Y-46449318D02*
X67861523Y-46449318D01*
X68224380Y-46449318D02*
X68224380Y-45179318D01*
X68224380Y-45179318D02*
X68103428Y-45360746D01*
X68103428Y-45360746D02*
X67982476Y-45481699D01*
X67982476Y-45481699D02*
X67861523Y-45542175D01*
D10*
X56608333Y-46384819D02*
X56275000Y-45908628D01*
X56036905Y-46384819D02*
X56036905Y-45384819D01*
X56036905Y-45384819D02*
X56417857Y-45384819D01*
X56417857Y-45384819D02*
X56513095Y-45432438D01*
X56513095Y-45432438D02*
X56560714Y-45480057D01*
X56560714Y-45480057D02*
X56608333Y-45575295D01*
X56608333Y-45575295D02*
X56608333Y-45718152D01*
X56608333Y-45718152D02*
X56560714Y-45813390D01*
X56560714Y-45813390D02*
X56513095Y-45861009D01*
X56513095Y-45861009D02*
X56417857Y-45908628D01*
X56417857Y-45908628D02*
X56036905Y-45908628D01*
X56941667Y-45384819D02*
X57560714Y-45384819D01*
X57560714Y-45384819D02*
X57227381Y-45765771D01*
X57227381Y-45765771D02*
X57370238Y-45765771D01*
X57370238Y-45765771D02*
X57465476Y-45813390D01*
X57465476Y-45813390D02*
X57513095Y-45861009D01*
X57513095Y-45861009D02*
X57560714Y-45956247D01*
X57560714Y-45956247D02*
X57560714Y-46194342D01*
X57560714Y-46194342D02*
X57513095Y-46289580D01*
X57513095Y-46289580D02*
X57465476Y-46337200D01*
X57465476Y-46337200D02*
X57370238Y-46384819D01*
X57370238Y-46384819D02*
X57084524Y-46384819D01*
X57084524Y-46384819D02*
X56989286Y-46337200D01*
X56989286Y-46337200D02*
X56941667Y-46289580D01*
X81109580Y-60692857D02*
X81157200Y-60740476D01*
X81157200Y-60740476D02*
X81204819Y-60883333D01*
X81204819Y-60883333D02*
X81204819Y-60978571D01*
X81204819Y-60978571D02*
X81157200Y-61121428D01*
X81157200Y-61121428D02*
X81061961Y-61216666D01*
X81061961Y-61216666D02*
X80966723Y-61264285D01*
X80966723Y-61264285D02*
X80776247Y-61311904D01*
X80776247Y-61311904D02*
X80633390Y-61311904D01*
X80633390Y-61311904D02*
X80442914Y-61264285D01*
X80442914Y-61264285D02*
X80347676Y-61216666D01*
X80347676Y-61216666D02*
X80252438Y-61121428D01*
X80252438Y-61121428D02*
X80204819Y-60978571D01*
X80204819Y-60978571D02*
X80204819Y-60883333D01*
X80204819Y-60883333D02*
X80252438Y-60740476D01*
X80252438Y-60740476D02*
X80300057Y-60692857D01*
X80300057Y-60311904D02*
X80252438Y-60264285D01*
X80252438Y-60264285D02*
X80204819Y-60169047D01*
X80204819Y-60169047D02*
X80204819Y-59930952D01*
X80204819Y-59930952D02*
X80252438Y-59835714D01*
X80252438Y-59835714D02*
X80300057Y-59788095D01*
X80300057Y-59788095D02*
X80395295Y-59740476D01*
X80395295Y-59740476D02*
X80490533Y-59740476D01*
X80490533Y-59740476D02*
X80633390Y-59788095D01*
X80633390Y-59788095D02*
X81204819Y-60359523D01*
X81204819Y-60359523D02*
X81204819Y-59740476D01*
X81204819Y-58788095D02*
X81204819Y-59359523D01*
X81204819Y-59073809D02*
X80204819Y-59073809D01*
X80204819Y-59073809D02*
X80347676Y-59169047D01*
X80347676Y-59169047D02*
X80442914Y-59264285D01*
X80442914Y-59264285D02*
X80490533Y-59359523D01*
X108566666Y-70044819D02*
X108566666Y-70759104D01*
X108566666Y-70759104D02*
X108519047Y-70901961D01*
X108519047Y-70901961D02*
X108423809Y-70997200D01*
X108423809Y-70997200D02*
X108280952Y-71044819D01*
X108280952Y-71044819D02*
X108185714Y-71044819D01*
X108947619Y-70044819D02*
X109614285Y-70044819D01*
X109614285Y-70044819D02*
X109185714Y-71044819D01*
X73082142Y-38859580D02*
X73034523Y-38907200D01*
X73034523Y-38907200D02*
X72891666Y-38954819D01*
X72891666Y-38954819D02*
X72796428Y-38954819D01*
X72796428Y-38954819D02*
X72653571Y-38907200D01*
X72653571Y-38907200D02*
X72558333Y-38811961D01*
X72558333Y-38811961D02*
X72510714Y-38716723D01*
X72510714Y-38716723D02*
X72463095Y-38526247D01*
X72463095Y-38526247D02*
X72463095Y-38383390D01*
X72463095Y-38383390D02*
X72510714Y-38192914D01*
X72510714Y-38192914D02*
X72558333Y-38097676D01*
X72558333Y-38097676D02*
X72653571Y-38002438D01*
X72653571Y-38002438D02*
X72796428Y-37954819D01*
X72796428Y-37954819D02*
X72891666Y-37954819D01*
X72891666Y-37954819D02*
X73034523Y-38002438D01*
X73034523Y-38002438D02*
X73082142Y-38050057D01*
X74034523Y-38954819D02*
X73463095Y-38954819D01*
X73748809Y-38954819D02*
X73748809Y-37954819D01*
X73748809Y-37954819D02*
X73653571Y-38097676D01*
X73653571Y-38097676D02*
X73558333Y-38192914D01*
X73558333Y-38192914D02*
X73463095Y-38240533D01*
X74415476Y-38050057D02*
X74463095Y-38002438D01*
X74463095Y-38002438D02*
X74558333Y-37954819D01*
X74558333Y-37954819D02*
X74796428Y-37954819D01*
X74796428Y-37954819D02*
X74891666Y-38002438D01*
X74891666Y-38002438D02*
X74939285Y-38050057D01*
X74939285Y-38050057D02*
X74986904Y-38145295D01*
X74986904Y-38145295D02*
X74986904Y-38240533D01*
X74986904Y-38240533D02*
X74939285Y-38383390D01*
X74939285Y-38383390D02*
X74367857Y-38954819D01*
X74367857Y-38954819D02*
X74986904Y-38954819D01*
X78132142Y-34509580D02*
X78084523Y-34557200D01*
X78084523Y-34557200D02*
X77941666Y-34604819D01*
X77941666Y-34604819D02*
X77846428Y-34604819D01*
X77846428Y-34604819D02*
X77703571Y-34557200D01*
X77703571Y-34557200D02*
X77608333Y-34461961D01*
X77608333Y-34461961D02*
X77560714Y-34366723D01*
X77560714Y-34366723D02*
X77513095Y-34176247D01*
X77513095Y-34176247D02*
X77513095Y-34033390D01*
X77513095Y-34033390D02*
X77560714Y-33842914D01*
X77560714Y-33842914D02*
X77608333Y-33747676D01*
X77608333Y-33747676D02*
X77703571Y-33652438D01*
X77703571Y-33652438D02*
X77846428Y-33604819D01*
X77846428Y-33604819D02*
X77941666Y-33604819D01*
X77941666Y-33604819D02*
X78084523Y-33652438D01*
X78084523Y-33652438D02*
X78132142Y-33700057D01*
X79084523Y-34604819D02*
X78513095Y-34604819D01*
X78798809Y-34604819D02*
X78798809Y-33604819D01*
X78798809Y-33604819D02*
X78703571Y-33747676D01*
X78703571Y-33747676D02*
X78608333Y-33842914D01*
X78608333Y-33842914D02*
X78513095Y-33890533D01*
X79417857Y-33604819D02*
X80036904Y-33604819D01*
X80036904Y-33604819D02*
X79703571Y-33985771D01*
X79703571Y-33985771D02*
X79846428Y-33985771D01*
X79846428Y-33985771D02*
X79941666Y-34033390D01*
X79941666Y-34033390D02*
X79989285Y-34081009D01*
X79989285Y-34081009D02*
X80036904Y-34176247D01*
X80036904Y-34176247D02*
X80036904Y-34414342D01*
X80036904Y-34414342D02*
X79989285Y-34509580D01*
X79989285Y-34509580D02*
X79941666Y-34557200D01*
X79941666Y-34557200D02*
X79846428Y-34604819D01*
X79846428Y-34604819D02*
X79560714Y-34604819D01*
X79560714Y-34604819D02*
X79465476Y-34557200D01*
X79465476Y-34557200D02*
X79417857Y-34509580D01*
X87558333Y-71742319D02*
X87225000Y-71266128D01*
X86986905Y-71742319D02*
X86986905Y-70742319D01*
X86986905Y-70742319D02*
X87367857Y-70742319D01*
X87367857Y-70742319D02*
X87463095Y-70789938D01*
X87463095Y-70789938D02*
X87510714Y-70837557D01*
X87510714Y-70837557D02*
X87558333Y-70932795D01*
X87558333Y-70932795D02*
X87558333Y-71075652D01*
X87558333Y-71075652D02*
X87510714Y-71170890D01*
X87510714Y-71170890D02*
X87463095Y-71218509D01*
X87463095Y-71218509D02*
X87367857Y-71266128D01*
X87367857Y-71266128D02*
X86986905Y-71266128D01*
X88510714Y-71742319D02*
X87939286Y-71742319D01*
X88225000Y-71742319D02*
X88225000Y-70742319D01*
X88225000Y-70742319D02*
X88129762Y-70885176D01*
X88129762Y-70885176D02*
X88034524Y-70980414D01*
X88034524Y-70980414D02*
X87939286Y-71028033D01*
X51091666Y-63149819D02*
X51091666Y-63864104D01*
X51091666Y-63864104D02*
X51044047Y-64006961D01*
X51044047Y-64006961D02*
X50948809Y-64102200D01*
X50948809Y-64102200D02*
X50805952Y-64149819D01*
X50805952Y-64149819D02*
X50710714Y-64149819D01*
X51615476Y-64149819D02*
X51805952Y-64149819D01*
X51805952Y-64149819D02*
X51901190Y-64102200D01*
X51901190Y-64102200D02*
X51948809Y-64054580D01*
X51948809Y-64054580D02*
X52044047Y-63911723D01*
X52044047Y-63911723D02*
X52091666Y-63721247D01*
X52091666Y-63721247D02*
X52091666Y-63340295D01*
X52091666Y-63340295D02*
X52044047Y-63245057D01*
X52044047Y-63245057D02*
X51996428Y-63197438D01*
X51996428Y-63197438D02*
X51901190Y-63149819D01*
X51901190Y-63149819D02*
X51710714Y-63149819D01*
X51710714Y-63149819D02*
X51615476Y-63197438D01*
X51615476Y-63197438D02*
X51567857Y-63245057D01*
X51567857Y-63245057D02*
X51520238Y-63340295D01*
X51520238Y-63340295D02*
X51520238Y-63578390D01*
X51520238Y-63578390D02*
X51567857Y-63673628D01*
X51567857Y-63673628D02*
X51615476Y-63721247D01*
X51615476Y-63721247D02*
X51710714Y-63768866D01*
X51710714Y-63768866D02*
X51901190Y-63768866D01*
X51901190Y-63768866D02*
X51996428Y-63721247D01*
X51996428Y-63721247D02*
X52044047Y-63673628D01*
X52044047Y-63673628D02*
X52091666Y-63578390D01*
X50234580Y-57766666D02*
X50282200Y-57814285D01*
X50282200Y-57814285D02*
X50329819Y-57957142D01*
X50329819Y-57957142D02*
X50329819Y-58052380D01*
X50329819Y-58052380D02*
X50282200Y-58195237D01*
X50282200Y-58195237D02*
X50186961Y-58290475D01*
X50186961Y-58290475D02*
X50091723Y-58338094D01*
X50091723Y-58338094D02*
X49901247Y-58385713D01*
X49901247Y-58385713D02*
X49758390Y-58385713D01*
X49758390Y-58385713D02*
X49567914Y-58338094D01*
X49567914Y-58338094D02*
X49472676Y-58290475D01*
X49472676Y-58290475D02*
X49377438Y-58195237D01*
X49377438Y-58195237D02*
X49329819Y-58052380D01*
X49329819Y-58052380D02*
X49329819Y-57957142D01*
X49329819Y-57957142D02*
X49377438Y-57814285D01*
X49377438Y-57814285D02*
X49425057Y-57766666D01*
X49758390Y-57195237D02*
X49710771Y-57290475D01*
X49710771Y-57290475D02*
X49663152Y-57338094D01*
X49663152Y-57338094D02*
X49567914Y-57385713D01*
X49567914Y-57385713D02*
X49520295Y-57385713D01*
X49520295Y-57385713D02*
X49425057Y-57338094D01*
X49425057Y-57338094D02*
X49377438Y-57290475D01*
X49377438Y-57290475D02*
X49329819Y-57195237D01*
X49329819Y-57195237D02*
X49329819Y-57004761D01*
X49329819Y-57004761D02*
X49377438Y-56909523D01*
X49377438Y-56909523D02*
X49425057Y-56861904D01*
X49425057Y-56861904D02*
X49520295Y-56814285D01*
X49520295Y-56814285D02*
X49567914Y-56814285D01*
X49567914Y-56814285D02*
X49663152Y-56861904D01*
X49663152Y-56861904D02*
X49710771Y-56909523D01*
X49710771Y-56909523D02*
X49758390Y-57004761D01*
X49758390Y-57004761D02*
X49758390Y-57195237D01*
X49758390Y-57195237D02*
X49806009Y-57290475D01*
X49806009Y-57290475D02*
X49853628Y-57338094D01*
X49853628Y-57338094D02*
X49948866Y-57385713D01*
X49948866Y-57385713D02*
X50139342Y-57385713D01*
X50139342Y-57385713D02*
X50234580Y-57338094D01*
X50234580Y-57338094D02*
X50282200Y-57290475D01*
X50282200Y-57290475D02*
X50329819Y-57195237D01*
X50329819Y-57195237D02*
X50329819Y-57004761D01*
X50329819Y-57004761D02*
X50282200Y-56909523D01*
X50282200Y-56909523D02*
X50234580Y-56861904D01*
X50234580Y-56861904D02*
X50139342Y-56814285D01*
X50139342Y-56814285D02*
X49948866Y-56814285D01*
X49948866Y-56814285D02*
X49853628Y-56861904D01*
X49853628Y-56861904D02*
X49806009Y-56909523D01*
X49806009Y-56909523D02*
X49758390Y-57004761D01*
X91629819Y-60742857D02*
X91153628Y-61076190D01*
X91629819Y-61314285D02*
X90629819Y-61314285D01*
X90629819Y-61314285D02*
X90629819Y-60933333D01*
X90629819Y-60933333D02*
X90677438Y-60838095D01*
X90677438Y-60838095D02*
X90725057Y-60790476D01*
X90725057Y-60790476D02*
X90820295Y-60742857D01*
X90820295Y-60742857D02*
X90963152Y-60742857D01*
X90963152Y-60742857D02*
X91058390Y-60790476D01*
X91058390Y-60790476D02*
X91106009Y-60838095D01*
X91106009Y-60838095D02*
X91153628Y-60933333D01*
X91153628Y-60933333D02*
X91153628Y-61314285D01*
X91629819Y-59790476D02*
X91629819Y-60361904D01*
X91629819Y-60076190D02*
X90629819Y-60076190D01*
X90629819Y-60076190D02*
X90772676Y-60171428D01*
X90772676Y-60171428D02*
X90867914Y-60266666D01*
X90867914Y-60266666D02*
X90915533Y-60361904D01*
X91629819Y-59314285D02*
X91629819Y-59123809D01*
X91629819Y-59123809D02*
X91582200Y-59028571D01*
X91582200Y-59028571D02*
X91534580Y-58980952D01*
X91534580Y-58980952D02*
X91391723Y-58885714D01*
X91391723Y-58885714D02*
X91201247Y-58838095D01*
X91201247Y-58838095D02*
X90820295Y-58838095D01*
X90820295Y-58838095D02*
X90725057Y-58885714D01*
X90725057Y-58885714D02*
X90677438Y-58933333D01*
X90677438Y-58933333D02*
X90629819Y-59028571D01*
X90629819Y-59028571D02*
X90629819Y-59219047D01*
X90629819Y-59219047D02*
X90677438Y-59314285D01*
X90677438Y-59314285D02*
X90725057Y-59361904D01*
X90725057Y-59361904D02*
X90820295Y-59409523D01*
X90820295Y-59409523D02*
X91058390Y-59409523D01*
X91058390Y-59409523D02*
X91153628Y-59361904D01*
X91153628Y-59361904D02*
X91201247Y-59314285D01*
X91201247Y-59314285D02*
X91248866Y-59219047D01*
X91248866Y-59219047D02*
X91248866Y-59028571D01*
X91248866Y-59028571D02*
X91201247Y-58933333D01*
X91201247Y-58933333D02*
X91153628Y-58885714D01*
X91153628Y-58885714D02*
X91058390Y-58838095D01*
X57084580Y-66442857D02*
X57132200Y-66490476D01*
X57132200Y-66490476D02*
X57179819Y-66633333D01*
X57179819Y-66633333D02*
X57179819Y-66728571D01*
X57179819Y-66728571D02*
X57132200Y-66871428D01*
X57132200Y-66871428D02*
X57036961Y-66966666D01*
X57036961Y-66966666D02*
X56941723Y-67014285D01*
X56941723Y-67014285D02*
X56751247Y-67061904D01*
X56751247Y-67061904D02*
X56608390Y-67061904D01*
X56608390Y-67061904D02*
X56417914Y-67014285D01*
X56417914Y-67014285D02*
X56322676Y-66966666D01*
X56322676Y-66966666D02*
X56227438Y-66871428D01*
X56227438Y-66871428D02*
X56179819Y-66728571D01*
X56179819Y-66728571D02*
X56179819Y-66633333D01*
X56179819Y-66633333D02*
X56227438Y-66490476D01*
X56227438Y-66490476D02*
X56275057Y-66442857D01*
X56275057Y-66061904D02*
X56227438Y-66014285D01*
X56227438Y-66014285D02*
X56179819Y-65919047D01*
X56179819Y-65919047D02*
X56179819Y-65680952D01*
X56179819Y-65680952D02*
X56227438Y-65585714D01*
X56227438Y-65585714D02*
X56275057Y-65538095D01*
X56275057Y-65538095D02*
X56370295Y-65490476D01*
X56370295Y-65490476D02*
X56465533Y-65490476D01*
X56465533Y-65490476D02*
X56608390Y-65538095D01*
X56608390Y-65538095D02*
X57179819Y-66109523D01*
X57179819Y-66109523D02*
X57179819Y-65490476D01*
X56179819Y-64871428D02*
X56179819Y-64776190D01*
X56179819Y-64776190D02*
X56227438Y-64680952D01*
X56227438Y-64680952D02*
X56275057Y-64633333D01*
X56275057Y-64633333D02*
X56370295Y-64585714D01*
X56370295Y-64585714D02*
X56560771Y-64538095D01*
X56560771Y-64538095D02*
X56798866Y-64538095D01*
X56798866Y-64538095D02*
X56989342Y-64585714D01*
X56989342Y-64585714D02*
X57084580Y-64633333D01*
X57084580Y-64633333D02*
X57132200Y-64680952D01*
X57132200Y-64680952D02*
X57179819Y-64776190D01*
X57179819Y-64776190D02*
X57179819Y-64871428D01*
X57179819Y-64871428D02*
X57132200Y-64966666D01*
X57132200Y-64966666D02*
X57084580Y-65014285D01*
X57084580Y-65014285D02*
X56989342Y-65061904D01*
X56989342Y-65061904D02*
X56798866Y-65109523D01*
X56798866Y-65109523D02*
X56560771Y-65109523D01*
X56560771Y-65109523D02*
X56370295Y-65061904D01*
X56370295Y-65061904D02*
X56275057Y-65014285D01*
X56275057Y-65014285D02*
X56227438Y-64966666D01*
X56227438Y-64966666D02*
X56179819Y-64871428D01*
X108716666Y-39224819D02*
X108716666Y-39939104D01*
X108716666Y-39939104D02*
X108669047Y-40081961D01*
X108669047Y-40081961D02*
X108573809Y-40177200D01*
X108573809Y-40177200D02*
X108430952Y-40224819D01*
X108430952Y-40224819D02*
X108335714Y-40224819D01*
X109621428Y-39558152D02*
X109621428Y-40224819D01*
X109383333Y-39177200D02*
X109145238Y-39891485D01*
X109145238Y-39891485D02*
X109764285Y-39891485D01*
X74489819Y-35133333D02*
X75204104Y-35133333D01*
X75204104Y-35133333D02*
X75346961Y-35180952D01*
X75346961Y-35180952D02*
X75442200Y-35276190D01*
X75442200Y-35276190D02*
X75489819Y-35419047D01*
X75489819Y-35419047D02*
X75489819Y-35514285D01*
X74489819Y-34228571D02*
X74489819Y-34419047D01*
X74489819Y-34419047D02*
X74537438Y-34514285D01*
X74537438Y-34514285D02*
X74585057Y-34561904D01*
X74585057Y-34561904D02*
X74727914Y-34657142D01*
X74727914Y-34657142D02*
X74918390Y-34704761D01*
X74918390Y-34704761D02*
X75299342Y-34704761D01*
X75299342Y-34704761D02*
X75394580Y-34657142D01*
X75394580Y-34657142D02*
X75442200Y-34609523D01*
X75442200Y-34609523D02*
X75489819Y-34514285D01*
X75489819Y-34514285D02*
X75489819Y-34323809D01*
X75489819Y-34323809D02*
X75442200Y-34228571D01*
X75442200Y-34228571D02*
X75394580Y-34180952D01*
X75394580Y-34180952D02*
X75299342Y-34133333D01*
X75299342Y-34133333D02*
X75061247Y-34133333D01*
X75061247Y-34133333D02*
X74966009Y-34180952D01*
X74966009Y-34180952D02*
X74918390Y-34228571D01*
X74918390Y-34228571D02*
X74870771Y-34323809D01*
X74870771Y-34323809D02*
X74870771Y-34514285D01*
X74870771Y-34514285D02*
X74918390Y-34609523D01*
X74918390Y-34609523D02*
X74966009Y-34657142D01*
X74966009Y-34657142D02*
X75061247Y-34704761D01*
X60844642Y-70754819D02*
X60511309Y-70278628D01*
X60273214Y-70754819D02*
X60273214Y-69754819D01*
X60273214Y-69754819D02*
X60654166Y-69754819D01*
X60654166Y-69754819D02*
X60749404Y-69802438D01*
X60749404Y-69802438D02*
X60797023Y-69850057D01*
X60797023Y-69850057D02*
X60844642Y-69945295D01*
X60844642Y-69945295D02*
X60844642Y-70088152D01*
X60844642Y-70088152D02*
X60797023Y-70183390D01*
X60797023Y-70183390D02*
X60749404Y-70231009D01*
X60749404Y-70231009D02*
X60654166Y-70278628D01*
X60654166Y-70278628D02*
X60273214Y-70278628D01*
X61797023Y-70754819D02*
X61225595Y-70754819D01*
X61511309Y-70754819D02*
X61511309Y-69754819D01*
X61511309Y-69754819D02*
X61416071Y-69897676D01*
X61416071Y-69897676D02*
X61320833Y-69992914D01*
X61320833Y-69992914D02*
X61225595Y-70040533D01*
X62177976Y-69850057D02*
X62225595Y-69802438D01*
X62225595Y-69802438D02*
X62320833Y-69754819D01*
X62320833Y-69754819D02*
X62558928Y-69754819D01*
X62558928Y-69754819D02*
X62654166Y-69802438D01*
X62654166Y-69802438D02*
X62701785Y-69850057D01*
X62701785Y-69850057D02*
X62749404Y-69945295D01*
X62749404Y-69945295D02*
X62749404Y-70040533D01*
X62749404Y-70040533D02*
X62701785Y-70183390D01*
X62701785Y-70183390D02*
X62130357Y-70754819D01*
X62130357Y-70754819D02*
X62749404Y-70754819D01*
D12*
%TO.C,R10*%
X98847936Y-72215000D02*
X99302064Y-72215000D01*
X98847936Y-73685000D02*
X99302064Y-73685000D01*
%TO.C,R7*%
X79390000Y-39472936D02*
X79390000Y-39927064D01*
X80860000Y-39472936D02*
X80860000Y-39927064D01*
%TO.C,SW2*%
X91705000Y-62980000D02*
X95845000Y-62980000D01*
X91705000Y-63280000D02*
X91705000Y-62980000D01*
X91705000Y-66120000D02*
X91705000Y-65820000D01*
X95845000Y-62980000D02*
X95845000Y-63280000D01*
X95845000Y-65820000D02*
X95845000Y-66120000D01*
X95845000Y-66120000D02*
X91705000Y-66120000D01*
%TO.C,J2*%
X61095000Y-75390000D02*
X61095000Y-83010000D01*
X61095000Y-76660000D02*
X71255000Y-76660000D01*
X61095000Y-83010000D02*
X71255000Y-83010000D01*
X71255000Y-75390000D02*
X61095000Y-75390000D01*
X71255000Y-83010000D02*
X71255000Y-75390000D01*
%TO.C,R18*%
X99290000Y-60227064D02*
X99290000Y-59772936D01*
X100760000Y-60227064D02*
X100760000Y-59772936D01*
%TO.C,R17*%
X102640000Y-60277064D02*
X102640000Y-59822936D01*
X104110000Y-60277064D02*
X104110000Y-59822936D01*
%TO.C,R4*%
X56010436Y-43090000D02*
X57464564Y-43090000D01*
X56010436Y-44910000D02*
X57464564Y-44910000D01*
%TO.C,JP1*%
X83275000Y-63800000D02*
X88775000Y-63800000D01*
X83275000Y-65750000D02*
X83275000Y-63800000D01*
X88775000Y-63800000D02*
X88775000Y-65750000D01*
X88775000Y-65750000D02*
X83275000Y-65750000D01*
D13*
%TO.C,R11*%
X63893000Y-52274400D02*
X63893000Y-52817960D01*
X63893000Y-52274400D02*
X66273060Y-52274400D01*
X63893000Y-54982040D02*
X63893000Y-55525600D01*
X63893000Y-55525600D02*
X66273060Y-55525600D01*
X67957000Y-54047360D02*
X67957000Y-53752640D01*
X69227000Y-54850000D02*
G75*
G02*
X68973000Y-54850000I-127000J0D01*
G01*
X68973000Y-54850000D02*
G75*
G02*
X69227000Y-54850000I127000J0D01*
G01*
D12*
%TO.C,R2*%
X80002064Y-72152500D02*
X79547936Y-72152500D01*
X80002064Y-73622500D02*
X79547936Y-73622500D01*
%TO.C,C9*%
X60013748Y-57790000D02*
X61436252Y-57790000D01*
X60013748Y-59610000D02*
X61436252Y-59610000D01*
%TO.C,U4*%
X82190000Y-71800000D02*
X82190000Y-71000000D01*
X82190000Y-71800000D02*
X82190000Y-72600000D01*
X85310000Y-71800000D02*
X85310000Y-71000000D01*
X85310000Y-71800000D02*
X85310000Y-72600000D01*
X82240000Y-73100000D02*
X81910000Y-73340000D01*
X81910000Y-72860000D01*
X82240000Y-73100000D01*
G36*
X82240000Y-73100000D02*
G01*
X81910000Y-73340000D01*
X81910000Y-72860000D01*
X82240000Y-73100000D01*
G37*
%TO.C,J3*%
X50045000Y-40720000D02*
X51375000Y-40720000D01*
X50045000Y-42050000D02*
X50045000Y-40720000D01*
X50045000Y-43320000D02*
X50045000Y-51000000D01*
X50045000Y-43320000D02*
X52705000Y-43320000D01*
X50045000Y-51000000D02*
X52705000Y-51000000D01*
X52705000Y-43320000D02*
X52705000Y-51000000D01*
%TO.C,U2*%
X70927500Y-65500000D02*
X70927500Y-64700000D01*
X70927500Y-65500000D02*
X70927500Y-66300000D01*
X74047500Y-65500000D02*
X74047500Y-64700000D01*
X74047500Y-65500000D02*
X74047500Y-66300000D01*
X70977500Y-66800000D02*
X70647500Y-67040000D01*
X70647500Y-66560000D01*
X70977500Y-66800000D01*
G36*
X70977500Y-66800000D02*
G01*
X70647500Y-67040000D01*
X70647500Y-66560000D01*
X70977500Y-66800000D01*
G37*
%TO.C,R5*%
X74327064Y-49815000D02*
X73872936Y-49815000D01*
X74327064Y-51285000D02*
X73872936Y-51285000D01*
%TO.C,C5*%
X59636252Y-36115000D02*
X59113748Y-36115000D01*
X59636252Y-37585000D02*
X59113748Y-37585000D01*
D14*
%TO.C,U1*%
X83025000Y-37790000D02*
X83025000Y-37790000D01*
X83125000Y-37790000D02*
X83125000Y-37790000D01*
D15*
X84025000Y-30300000D02*
X102025000Y-30300000D01*
X84025000Y-37050000D02*
X84025000Y-30300000D01*
X102025000Y-30300000D02*
X102025000Y-37050000D01*
D14*
X83025000Y-37790000D02*
G75*
G02*
X83125000Y-37790000I50000J0D01*
G01*
X83125000Y-37790000D02*
G75*
G02*
X83025000Y-37790000I-50000J0D01*
G01*
D12*
%TO.C,C11*%
X60563748Y-54475000D02*
X61086252Y-54475000D01*
X60563748Y-55945000D02*
X61086252Y-55945000D01*
%TO.C,J1*%
X79280000Y-78330000D02*
X79280000Y-80130000D01*
X79280000Y-83840000D02*
X79280000Y-82380000D01*
X88220000Y-78330000D02*
X88220000Y-80130000D01*
X88220000Y-83840000D02*
X79280000Y-83840000D01*
X88220000Y-83840000D02*
X88220000Y-82380000D01*
%TO.C,C1*%
X75940000Y-66311252D02*
X75940000Y-64888748D01*
X77760000Y-66311252D02*
X77760000Y-64888748D01*
%TO.C,C22*%
X75290000Y-59338748D02*
X75290000Y-60761252D01*
X77110000Y-59338748D02*
X77110000Y-60761252D01*
%TO.C,D1*%
X70215000Y-69850000D02*
X70215000Y-73150000D01*
X70215000Y-69850000D02*
X75725000Y-69850000D01*
X70215000Y-73150000D02*
X75725000Y-73150000D01*
%TO.C,C14*%
X77186252Y-40115000D02*
X76663748Y-40115000D01*
X77186252Y-41585000D02*
X76663748Y-41585000D01*
%TO.C,R8*%
X85290000Y-59922936D02*
X85290000Y-60377064D01*
X86760000Y-59922936D02*
X86760000Y-60377064D01*
%TO.C,J5*%
X96215000Y-82820000D02*
X96215000Y-76080000D01*
X104535000Y-76080000D02*
X96215000Y-76080000D01*
X104535000Y-76600000D02*
X96215000Y-76600000D01*
X104535000Y-81700000D02*
X96215000Y-81700000D01*
X104535000Y-82820000D02*
X96215000Y-82820000D01*
X104535000Y-82820000D02*
X104535000Y-76080000D01*
X104775000Y-75840000D02*
X104375000Y-75840000D01*
X104775000Y-76480000D02*
X104775000Y-75840000D01*
%TO.C,C7*%
X71336252Y-52215000D02*
X70813748Y-52215000D01*
X71336252Y-53685000D02*
X70813748Y-53685000D01*
%TO.C,C6*%
X59213748Y-39565000D02*
X59736252Y-39565000D01*
X59213748Y-41035000D02*
X59736252Y-41035000D01*
%TO.C,C10*%
X60563748Y-51465000D02*
X61086252Y-51465000D01*
X60563748Y-52935000D02*
X61086252Y-52935000D01*
%TO.C,R6*%
X74327064Y-47665000D02*
X73872936Y-47665000D01*
X74327064Y-49135000D02*
X73872936Y-49135000D01*
D13*
%TO.C,U6*%
X59154100Y-69278900D02*
X63395900Y-69278900D01*
X63395900Y-64021100D02*
X59154100Y-64021100D01*
D12*
%TO.C,L1*%
X67890000Y-57340000D02*
X68290000Y-57340000D01*
X67890000Y-62860000D02*
X67890000Y-57340000D01*
X67890000Y-62860000D02*
X68290000Y-62860000D01*
X73410000Y-57340000D02*
X73010000Y-57340000D01*
X73410000Y-62860000D02*
X73010000Y-62860000D01*
X73410000Y-62860000D02*
X73410000Y-57340000D01*
%TO.C,C2*%
X67665000Y-64938748D02*
X67665000Y-65461252D01*
X69135000Y-64938748D02*
X69135000Y-65461252D01*
D15*
%TO.C,IC1*%
X63612000Y-41075000D02*
X65087000Y-41075000D01*
D12*
%TO.C,R3*%
X56047936Y-46840000D02*
X57502064Y-46840000D01*
X56047936Y-48660000D02*
X57502064Y-48660000D01*
%TO.C,C21*%
X77990000Y-59338748D02*
X77990000Y-60761252D01*
X79810000Y-59338748D02*
X79810000Y-60761252D01*
%TO.C,J7*%
X107570000Y-66990000D02*
X107570000Y-54230000D01*
X110230000Y-54230000D02*
X107570000Y-54230000D01*
X110230000Y-66990000D02*
X107570000Y-66990000D01*
X110230000Y-66990000D02*
X110230000Y-54230000D01*
X110230000Y-68260000D02*
X110230000Y-69590000D01*
X110230000Y-69590000D02*
X108900000Y-69590000D01*
%TO.C,C12*%
X77186252Y-37715000D02*
X76663748Y-37715000D01*
X77186252Y-39185000D02*
X76663748Y-39185000D01*
%TO.C,C13*%
X78063748Y-35090000D02*
X79486252Y-35090000D01*
X78063748Y-36910000D02*
X79486252Y-36910000D01*
%TO.C,R1*%
X87497936Y-72202500D02*
X87952064Y-72202500D01*
X87497936Y-73672500D02*
X87952064Y-73672500D01*
%TO.C,J9*%
X50095000Y-64695000D02*
X51425000Y-64695000D01*
X50095000Y-66025000D02*
X50095000Y-64695000D01*
X50095000Y-67295000D02*
X50095000Y-69895000D01*
X50095000Y-67295000D02*
X52755000Y-67295000D01*
X50095000Y-69895000D02*
X52755000Y-69895000D01*
X52755000Y-67295000D02*
X52755000Y-69895000D01*
%TO.C,C8*%
X50815000Y-54190000D02*
X53165000Y-54190000D01*
X50815000Y-59945563D02*
X50815000Y-54190000D01*
X51879437Y-61010000D02*
X50815000Y-59945563D01*
X51879437Y-61010000D02*
X53165000Y-61010000D01*
X51983750Y-61643750D02*
X52771250Y-61643750D01*
X52377500Y-62037500D02*
X52377500Y-61250000D01*
X56570563Y-61010000D02*
X55285000Y-61010000D01*
X56570563Y-61010000D02*
X57635000Y-59945563D01*
X57635000Y-54190000D02*
X55285000Y-54190000D01*
X57635000Y-59945563D02*
X57635000Y-54190000D01*
%TO.C,R19*%
X88690000Y-60277064D02*
X88690000Y-59822936D01*
X90160000Y-60277064D02*
X90160000Y-59822936D01*
%TO.C,C20*%
X53965000Y-65088748D02*
X53965000Y-66511252D01*
X55785000Y-65088748D02*
X55785000Y-66511252D01*
%TO.C,SW1*%
X99155000Y-62980000D02*
X103295000Y-62980000D01*
X99155000Y-63280000D02*
X99155000Y-62980000D01*
X99155000Y-66120000D02*
X99155000Y-65820000D01*
X103295000Y-62980000D02*
X103295000Y-63280000D01*
X103295000Y-65820000D02*
X103295000Y-66120000D01*
X103295000Y-66120000D02*
X99155000Y-66120000D01*
%TO.C,J4*%
X107720000Y-40770000D02*
X109050000Y-40770000D01*
X107720000Y-42100000D02*
X107720000Y-40770000D01*
X107720000Y-43370000D02*
X107720000Y-48510000D01*
X107720000Y-43370000D02*
X110380000Y-43370000D01*
X107720000Y-48510000D02*
X110380000Y-48510000D01*
X110380000Y-43370000D02*
X110380000Y-48510000D01*
%TO.C,J6*%
X63755000Y-33470000D02*
X63755000Y-36130000D01*
X71435000Y-33470000D02*
X63755000Y-33470000D01*
X71435000Y-33470000D02*
X71435000Y-36130000D01*
X71435000Y-36130000D02*
X63755000Y-36130000D01*
X72705000Y-33470000D02*
X74035000Y-33470000D01*
X74035000Y-33470000D02*
X74035000Y-34800000D01*
%TO.C,R12*%
X61260436Y-71215000D02*
X61714564Y-71215000D01*
X61260436Y-72685000D02*
X61714564Y-72685000D01*
%TD*%
%LPC*%
D16*
%TO.C,R10*%
X98162500Y-72950000D03*
X99987500Y-72950000D03*
%TD*%
D17*
%TO.C,R7*%
X80125000Y-38787500D03*
X80125000Y-40612500D03*
%TD*%
D18*
%TO.C,SW2*%
X91675000Y-64550000D03*
X95875000Y-64550000D03*
%TD*%
D19*
%TO.C,J2*%
X68715000Y-79200000D03*
D20*
X63635000Y-79200000D03*
%TD*%
D21*
%TO.C,H1*%
X50275000Y-32350000D03*
X50977944Y-30652944D03*
X50977944Y-34047056D03*
X52675000Y-29950000D03*
D22*
X52675000Y-32350000D03*
D21*
X52675000Y-34750000D03*
X54372056Y-30652944D03*
X54372056Y-34047056D03*
X55075000Y-32350000D03*
%TD*%
D23*
%TO.C,R18*%
X100025000Y-60912500D03*
X100025000Y-59087500D03*
%TD*%
%TO.C,R17*%
X103375000Y-60962500D03*
X103375000Y-59137500D03*
%TD*%
D21*
%TO.C,H2*%
X50275000Y-78850000D03*
X50977944Y-77152944D03*
X50977944Y-80547056D03*
X52675000Y-76450000D03*
D22*
X52675000Y-78850000D03*
D21*
X52675000Y-81250000D03*
X54372056Y-77152944D03*
X54372056Y-80547056D03*
X55075000Y-78850000D03*
%TD*%
D24*
%TO.C,R4*%
X55275000Y-44000000D03*
X58200000Y-44000000D03*
%TD*%
D25*
%TO.C,JP1*%
X87225000Y-64750000D03*
X84825000Y-64750000D03*
D26*
X88025000Y-64750000D03*
D27*
X84025000Y-64750000D03*
%TD*%
D28*
%TO.C,R11*%
X67309300Y-54850000D03*
D29*
X64832800Y-53900000D03*
D28*
X67309300Y-52950000D03*
%TD*%
D30*
%TO.C,R2*%
X80687500Y-72887500D03*
X78862500Y-72887500D03*
%TD*%
D31*
%TO.C,C9*%
X59250000Y-58700000D03*
X62200000Y-58700000D03*
%TD*%
D32*
%TO.C,U4*%
X82800000Y-72937500D03*
X83750000Y-72937500D03*
X84700000Y-72937500D03*
X84700000Y-70662500D03*
X83750000Y-70662500D03*
X82800000Y-70662500D03*
%TD*%
D33*
%TO.C,J3*%
X51375000Y-42050000D03*
D34*
X51375000Y-44590000D03*
X51375000Y-47130000D03*
X51375000Y-49670000D03*
%TD*%
D32*
%TO.C,U2*%
X71537500Y-66637500D03*
X72487500Y-66637500D03*
X73437500Y-66637500D03*
X73437500Y-64362500D03*
X72487500Y-64362500D03*
X71537500Y-64362500D03*
%TD*%
D30*
%TO.C,R5*%
X75012500Y-50550000D03*
X73187500Y-50550000D03*
%TD*%
D35*
%TO.C,C5*%
X60325000Y-36850000D03*
X58425000Y-36850000D03*
%TD*%
D36*
%TO.C,U1*%
X84275000Y-37790000D03*
X84275000Y-39060000D03*
X84275000Y-40330000D03*
X84275000Y-41600000D03*
X84275000Y-42870000D03*
X84275000Y-44140000D03*
X84275000Y-45410000D03*
X84275000Y-46680000D03*
X84275000Y-47950000D03*
X84275000Y-49220000D03*
X84275000Y-50490000D03*
X84275000Y-51760000D03*
X84275000Y-53030000D03*
X84275000Y-54300000D03*
D37*
X86040000Y-55550000D03*
X87310000Y-55550000D03*
X88580000Y-55550000D03*
X89850000Y-55550000D03*
X91120000Y-55550000D03*
X92390000Y-55550000D03*
X93660000Y-55550000D03*
X94930000Y-55550000D03*
X96200000Y-55550000D03*
X97470000Y-55550000D03*
X98740000Y-55550000D03*
X100010000Y-55550000D03*
D36*
X101775000Y-54300000D03*
X101775000Y-53030000D03*
X101775000Y-51760000D03*
X101775000Y-50490000D03*
X101775000Y-49220000D03*
X101775000Y-47950000D03*
X101775000Y-46680000D03*
X101775000Y-45410000D03*
X101775000Y-44140000D03*
X101775000Y-42870000D03*
X101775000Y-41600000D03*
X101775000Y-40330000D03*
X101775000Y-39060000D03*
X101775000Y-37790000D03*
D38*
X91525000Y-45510000D03*
X90125000Y-44110000D03*
X90125000Y-45510000D03*
X90125000Y-46910000D03*
X91525000Y-46910000D03*
X92925000Y-46910000D03*
X92925000Y-45510000D03*
X92925000Y-44110000D03*
X91525000Y-44110000D03*
%TD*%
D39*
%TO.C,C11*%
X59875000Y-55210000D03*
X61775000Y-55210000D03*
%TD*%
D40*
%TO.C,J1*%
X80860000Y-77550000D03*
X86640000Y-77550000D03*
D41*
X80550000Y-76490000D03*
X81350000Y-76490000D03*
D42*
X82500000Y-76490000D03*
X83500000Y-76490000D03*
X84000000Y-76490000D03*
X85000000Y-76490000D03*
D41*
X86150000Y-76490000D03*
X86950000Y-76490000D03*
X86950000Y-76490000D03*
X86150000Y-76490000D03*
D42*
X85500000Y-76490000D03*
X84500000Y-76490000D03*
X83000000Y-76490000D03*
X82000000Y-76490000D03*
D41*
X81350000Y-76490000D03*
X80550000Y-76490000D03*
D43*
X79430000Y-77070000D03*
D44*
X79430000Y-81240000D03*
D43*
X88070000Y-77070000D03*
D44*
X88070000Y-81240000D03*
%TD*%
D45*
%TO.C,C1*%
X76850000Y-67075000D03*
X76850000Y-64125000D03*
%TD*%
D46*
%TO.C,C22*%
X76200000Y-58575000D03*
X76200000Y-61525000D03*
%TD*%
D47*
%TO.C,D1*%
X71725000Y-71500000D03*
X75725000Y-71500000D03*
%TD*%
D35*
%TO.C,C14*%
X77875000Y-40850000D03*
X75975000Y-40850000D03*
%TD*%
D17*
%TO.C,R8*%
X86025000Y-59237500D03*
X86025000Y-61062500D03*
%TD*%
D48*
%TO.C,J5*%
X102915000Y-79450000D03*
D49*
X100375000Y-79450000D03*
X97835000Y-79450000D03*
%TD*%
D35*
%TO.C,C7*%
X72025000Y-52950000D03*
X70125000Y-52950000D03*
%TD*%
D39*
%TO.C,C6*%
X58525000Y-40300000D03*
X60425000Y-40300000D03*
%TD*%
%TO.C,C10*%
X59875000Y-52200000D03*
X61775000Y-52200000D03*
%TD*%
D30*
%TO.C,R6*%
X75012500Y-48400000D03*
X73187500Y-48400000D03*
%TD*%
D50*
%TO.C,U6*%
X63999150Y-68555000D03*
X63999150Y-67285000D03*
X63999150Y-66015000D03*
X63999150Y-64745000D03*
X58550850Y-64745000D03*
X58550850Y-66015000D03*
X58550850Y-67285000D03*
X58550850Y-68555000D03*
D51*
X61275000Y-66650000D03*
%TD*%
D21*
%TO.C,H3*%
X108775000Y-32350000D03*
X109477944Y-30652944D03*
X109477944Y-34047056D03*
X111175000Y-29950000D03*
D22*
X111175000Y-32350000D03*
D21*
X111175000Y-34750000D03*
X112872056Y-30652944D03*
X112872056Y-34047056D03*
X113575000Y-32350000D03*
%TD*%
D52*
%TO.C,L1*%
X70650000Y-61750000D03*
X70650000Y-58450000D03*
%TD*%
D53*
%TO.C,C2*%
X68400000Y-64250000D03*
X68400000Y-66150000D03*
%TD*%
D54*
%TO.C,IC1*%
X64349000Y-41650000D03*
X64349000Y-42300000D03*
X64349000Y-42950000D03*
X64349000Y-43600000D03*
X64349000Y-44250000D03*
X64349000Y-44900000D03*
X64349000Y-45550000D03*
X64349000Y-46200000D03*
X64349000Y-46850000D03*
X64349000Y-47500000D03*
X64349000Y-48150000D03*
X64349000Y-48800000D03*
X64349000Y-49450000D03*
X64349000Y-50100000D03*
X70225000Y-50100000D03*
X70225000Y-49450000D03*
X70225000Y-48800000D03*
X70225000Y-48150000D03*
X70225000Y-47500000D03*
X70225000Y-46850000D03*
X70225000Y-46200000D03*
X70225000Y-45550000D03*
X70225000Y-44900000D03*
X70225000Y-44250000D03*
X70225000Y-43600000D03*
X70225000Y-42950000D03*
X70225000Y-42300000D03*
X70225000Y-41650000D03*
D55*
X67287000Y-45875000D03*
%TD*%
D24*
%TO.C,R3*%
X55312500Y-47750000D03*
X58237500Y-47750000D03*
%TD*%
D46*
%TO.C,C21*%
X78900000Y-58575000D03*
X78900000Y-61525000D03*
%TD*%
D33*
%TO.C,J7*%
X108900000Y-68260000D03*
D34*
X108900000Y-65720000D03*
X108900000Y-63180000D03*
X108900000Y-60640000D03*
X108900000Y-58100000D03*
X108900000Y-55560000D03*
%TD*%
D35*
%TO.C,C12*%
X77875000Y-38450000D03*
X75975000Y-38450000D03*
%TD*%
D31*
%TO.C,C13*%
X77300000Y-36000000D03*
X80250000Y-36000000D03*
%TD*%
D16*
%TO.C,R1*%
X86812500Y-72937500D03*
X88637500Y-72937500D03*
%TD*%
D33*
%TO.C,J9*%
X51425000Y-66025000D03*
D34*
X51425000Y-68565000D03*
%TD*%
D56*
%TO.C,C8*%
X54225000Y-60400000D03*
X54225000Y-54800000D03*
%TD*%
D23*
%TO.C,R19*%
X89425000Y-60962500D03*
X89425000Y-59137500D03*
%TD*%
D46*
%TO.C,C20*%
X54875000Y-64325000D03*
X54875000Y-67275000D03*
%TD*%
D57*
%TO.C,SW1*%
X103325000Y-64550000D03*
X99125000Y-64550000D03*
%TD*%
D21*
%TO.C,H4*%
X108775000Y-78850000D03*
X109477944Y-77152944D03*
X109477944Y-80547056D03*
X111175000Y-76450000D03*
D22*
X111175000Y-78850000D03*
D21*
X111175000Y-81250000D03*
X112872056Y-77152944D03*
X112872056Y-80547056D03*
X113575000Y-78850000D03*
%TD*%
D33*
%TO.C,J4*%
X109050000Y-42100000D03*
D34*
X109050000Y-44640000D03*
X109050000Y-47180000D03*
%TD*%
D33*
%TO.C,J6*%
X72705000Y-34800000D03*
D34*
X70165000Y-34800000D03*
X67625000Y-34800000D03*
X65085000Y-34800000D03*
%TD*%
D16*
%TO.C,R12*%
X60575000Y-71950000D03*
X62400000Y-71950000D03*
%TD*%
%LPD*%
M02*
