%TF.GenerationSoftware,KiCad,Pcbnew,8.0.1*%
%TF.CreationDate,2024-04-06T00:37:26+05:30*%
%TF.ProjectId,Project,50726f6a-6563-4742-9e6b-696361645f70,rev?*%
%TF.SameCoordinates,Original*%
%TF.FileFunction,Soldermask,Top*%
%TF.FilePolarity,Negative*%
%FSLAX46Y46*%
G04 Gerber Fmt 4.6, Leading zero omitted, Abs format (unit mm)*
G04 Created by KiCad (PCBNEW 8.0.1) date 2024-04-06 00:37:26*
%MOMM*%
%LPD*%
G01*
G04 APERTURE LIST*
G04 Aperture macros list*
%AMRoundRect*
0 Rectangle with rounded corners*
0 $1 Rounding radius*
0 $2 $3 $4 $5 $6 $7 $8 $9 X,Y pos of 4 corners*
0 Add a 4 corners polygon primitive as box body*
4,1,4,$2,$3,$4,$5,$6,$7,$8,$9,$2,$3,0*
0 Add four circle primitives for the rounded corners*
1,1,$1+$1,$2,$3*
1,1,$1+$1,$4,$5*
1,1,$1+$1,$6,$7*
1,1,$1+$1,$8,$9*
0 Add four rect primitives between the rounded corners*
20,1,$1+$1,$2,$3,$4,$5,0*
20,1,$1+$1,$4,$5,$6,$7,0*
20,1,$1+$1,$6,$7,$8,$9,0*
20,1,$1+$1,$8,$9,$2,$3,0*%
%AMFreePoly0*
4,1,6,1.000000,0.000000,0.500000,-0.750000,-0.500000,-0.750000,-0.500000,0.750000,0.500000,0.750000,1.000000,0.000000,1.000000,0.000000,$1*%
G04 Aperture macros list end*
%ADD10RoundRect,0.250000X-0.262500X-0.450000X0.262500X-0.450000X0.262500X0.450000X-0.262500X0.450000X0*%
%ADD11RoundRect,0.250000X-0.450000X0.262500X-0.450000X-0.262500X0.450000X-0.262500X0.450000X0.262500X0*%
%ADD12RoundRect,0.200000X-0.200000X-0.800000X0.200000X-0.800000X0.200000X0.800000X-0.200000X0.800000X0*%
%ADD13R,3.000000X3.000000*%
%ADD14C,3.000000*%
%ADD15C,0.800000*%
%ADD16C,6.400000*%
%ADD17RoundRect,0.250000X0.450000X-0.262500X0.450000X0.262500X-0.450000X0.262500X-0.450000X-0.262500X0*%
%ADD18RoundRect,0.250000X-0.312500X-0.625000X0.312500X-0.625000X0.312500X0.625000X-0.312500X0.625000X0*%
%ADD19R,1.500000X1.500000*%
%ADD20FreePoly0,180.000000*%
%ADD21FreePoly0,0.000000*%
%ADD22R,1.549400X0.939800*%
%ADD23R,2.133600X1.498600*%
%ADD24RoundRect,0.250000X0.262500X0.450000X-0.262500X0.450000X-0.262500X-0.450000X0.262500X-0.450000X0*%
%ADD25RoundRect,0.250000X-0.325000X-0.650000X0.325000X-0.650000X0.325000X0.650000X-0.325000X0.650000X0*%
%ADD26RoundRect,0.150000X0.150000X-0.512500X0.150000X0.512500X-0.150000X0.512500X-0.150000X-0.512500X0*%
%ADD27R,1.700000X1.700000*%
%ADD28O,1.700000X1.700000*%
%ADD29RoundRect,0.250000X0.250000X0.475000X-0.250000X0.475000X-0.250000X-0.475000X0.250000X-0.475000X0*%
%ADD30R,1.500000X0.900000*%
%ADD31R,0.900000X1.500000*%
%ADD32R,0.900000X0.900000*%
%ADD33RoundRect,0.250000X-0.250000X-0.475000X0.250000X-0.475000X0.250000X0.475000X-0.250000X0.475000X0*%
%ADD34C,0.600000*%
%ADD35R,0.600000X1.160000*%
%ADD36R,0.300000X1.160000*%
%ADD37O,0.900000X2.000000*%
%ADD38O,0.900000X1.700000*%
%ADD39RoundRect,0.250000X0.650000X-0.325000X0.650000X0.325000X-0.650000X0.325000X-0.650000X-0.325000X0*%
%ADD40RoundRect,0.250000X-0.650000X0.325000X-0.650000X-0.325000X0.650000X-0.325000X0.650000X0.325000X0*%
%ADD41RoundRect,0.250000X-1.000000X-0.650000X1.000000X-0.650000X1.000000X0.650000X-1.000000X0.650000X0*%
%ADD42R,2.100000X2.100000*%
%ADD43C,2.100000*%
%ADD44R,1.460500X0.558800*%
%ADD45R,2.717800X3.403600*%
%ADD46R,4.200000X2.200000*%
%ADD47RoundRect,0.250000X-0.475000X0.250000X-0.475000X-0.250000X0.475000X-0.250000X0.475000X0.250000X0*%
%ADD48R,1.475000X0.450000*%
%ADD49R,3.100000X5.180000*%
%ADD50RoundRect,0.250000X0.550000X-1.500000X0.550000X1.500000X-0.550000X1.500000X-0.550000X-1.500000X0*%
%ADD51RoundRect,0.200000X0.200000X0.800000X-0.200000X0.800000X-0.200000X-0.800000X0.200000X-0.800000X0*%
G04 APERTURE END LIST*
D10*
%TO.C,R10*%
X98162500Y-72950000D03*
X99987500Y-72950000D03*
%TD*%
D11*
%TO.C,R7*%
X80125000Y-38787500D03*
X80125000Y-40612500D03*
%TD*%
D12*
%TO.C,SW2*%
X91675000Y-64550000D03*
X95875000Y-64550000D03*
%TD*%
D13*
%TO.C,J2*%
X68715000Y-79200000D03*
D14*
X63635000Y-79200000D03*
%TD*%
D15*
%TO.C,H1*%
X50275000Y-32350000D03*
X50977944Y-30652944D03*
X50977944Y-34047056D03*
X52675000Y-29950000D03*
D16*
X52675000Y-32350000D03*
D15*
X52675000Y-34750000D03*
X54372056Y-30652944D03*
X54372056Y-34047056D03*
X55075000Y-32350000D03*
%TD*%
D17*
%TO.C,R18*%
X100025000Y-60912500D03*
X100025000Y-59087500D03*
%TD*%
%TO.C,R17*%
X103375000Y-60962500D03*
X103375000Y-59137500D03*
%TD*%
D15*
%TO.C,H2*%
X50275000Y-78850000D03*
X50977944Y-77152944D03*
X50977944Y-80547056D03*
X52675000Y-76450000D03*
D16*
X52675000Y-78850000D03*
D15*
X52675000Y-81250000D03*
X54372056Y-77152944D03*
X54372056Y-80547056D03*
X55075000Y-78850000D03*
%TD*%
D18*
%TO.C,R4*%
X55275000Y-44000000D03*
X58200000Y-44000000D03*
%TD*%
D19*
%TO.C,JP1*%
X87225000Y-64750000D03*
X84825000Y-64750000D03*
D20*
X88025000Y-64750000D03*
D21*
X84025000Y-64750000D03*
%TD*%
D22*
%TO.C,R11*%
X67309300Y-54850000D03*
D23*
X64832800Y-53900000D03*
D22*
X67309300Y-52950000D03*
%TD*%
D24*
%TO.C,R2*%
X80687500Y-72887500D03*
X78862500Y-72887500D03*
%TD*%
D25*
%TO.C,C9*%
X59250000Y-58700000D03*
X62200000Y-58700000D03*
%TD*%
D26*
%TO.C,U4*%
X82800000Y-72937500D03*
X83750000Y-72937500D03*
X84700000Y-72937500D03*
X84700000Y-70662500D03*
X83750000Y-70662500D03*
X82800000Y-70662500D03*
%TD*%
D27*
%TO.C,J3*%
X51375000Y-42050000D03*
D28*
X51375000Y-44590000D03*
X51375000Y-47130000D03*
X51375000Y-49670000D03*
%TD*%
D26*
%TO.C,U2*%
X71537500Y-66637500D03*
X72487500Y-66637500D03*
X73437500Y-66637500D03*
X73437500Y-64362500D03*
X72487500Y-64362500D03*
X71537500Y-64362500D03*
%TD*%
D24*
%TO.C,R5*%
X75012500Y-50550000D03*
X73187500Y-50550000D03*
%TD*%
D29*
%TO.C,C5*%
X60325000Y-36850000D03*
X58425000Y-36850000D03*
%TD*%
D30*
%TO.C,U1*%
X84275000Y-37790000D03*
X84275000Y-39060000D03*
X84275000Y-40330000D03*
X84275000Y-41600000D03*
X84275000Y-42870000D03*
X84275000Y-44140000D03*
X84275000Y-45410000D03*
X84275000Y-46680000D03*
X84275000Y-47950000D03*
X84275000Y-49220000D03*
X84275000Y-50490000D03*
X84275000Y-51760000D03*
X84275000Y-53030000D03*
X84275000Y-54300000D03*
D31*
X86040000Y-55550000D03*
X87310000Y-55550000D03*
X88580000Y-55550000D03*
X89850000Y-55550000D03*
X91120000Y-55550000D03*
X92390000Y-55550000D03*
X93660000Y-55550000D03*
X94930000Y-55550000D03*
X96200000Y-55550000D03*
X97470000Y-55550000D03*
X98740000Y-55550000D03*
X100010000Y-55550000D03*
D30*
X101775000Y-54300000D03*
X101775000Y-53030000D03*
X101775000Y-51760000D03*
X101775000Y-50490000D03*
X101775000Y-49220000D03*
X101775000Y-47950000D03*
X101775000Y-46680000D03*
X101775000Y-45410000D03*
X101775000Y-44140000D03*
X101775000Y-42870000D03*
X101775000Y-41600000D03*
X101775000Y-40330000D03*
X101775000Y-39060000D03*
X101775000Y-37790000D03*
D32*
X91525000Y-45510000D03*
X90125000Y-44110000D03*
X90125000Y-45510000D03*
X90125000Y-46910000D03*
X91525000Y-46910000D03*
X92925000Y-46910000D03*
X92925000Y-45510000D03*
X92925000Y-44110000D03*
X91525000Y-44110000D03*
%TD*%
D33*
%TO.C,C11*%
X59875000Y-55210000D03*
X61775000Y-55210000D03*
%TD*%
D34*
%TO.C,J1*%
X80860000Y-77550000D03*
X86640000Y-77550000D03*
D35*
X80550000Y-76490000D03*
X81350000Y-76490000D03*
D36*
X82500000Y-76490000D03*
X83500000Y-76490000D03*
X84000000Y-76490000D03*
X85000000Y-76490000D03*
D35*
X86150000Y-76490000D03*
X86950000Y-76490000D03*
X86950000Y-76490000D03*
X86150000Y-76490000D03*
D36*
X85500000Y-76490000D03*
X84500000Y-76490000D03*
X83000000Y-76490000D03*
X82000000Y-76490000D03*
D35*
X81350000Y-76490000D03*
X80550000Y-76490000D03*
D37*
X79430000Y-77070000D03*
D38*
X79430000Y-81240000D03*
D37*
X88070000Y-77070000D03*
D38*
X88070000Y-81240000D03*
%TD*%
D39*
%TO.C,C1*%
X76850000Y-67075000D03*
X76850000Y-64125000D03*
%TD*%
D40*
%TO.C,C22*%
X76200000Y-58575000D03*
X76200000Y-61525000D03*
%TD*%
D41*
%TO.C,D1*%
X71725000Y-71500000D03*
X75725000Y-71500000D03*
%TD*%
D29*
%TO.C,C14*%
X77875000Y-40850000D03*
X75975000Y-40850000D03*
%TD*%
D11*
%TO.C,R8*%
X86025000Y-59237500D03*
X86025000Y-61062500D03*
%TD*%
D42*
%TO.C,J5*%
X102915000Y-79450000D03*
D43*
X100375000Y-79450000D03*
X97835000Y-79450000D03*
%TD*%
D29*
%TO.C,C7*%
X72025000Y-52950000D03*
X70125000Y-52950000D03*
%TD*%
D33*
%TO.C,C6*%
X58525000Y-40300000D03*
X60425000Y-40300000D03*
%TD*%
%TO.C,C10*%
X59875000Y-52200000D03*
X61775000Y-52200000D03*
%TD*%
D24*
%TO.C,R6*%
X75012500Y-48400000D03*
X73187500Y-48400000D03*
%TD*%
D44*
%TO.C,U6*%
X63999150Y-68555000D03*
X63999150Y-67285000D03*
X63999150Y-66015000D03*
X63999150Y-64745000D03*
X58550850Y-64745000D03*
X58550850Y-66015000D03*
X58550850Y-67285000D03*
X58550850Y-68555000D03*
D45*
X61275000Y-66650000D03*
%TD*%
D15*
%TO.C,H3*%
X108775000Y-32350000D03*
X109477944Y-30652944D03*
X109477944Y-34047056D03*
X111175000Y-29950000D03*
D16*
X111175000Y-32350000D03*
D15*
X111175000Y-34750000D03*
X112872056Y-30652944D03*
X112872056Y-34047056D03*
X113575000Y-32350000D03*
%TD*%
D46*
%TO.C,L1*%
X70650000Y-61750000D03*
X70650000Y-58450000D03*
%TD*%
D47*
%TO.C,C2*%
X68400000Y-64250000D03*
X68400000Y-66150000D03*
%TD*%
D48*
%TO.C,IC1*%
X64349000Y-41650000D03*
X64349000Y-42300000D03*
X64349000Y-42950000D03*
X64349000Y-43600000D03*
X64349000Y-44250000D03*
X64349000Y-44900000D03*
X64349000Y-45550000D03*
X64349000Y-46200000D03*
X64349000Y-46850000D03*
X64349000Y-47500000D03*
X64349000Y-48150000D03*
X64349000Y-48800000D03*
X64349000Y-49450000D03*
X64349000Y-50100000D03*
X70225000Y-50100000D03*
X70225000Y-49450000D03*
X70225000Y-48800000D03*
X70225000Y-48150000D03*
X70225000Y-47500000D03*
X70225000Y-46850000D03*
X70225000Y-46200000D03*
X70225000Y-45550000D03*
X70225000Y-44900000D03*
X70225000Y-44250000D03*
X70225000Y-43600000D03*
X70225000Y-42950000D03*
X70225000Y-42300000D03*
X70225000Y-41650000D03*
D49*
X67287000Y-45875000D03*
%TD*%
D18*
%TO.C,R3*%
X55312500Y-47750000D03*
X58237500Y-47750000D03*
%TD*%
D40*
%TO.C,C21*%
X78900000Y-58575000D03*
X78900000Y-61525000D03*
%TD*%
D27*
%TO.C,J7*%
X108900000Y-68260000D03*
D28*
X108900000Y-65720000D03*
X108900000Y-63180000D03*
X108900000Y-60640000D03*
X108900000Y-58100000D03*
X108900000Y-55560000D03*
%TD*%
D29*
%TO.C,C12*%
X77875000Y-38450000D03*
X75975000Y-38450000D03*
%TD*%
D25*
%TO.C,C13*%
X77300000Y-36000000D03*
X80250000Y-36000000D03*
%TD*%
D10*
%TO.C,R1*%
X86812500Y-72937500D03*
X88637500Y-72937500D03*
%TD*%
D27*
%TO.C,J9*%
X51425000Y-66025000D03*
D28*
X51425000Y-68565000D03*
%TD*%
D50*
%TO.C,C8*%
X54225000Y-60400000D03*
X54225000Y-54800000D03*
%TD*%
D17*
%TO.C,R19*%
X89425000Y-60962500D03*
X89425000Y-59137500D03*
%TD*%
D40*
%TO.C,C20*%
X54875000Y-64325000D03*
X54875000Y-67275000D03*
%TD*%
D51*
%TO.C,SW1*%
X103325000Y-64550000D03*
X99125000Y-64550000D03*
%TD*%
D15*
%TO.C,H4*%
X108775000Y-78850000D03*
X109477944Y-77152944D03*
X109477944Y-80547056D03*
X111175000Y-76450000D03*
D16*
X111175000Y-78850000D03*
D15*
X111175000Y-81250000D03*
X112872056Y-77152944D03*
X112872056Y-80547056D03*
X113575000Y-78850000D03*
%TD*%
D27*
%TO.C,J4*%
X109050000Y-42100000D03*
D28*
X109050000Y-44640000D03*
X109050000Y-47180000D03*
%TD*%
D27*
%TO.C,J6*%
X72705000Y-34800000D03*
D28*
X70165000Y-34800000D03*
X67625000Y-34800000D03*
X65085000Y-34800000D03*
%TD*%
D10*
%TO.C,R12*%
X60575000Y-71950000D03*
X62400000Y-71950000D03*
%TD*%
M02*
